%TF.GenerationSoftware,KiCad,Pcbnew,(5.1.9)-1*%
%TF.CreationDate,2021-07-05T20:16:42+02:00*%
%TF.ProjectId,Allarmino,416c6c61-726d-4696-9e6f-2e6b69636164,rev?*%
%TF.SameCoordinates,Original*%
%TF.FileFunction,Copper,L1,Top*%
%TF.FilePolarity,Positive*%
%FSLAX46Y46*%
G04 Gerber Fmt 4.6, Leading zero omitted, Abs format (unit mm)*
G04 Created by KiCad (PCBNEW (5.1.9)-1) date 2021-07-05 20:16:42*
%MOMM*%
%LPD*%
G01*
G04 APERTURE LIST*
%TA.AperFunction,NonConductor*%
%ADD10C,0.150000*%
%TD*%
%TA.AperFunction,NonConductor*%
%ADD11C,0.350000*%
%TD*%
%TA.AperFunction,ComponentPad*%
%ADD12R,2.200000X2.200000*%
%TD*%
%TA.AperFunction,ComponentPad*%
%ADD13O,2.200000X2.200000*%
%TD*%
%TA.AperFunction,ComponentPad*%
%ADD14R,2.000000X2.000000*%
%TD*%
%TA.AperFunction,ComponentPad*%
%ADD15C,2.000000*%
%TD*%
%TA.AperFunction,ComponentPad*%
%ADD16C,6.000000*%
%TD*%
%TA.AperFunction,ComponentPad*%
%ADD17C,1.600000*%
%TD*%
%TA.AperFunction,ComponentPad*%
%ADD18O,8.000000X3.800000*%
%TD*%
%TA.AperFunction,ComponentPad*%
%ADD19R,3.960000X1.980000*%
%TD*%
%TA.AperFunction,ComponentPad*%
%ADD20O,3.960000X1.980000*%
%TD*%
%TA.AperFunction,ComponentPad*%
%ADD21R,1.980000X3.960000*%
%TD*%
%TA.AperFunction,ComponentPad*%
%ADD22O,1.980000X3.960000*%
%TD*%
%TA.AperFunction,ComponentPad*%
%ADD23R,1.700000X1.700000*%
%TD*%
%TA.AperFunction,ComponentPad*%
%ADD24O,1.700000X1.700000*%
%TD*%
%TA.AperFunction,ComponentPad*%
%ADD25O,2.500000X2.500000*%
%TD*%
%TA.AperFunction,ComponentPad*%
%ADD26R,2.500000X2.500000*%
%TD*%
%TA.AperFunction,ComponentPad*%
%ADD27C,1.800000*%
%TD*%
%TA.AperFunction,ComponentPad*%
%ADD28R,1.800000X1.800000*%
%TD*%
%TA.AperFunction,ComponentPad*%
%ADD29O,1.050000X1.500000*%
%TD*%
%TA.AperFunction,ComponentPad*%
%ADD30R,1.050000X1.500000*%
%TD*%
%TA.AperFunction,ComponentPad*%
%ADD31O,1.500000X1.050000*%
%TD*%
%TA.AperFunction,ComponentPad*%
%ADD32R,1.500000X1.050000*%
%TD*%
%TA.AperFunction,ComponentPad*%
%ADD33O,1.600000X1.600000*%
%TD*%
%TA.AperFunction,ComponentPad*%
%ADD34R,1.600000X1.600000*%
%TD*%
%TA.AperFunction,ComponentPad*%
%ADD35R,1.905000X2.000000*%
%TD*%
%TA.AperFunction,ComponentPad*%
%ADD36O,1.905000X2.000000*%
%TD*%
%TA.AperFunction,ViaPad*%
%ADD37C,0.800000*%
%TD*%
%TA.AperFunction,Conductor*%
%ADD38C,1.500000*%
%TD*%
%TA.AperFunction,Conductor*%
%ADD39C,1.000000*%
%TD*%
%TA.AperFunction,Conductor*%
%ADD40C,0.750000*%
%TD*%
%TA.AperFunction,Conductor*%
%ADD41C,0.500000*%
%TD*%
%TA.AperFunction,Conductor*%
%ADD42C,0.250000*%
%TD*%
G04 APERTURE END LIST*
D10*
X201882952Y-119546666D02*
X202359142Y-119546666D01*
X201787714Y-119832380D02*
X202121047Y-118832380D01*
X202454380Y-119832380D01*
X203359142Y-119832380D02*
X203025809Y-119356190D01*
X202787714Y-119832380D02*
X202787714Y-118832380D01*
X203168666Y-118832380D01*
X203263904Y-118880000D01*
X203311523Y-118927619D01*
X203359142Y-119022857D01*
X203359142Y-119165714D01*
X203311523Y-119260952D01*
X203263904Y-119308571D01*
X203168666Y-119356190D01*
X202787714Y-119356190D01*
X203787714Y-119832380D02*
X203787714Y-118832380D01*
X204025809Y-118832380D01*
X204168666Y-118880000D01*
X204263904Y-118975238D01*
X204311523Y-119070476D01*
X204359142Y-119260952D01*
X204359142Y-119403809D01*
X204311523Y-119594285D01*
X204263904Y-119689523D01*
X204168666Y-119784761D01*
X204025809Y-119832380D01*
X203787714Y-119832380D01*
X204787714Y-118832380D02*
X204787714Y-119641904D01*
X204835333Y-119737142D01*
X204882952Y-119784761D01*
X204978190Y-119832380D01*
X205168666Y-119832380D01*
X205263904Y-119784761D01*
X205311523Y-119737142D01*
X205359142Y-119641904D01*
X205359142Y-118832380D01*
X205835333Y-119832380D02*
X205835333Y-118832380D01*
X206311523Y-119832380D02*
X206311523Y-118832380D01*
X206882952Y-119832380D01*
X206882952Y-118832380D01*
X207549619Y-118832380D02*
X207740095Y-118832380D01*
X207835333Y-118880000D01*
X207930571Y-118975238D01*
X207978190Y-119165714D01*
X207978190Y-119499047D01*
X207930571Y-119689523D01*
X207835333Y-119784761D01*
X207740095Y-119832380D01*
X207549619Y-119832380D01*
X207454380Y-119784761D01*
X207359142Y-119689523D01*
X207311523Y-119499047D01*
X207311523Y-119165714D01*
X207359142Y-118975238D01*
X207454380Y-118880000D01*
X207549619Y-118832380D01*
X209168666Y-119832380D02*
X209168666Y-118832380D01*
X209644857Y-119832380D02*
X209644857Y-118832380D01*
X209882952Y-118832380D01*
X210025809Y-118880000D01*
X210121047Y-118975238D01*
X210168666Y-119070476D01*
X210216285Y-119260952D01*
X210216285Y-119403809D01*
X210168666Y-119594285D01*
X210121047Y-119689523D01*
X210025809Y-119784761D01*
X209882952Y-119832380D01*
X209644857Y-119832380D01*
X210644857Y-119308571D02*
X210978190Y-119308571D01*
X211121047Y-119832380D02*
X210644857Y-119832380D01*
X210644857Y-118832380D01*
X211121047Y-118832380D01*
X177647482Y-119290714D02*
X177230815Y-119290714D01*
X177148970Y-119945476D02*
X177305220Y-118695476D01*
X177900458Y-118695476D01*
X178860279Y-119112142D02*
X178756113Y-119945476D01*
X178324565Y-119112142D02*
X178242720Y-119766904D01*
X178287363Y-119885952D01*
X178398970Y-119945476D01*
X178577541Y-119945476D01*
X178704029Y-119885952D01*
X178770994Y-119826428D01*
X179276946Y-119112142D02*
X179753136Y-119112142D01*
X179507601Y-118695476D02*
X179373672Y-119766904D01*
X179418315Y-119885952D01*
X179529922Y-119945476D01*
X179648970Y-119945476D01*
X180705517Y-119112142D02*
X180601351Y-119945476D01*
X180169803Y-119112142D02*
X180087958Y-119766904D01*
X180132601Y-119885952D01*
X180244208Y-119945476D01*
X180422779Y-119945476D01*
X180549267Y-119885952D01*
X180616232Y-119826428D01*
X181196589Y-119945476D02*
X181300755Y-119112142D01*
X181270994Y-119350238D02*
X181345398Y-119231190D01*
X181412363Y-119171666D01*
X181538851Y-119112142D01*
X181657898Y-119112142D01*
X182506113Y-119945476D02*
X182587958Y-119290714D01*
X182543315Y-119171666D01*
X182431708Y-119112142D01*
X182193613Y-119112142D01*
X182067125Y-119171666D01*
X182513553Y-119885952D02*
X182387065Y-119945476D01*
X182089446Y-119945476D01*
X181977839Y-119885952D01*
X181933196Y-119766904D01*
X181948077Y-119647857D01*
X182022482Y-119528809D01*
X182148970Y-119469285D01*
X182446589Y-119469285D01*
X182573077Y-119409761D01*
X184857303Y-118755000D02*
X184745696Y-118695476D01*
X184567125Y-118695476D01*
X184381113Y-118755000D01*
X184247184Y-118874047D01*
X184172779Y-118993095D01*
X184083494Y-119231190D01*
X184061172Y-119409761D01*
X184090934Y-119647857D01*
X184135577Y-119766904D01*
X184239744Y-119885952D01*
X184410875Y-119945476D01*
X184529922Y-119945476D01*
X184715934Y-119885952D01*
X184782898Y-119826428D01*
X184834982Y-119409761D01*
X184596886Y-119409761D01*
X185303732Y-119945476D02*
X185407898Y-119112142D01*
X185378136Y-119350238D02*
X185452541Y-119231190D01*
X185519505Y-119171666D01*
X185645994Y-119112142D01*
X185765041Y-119112142D01*
X186256113Y-119945476D02*
X186144505Y-119885952D01*
X186092422Y-119826428D01*
X186047779Y-119707380D01*
X186092422Y-119350238D01*
X186166827Y-119231190D01*
X186233791Y-119171666D01*
X186360279Y-119112142D01*
X186538851Y-119112142D01*
X186650458Y-119171666D01*
X186702541Y-119231190D01*
X186747184Y-119350238D01*
X186702541Y-119707380D01*
X186628136Y-119826428D01*
X186561172Y-119885952D01*
X186434684Y-119945476D01*
X186256113Y-119945476D01*
X187848375Y-119112142D02*
X187744208Y-119945476D01*
X187312660Y-119112142D02*
X187230815Y-119766904D01*
X187275458Y-119885952D01*
X187387065Y-119945476D01*
X187565636Y-119945476D01*
X187692125Y-119885952D01*
X187759089Y-119826428D01*
X188443613Y-119112142D02*
X188287363Y-120362142D01*
X188436172Y-119171666D02*
X188562660Y-119112142D01*
X188800755Y-119112142D01*
X188912363Y-119171666D01*
X188964446Y-119231190D01*
X189009089Y-119350238D01*
X188964446Y-119707380D01*
X188890041Y-119826428D01*
X188823077Y-119885952D01*
X188696589Y-119945476D01*
X188458494Y-119945476D01*
X188346886Y-119885952D01*
D11*
X176514169Y-117086000D02*
X177942741Y-117086000D01*
X176121312Y-117943142D02*
X177496312Y-114943142D01*
X178121312Y-117943142D01*
X179549883Y-117943142D02*
X179282026Y-117800285D01*
X179174883Y-117514571D01*
X179496312Y-114943142D01*
X181121312Y-117943142D02*
X180853455Y-117800285D01*
X180746312Y-117514571D01*
X181067741Y-114943142D01*
X183549883Y-117943142D02*
X183746312Y-116371714D01*
X183639169Y-116086000D01*
X183371312Y-115943142D01*
X182799883Y-115943142D01*
X182496312Y-116086000D01*
X183567741Y-117800285D02*
X183264169Y-117943142D01*
X182549883Y-117943142D01*
X182282026Y-117800285D01*
X182174883Y-117514571D01*
X182210598Y-117228857D01*
X182389169Y-116943142D01*
X182692741Y-116800285D01*
X183407026Y-116800285D01*
X183710598Y-116657428D01*
X184978455Y-117943142D02*
X185228455Y-115943142D01*
X185157026Y-116514571D02*
X185335598Y-116228857D01*
X185496312Y-116086000D01*
X185799883Y-115943142D01*
X186085598Y-115943142D01*
X186835598Y-117943142D02*
X187085598Y-115943142D01*
X187049883Y-116228857D02*
X187210598Y-116086000D01*
X187514169Y-115943142D01*
X187942741Y-115943142D01*
X188210598Y-116086000D01*
X188317741Y-116371714D01*
X188121312Y-117943142D01*
X188317741Y-116371714D02*
X188496312Y-116086000D01*
X188799883Y-115943142D01*
X189228455Y-115943142D01*
X189496312Y-116086000D01*
X189603455Y-116371714D01*
X189407026Y-117943142D01*
X190835598Y-117943142D02*
X191085598Y-115943142D01*
X191210598Y-114943142D02*
X191049883Y-115086000D01*
X191174883Y-115228857D01*
X191335598Y-115086000D01*
X191210598Y-114943142D01*
X191174883Y-115228857D01*
X192514169Y-115943142D02*
X192264169Y-117943142D01*
X192478455Y-116228857D02*
X192639169Y-116086000D01*
X192942741Y-115943142D01*
X193371312Y-115943142D01*
X193639169Y-116086000D01*
X193746312Y-116371714D01*
X193549883Y-117943142D01*
X195407026Y-117943142D02*
X195139169Y-117800285D01*
X195014169Y-117657428D01*
X194907026Y-117371714D01*
X195014169Y-116514571D01*
X195192741Y-116228857D01*
X195353455Y-116086000D01*
X195657026Y-115943142D01*
X196085598Y-115943142D01*
X196353455Y-116086000D01*
X196478455Y-116228857D01*
X196585598Y-116514571D01*
X196478455Y-117371714D01*
X196299883Y-117657428D01*
X196139169Y-117800285D01*
X195835598Y-117943142D01*
X195407026Y-117943142D01*
X199924883Y-114943142D02*
X200549883Y-117943142D01*
X201924883Y-114943142D01*
X204121312Y-117943142D02*
X202407026Y-117943142D01*
X203264169Y-117943142D02*
X203639169Y-114943142D01*
X203299883Y-115371714D01*
X202978455Y-115657428D01*
X202674883Y-115800285D01*
X205442741Y-117657428D02*
X205567741Y-117800285D01*
X205407026Y-117943142D01*
X205282026Y-117800285D01*
X205442741Y-117657428D01*
X205407026Y-117943142D01*
X207782026Y-114943142D02*
X208067741Y-114943142D01*
X208335598Y-115086000D01*
X208460598Y-115228857D01*
X208567741Y-115514571D01*
X208639169Y-116086000D01*
X208549883Y-116800285D01*
X208335598Y-117371714D01*
X208157026Y-117657428D01*
X207996312Y-117800285D01*
X207692741Y-117943142D01*
X207407026Y-117943142D01*
X207139169Y-117800285D01*
X207014169Y-117657428D01*
X206907026Y-117371714D01*
X206835598Y-116800285D01*
X206924883Y-116086000D01*
X207139169Y-115514571D01*
X207317741Y-115228857D01*
X207478455Y-115086000D01*
X207782026Y-114943142D01*
X209692741Y-117943142D02*
X210067741Y-114943142D01*
X209924883Y-116086000D02*
X210228455Y-115943142D01*
X210799883Y-115943142D01*
X211067741Y-116086000D01*
X211192741Y-116228857D01*
X211299883Y-116514571D01*
X211192741Y-117371714D01*
X211014169Y-117657428D01*
X210853455Y-117800285D01*
X210549883Y-117943142D01*
X209978455Y-117943142D01*
X209710598Y-117800285D01*
D12*
%TO.P,D3,1*%
%TO.N,+3V3*%
X169672000Y-55880000D03*
D13*
%TO.P,D3,2*%
%TO.N,/D33*%
X159512000Y-55880000D03*
%TD*%
D14*
%TO.P,BZ1,1*%
%TO.N,Net-(BZ1-Pad1)*%
X93980000Y-62484000D03*
D15*
%TO.P,BZ1,2*%
%TO.N,GND*%
X101580000Y-62484000D03*
%TD*%
D16*
%TO.P,REF\u002A\u002A,1*%
%TO.N,GND*%
X170688000Y-41656000D03*
X196088000Y-41656000D03*
%TD*%
D17*
%TO.P,C2,1*%
%TO.N,+12V*%
X189564000Y-50292000D03*
%TO.P,C2,2*%
%TO.N,GND*%
X194564000Y-50292000D03*
%TD*%
%TO.P,C3,2*%
%TO.N,GND*%
X183388000Y-44704000D03*
%TO.P,C3,1*%
%TO.N,+5V*%
X178388000Y-44704000D03*
%TD*%
%TO.P,C5,1*%
%TO.N,Net-(C5-Pad1)*%
X170180000Y-78312000D03*
%TO.P,C5,2*%
%TO.N,GND*%
X170180000Y-83312000D03*
%TD*%
%TO.P,C6,1*%
%TO.N,Net-(C6-Pad1)*%
X163068000Y-92964000D03*
%TO.P,C6,2*%
%TO.N,GND*%
X168068000Y-92964000D03*
%TD*%
%TO.P,C7,2*%
%TO.N,GND*%
X162560000Y-96092000D03*
%TO.P,C7,1*%
%TO.N,Net-(C7-Pad1)*%
X162560000Y-101092000D03*
%TD*%
D12*
%TO.P,D1,1*%
%TO.N,+12V*%
X203708000Y-52832000D03*
D13*
%TO.P,D1,2*%
%TO.N,GND*%
X203708000Y-42672000D03*
%TD*%
%TO.P,D2,2*%
%TO.N,Net-(D2-Pad2)*%
X178308000Y-75184000D03*
D12*
%TO.P,D2,1*%
%TO.N,+12V*%
X178308000Y-65024000D03*
%TD*%
D13*
%TO.P,D4,2*%
%TO.N,Net-(D4-Pad2)*%
X178308000Y-94234000D03*
D12*
%TO.P,D4,1*%
%TO.N,+12V*%
X178308000Y-84074000D03*
%TD*%
%TO.P,D5,1*%
%TO.N,+12V*%
X178308000Y-100076000D03*
D13*
%TO.P,D5,2*%
%TO.N,Net-(D5-Pad2)*%
X178308000Y-110236000D03*
%TD*%
D18*
%TO.P,F1,1*%
%TO.N,+12V*%
X204568000Y-57912000D03*
%TO.P,F1,2*%
%TO.N,Net-(F1-Pad2)*%
X213868000Y-57912000D03*
%TD*%
D19*
%TO.P,J1,1*%
%TO.N,Net-(F1-Pad2)*%
X212852000Y-50212000D03*
D20*
%TO.P,J1,2*%
%TO.N,GND*%
X212852000Y-45212000D03*
%TD*%
D19*
%TO.P,J2,1*%
%TO.N,Net-(J2-Pad1)*%
X212852000Y-75532000D03*
D20*
%TO.P,J2,2*%
%TO.N,Net-(J2-Pad2)*%
X212852000Y-70532000D03*
%TO.P,J2,3*%
%TO.N,Net-(J2-Pad3)*%
X212852000Y-65532000D03*
%TD*%
D19*
%TO.P,J3,1*%
%TO.N,Net-(J3-Pad1)*%
X212852000Y-92456000D03*
D20*
%TO.P,J3,2*%
%TO.N,Net-(J3-Pad2)*%
X212852000Y-87456000D03*
%TO.P,J3,3*%
%TO.N,Net-(J3-Pad3)*%
X212852000Y-82456000D03*
%TD*%
%TO.P,J4,3*%
%TO.N,Net-(J4-Pad3)*%
X212852000Y-100076000D03*
%TO.P,J4,2*%
%TO.N,Net-(J4-Pad2)*%
X212852000Y-105076000D03*
D19*
%TO.P,J4,1*%
%TO.N,Net-(J4-Pad1)*%
X212852000Y-110076000D03*
%TD*%
D21*
%TO.P,J10,1*%
%TO.N,Net-(J10-Pad1)*%
X146304000Y-112522000D03*
D22*
%TO.P,J10,2*%
%TO.N,Net-(D6-Pad2)*%
X151304000Y-112522000D03*
%TD*%
%TO.P,J11,2*%
%TO.N,Net-(D7-Pad2)*%
X140128000Y-112522000D03*
D21*
%TO.P,J11,1*%
%TO.N,Net-(J11-Pad1)*%
X135128000Y-112522000D03*
%TD*%
%TO.P,J12,1*%
%TO.N,Net-(J12-Pad1)*%
X123778000Y-112522000D03*
D22*
%TO.P,J12,2*%
%TO.N,Net-(D8-Pad2)*%
X128778000Y-112522000D03*
%TD*%
D21*
%TO.P,J13,1*%
%TO.N,Net-(J13-Pad1)*%
X112522000Y-112522000D03*
D22*
%TO.P,J13,2*%
%TO.N,Net-(D9-Pad2)*%
X117522000Y-112522000D03*
%TD*%
%TO.P,J14,2*%
%TO.N,Net-(D10-Pad2)*%
X104568000Y-112522000D03*
D21*
%TO.P,J14,1*%
%TO.N,Net-(J14-Pad1)*%
X99568000Y-112522000D03*
%TD*%
D22*
%TO.P,J15,2*%
%TO.N,Net-(D11-Pad2)*%
X92202000Y-112776000D03*
D21*
%TO.P,J15,1*%
%TO.N,Net-(J15-Pad1)*%
X87202000Y-112776000D03*
%TD*%
D20*
%TO.P,J16,2*%
%TO.N,Net-(D12-Pad2)*%
X84582000Y-81788000D03*
D19*
%TO.P,J16,1*%
%TO.N,Net-(J16-Pad1)*%
X84582000Y-76788000D03*
%TD*%
D23*
%TO.P,J50,1*%
%TO.N,+3V3*%
X101600000Y-38100000D03*
D24*
%TO.P,J50,2*%
%TO.N,SDA*%
X101600000Y-40640000D03*
%TO.P,J50,3*%
%TO.N,SCL*%
X99060000Y-38100000D03*
%TO.P,J50,4*%
%TO.N,GND*%
X99060000Y-40640000D03*
%TD*%
%TO.P,J51,6*%
%TO.N,GND*%
X114808000Y-43180000D03*
%TO.P,J51,5*%
%TO.N,CS1*%
X112268000Y-43180000D03*
%TO.P,J51,4*%
%TO.N,CLK*%
X114808000Y-40640000D03*
%TO.P,J51,3*%
%TO.N,MISO*%
X112268000Y-40640000D03*
%TO.P,J51,2*%
%TO.N,MOSI*%
X114808000Y-38100000D03*
D23*
%TO.P,J51,1*%
%TO.N,+3V3*%
X112268000Y-38100000D03*
%TD*%
%TO.P,J52,1*%
%TO.N,+3V3*%
X120396000Y-38100000D03*
D24*
%TO.P,J52,2*%
%TO.N,MOSI*%
X122936000Y-38100000D03*
%TO.P,J52,3*%
%TO.N,MISO*%
X120396000Y-40640000D03*
%TO.P,J52,4*%
%TO.N,CLK*%
X122936000Y-40640000D03*
%TO.P,J52,5*%
%TO.N,CS2*%
X120396000Y-43180000D03*
%TO.P,J52,6*%
%TO.N,GND*%
X122936000Y-43180000D03*
%TD*%
D23*
%TO.P,J53,1*%
%TO.N,/TX0*%
X88392000Y-50800000D03*
D24*
%TO.P,J53,2*%
%TO.N,/RX0*%
X88392000Y-48260000D03*
%TO.P,J53,3*%
%TO.N,N/C*%
X88392000Y-45720000D03*
%TO.P,J53,4*%
X88392000Y-43180000D03*
%TO.P,J53,5*%
%TO.N,+3V3*%
X88392000Y-40640000D03*
%TO.P,J53,6*%
%TO.N,GND*%
X88392000Y-38100000D03*
%TD*%
%TO.P,JP1,2*%
%TO.N,GND*%
X107696000Y-89154000D03*
D23*
%TO.P,JP1,1*%
%TO.N,/D14*%
X107696000Y-86614000D03*
%TD*%
%TO.P,JP2,1*%
%TO.N,CONFIG_JMP*%
X120396000Y-72644000D03*
D24*
%TO.P,JP2,2*%
%TO.N,+3V3*%
X117856000Y-72644000D03*
%TD*%
D23*
%TO.P,JP3,1*%
%TO.N,Net-(JP3-Pad1)*%
X101092000Y-72136000D03*
D24*
%TO.P,JP3,2*%
%TO.N,BUZZER*%
X103632000Y-72136000D03*
%TD*%
D25*
%TO.P,K1,5*%
%TO.N,+12V*%
X185388000Y-64516000D03*
%TO.P,K1,4*%
%TO.N,Net-(J2-Pad3)*%
X197588000Y-64516000D03*
%TO.P,K1,3*%
%TO.N,Net-(J2-Pad1)*%
X197588000Y-76516000D03*
%TO.P,K1,2*%
%TO.N,Net-(D2-Pad2)*%
X185388000Y-76516000D03*
D26*
%TO.P,K1,1*%
%TO.N,Net-(J2-Pad2)*%
X183388000Y-70516000D03*
%TD*%
%TO.P,K2,1*%
%TO.N,Net-(J3-Pad2)*%
X183420000Y-87788000D03*
D25*
%TO.P,K2,2*%
%TO.N,Net-(D4-Pad2)*%
X185420000Y-93788000D03*
%TO.P,K2,3*%
%TO.N,Net-(J3-Pad1)*%
X197620000Y-93788000D03*
%TO.P,K2,4*%
%TO.N,Net-(J3-Pad3)*%
X197620000Y-81788000D03*
%TO.P,K2,5*%
%TO.N,+12V*%
X185420000Y-81788000D03*
%TD*%
D26*
%TO.P,K3,1*%
%TO.N,Net-(J4-Pad2)*%
X183388000Y-105664000D03*
D25*
%TO.P,K3,2*%
%TO.N,Net-(D5-Pad2)*%
X185388000Y-111664000D03*
%TO.P,K3,3*%
%TO.N,Net-(J4-Pad1)*%
X197588000Y-111664000D03*
%TO.P,K3,4*%
%TO.N,Net-(J4-Pad3)*%
X197588000Y-99664000D03*
%TO.P,K3,5*%
%TO.N,+12V*%
X185388000Y-99664000D03*
%TD*%
D27*
%TO.P,LD1,2*%
%TO.N,+12V*%
X175768000Y-60960000D03*
D28*
%TO.P,LD1,1*%
%TO.N,Net-(LD1-Pad1)*%
X173228000Y-60960000D03*
%TD*%
%TO.P,LD2,1*%
%TO.N,Net-(LD2-Pad1)*%
X174244000Y-88392000D03*
D27*
%TO.P,LD2,2*%
%TO.N,+12V*%
X174244000Y-85852000D03*
%TD*%
D28*
%TO.P,LD3,1*%
%TO.N,Net-(LD3-Pad1)*%
X170180000Y-104140000D03*
D27*
%TO.P,LD3,2*%
%TO.N,+12V*%
X170180000Y-106680000D03*
%TD*%
%TO.P,LD10,2*%
%TO.N,/D2*%
X124460000Y-51562000D03*
D28*
%TO.P,LD10,1*%
%TO.N,Net-(LD10-Pad1)*%
X121920000Y-51562000D03*
%TD*%
%TO.P,LD11,1*%
%TO.N,Net-(LD11-Pad1)*%
X116332000Y-51562000D03*
D27*
%TO.P,LD11,2*%
%TO.N,/D15*%
X118872000Y-51562000D03*
%TD*%
D29*
%TO.P,Q1,2*%
%TO.N,Net-(C5-Pad1)*%
X175260000Y-79756000D03*
%TO.P,Q1,3*%
%TO.N,GND*%
X173990000Y-79756000D03*
D30*
%TO.P,Q1,1*%
%TO.N,Net-(D2-Pad2)*%
X176530000Y-79756000D03*
%TD*%
D31*
%TO.P,Q2,2*%
%TO.N,Net-(C6-Pad1)*%
X169672000Y-97282000D03*
%TO.P,Q2,3*%
%TO.N,GND*%
X169672000Y-96012000D03*
D32*
%TO.P,Q2,1*%
%TO.N,Net-(D4-Pad2)*%
X169672000Y-98552000D03*
%TD*%
%TO.P,Q3,1*%
%TO.N,Net-(D5-Pad2)*%
X165100000Y-106680000D03*
D31*
%TO.P,Q3,3*%
%TO.N,GND*%
X165100000Y-104140000D03*
%TO.P,Q3,2*%
%TO.N,Net-(C7-Pad1)*%
X165100000Y-105410000D03*
%TD*%
D17*
%TO.P,R1,1*%
%TO.N,Net-(C5-Pad1)*%
X166624000Y-75692000D03*
D33*
%TO.P,R1,2*%
%TO.N,GND*%
X166624000Y-85852000D03*
%TD*%
D17*
%TO.P,R2,1*%
%TO.N,Net-(LD1-Pad1)*%
X173228000Y-65532000D03*
D33*
%TO.P,R2,2*%
%TO.N,Net-(D2-Pad2)*%
X173228000Y-75692000D03*
%TD*%
%TO.P,R3,2*%
%TO.N,+3V3*%
X164592000Y-59436000D03*
D17*
%TO.P,R3,1*%
%TO.N,Net-(C5-Pad1)*%
X164592000Y-69596000D03*
%TD*%
%TO.P,R4,1*%
%TO.N,Net-(C5-Pad1)*%
X168148000Y-69596000D03*
D33*
%TO.P,R4,2*%
%TO.N,/D33*%
X168148000Y-59436000D03*
%TD*%
D17*
%TO.P,R5,1*%
%TO.N,Net-(LD2-Pad1)*%
X174244000Y-90932000D03*
D33*
%TO.P,R5,2*%
%TO.N,Net-(D4-Pad2)*%
X174244000Y-101092000D03*
%TD*%
%TO.P,R6,2*%
%TO.N,GND*%
X168148000Y-89408000D03*
D17*
%TO.P,R6,1*%
%TO.N,Net-(C6-Pad1)*%
X157988000Y-89408000D03*
%TD*%
%TO.P,R7,1*%
%TO.N,/D25*%
X161544000Y-76200000D03*
D33*
%TO.P,R7,2*%
%TO.N,Net-(C6-Pad1)*%
X161544000Y-86360000D03*
%TD*%
%TO.P,R8,2*%
%TO.N,Net-(D5-Pad2)*%
X174244000Y-114300000D03*
D17*
%TO.P,R8,1*%
%TO.N,Net-(LD3-Pad1)*%
X174244000Y-104140000D03*
%TD*%
D33*
%TO.P,R9,2*%
%TO.N,GND*%
X159004000Y-96012000D03*
D17*
%TO.P,R9,1*%
%TO.N,Net-(C7-Pad1)*%
X159004000Y-106172000D03*
%TD*%
D33*
%TO.P,R10,2*%
%TO.N,Net-(C7-Pad1)*%
X157480000Y-86360000D03*
D17*
%TO.P,R10,1*%
%TO.N,/D12*%
X157480000Y-76200000D03*
%TD*%
%TO.P,R11,1*%
%TO.N,/D27*%
X142240000Y-81534000D03*
D33*
%TO.P,R11,2*%
%TO.N,+3V3*%
X152400000Y-81534000D03*
%TD*%
D17*
%TO.P,R13,1*%
%TO.N,/D26*%
X142240000Y-84582000D03*
D33*
%TO.P,R13,2*%
%TO.N,+3V3*%
X152400000Y-84582000D03*
%TD*%
%TO.P,R15,2*%
%TO.N,+3V3*%
X128016000Y-81534000D03*
D17*
%TO.P,R15,1*%
%TO.N,/D35*%
X138176000Y-81534000D03*
%TD*%
D33*
%TO.P,R17,2*%
%TO.N,+3V3*%
X128016000Y-84582000D03*
D17*
%TO.P,R17,1*%
%TO.N,/D34*%
X138176000Y-84582000D03*
%TD*%
%TO.P,R19,1*%
%TO.N,/D14*%
X114808000Y-84582000D03*
D33*
%TO.P,R19,2*%
%TO.N,+3V3*%
X124968000Y-84582000D03*
%TD*%
%TO.P,R21,2*%
%TO.N,+3V3*%
X124968000Y-81534000D03*
D17*
%TO.P,R21,1*%
%TO.N,/D13*%
X114808000Y-81534000D03*
%TD*%
%TO.P,R23,1*%
%TO.N,/D32*%
X114808000Y-78486000D03*
D33*
%TO.P,R23,2*%
%TO.N,+3V3*%
X124968000Y-78486000D03*
%TD*%
%TO.P,R25,2*%
%TO.N,Net-(JP3-Pad1)*%
X93980000Y-70612000D03*
D17*
%TO.P,R25,1*%
%TO.N,Net-(BZ1-Pad1)*%
X83820000Y-70612000D03*
%TD*%
%TO.P,R26,1*%
%TO.N,GND*%
X86360000Y-55118000D03*
D33*
%TO.P,R26,2*%
%TO.N,Net-(BZ1-Pad1)*%
X86360000Y-65278000D03*
%TD*%
D17*
%TO.P,R27,1*%
%TO.N,GND*%
X106680000Y-68072000D03*
D33*
%TO.P,R27,2*%
%TO.N,CONFIG_JMP*%
X116840000Y-68072000D03*
%TD*%
D17*
%TO.P,R28,1*%
%TO.N,GND*%
X109728000Y-61468000D03*
D33*
%TO.P,R28,2*%
%TO.N,Net-(LD10-Pad1)*%
X119888000Y-61468000D03*
%TD*%
D17*
%TO.P,R29,1*%
%TO.N,GND*%
X106426000Y-58166000D03*
D33*
%TO.P,R29,2*%
%TO.N,Net-(LD11-Pad1)*%
X116586000Y-58166000D03*
%TD*%
%TO.P,R30,2*%
%TO.N,+3V3*%
X94488000Y-37084000D03*
D17*
%TO.P,R30,1*%
%TO.N,SCL*%
X94488000Y-47244000D03*
%TD*%
D33*
%TO.P,R31,2*%
%TO.N,SCL*%
X98298000Y-44450000D03*
D17*
%TO.P,R31,1*%
%TO.N,GND*%
X98298000Y-54610000D03*
%TD*%
%TO.P,R32,1*%
%TO.N,+3V3*%
X106680000Y-35814000D03*
D33*
%TO.P,R32,2*%
%TO.N,SDA*%
X106680000Y-45974000D03*
%TD*%
%TO.P,R33,2*%
%TO.N,GND*%
X102108000Y-54610000D03*
D17*
%TO.P,R33,1*%
%TO.N,SDA*%
X102108000Y-44450000D03*
%TD*%
D24*
%TO.P,U1,15*%
%TO.N,N/C*%
X153320000Y-73199001D03*
%TO.P,U1,14*%
X153320000Y-70659001D03*
%TO.P,U1,13*%
X153320000Y-68119001D03*
%TO.P,U1,12*%
%TO.N,/D34*%
X153320000Y-65579001D03*
%TO.P,U1,11*%
%TO.N,/D35*%
X153320000Y-63039001D03*
%TO.P,U1,10*%
%TO.N,/D32*%
X153320000Y-60499001D03*
%TO.P,U1,9*%
%TO.N,/D33*%
X153320000Y-57959001D03*
%TO.P,U1,8*%
%TO.N,/D25*%
X153320000Y-55419001D03*
%TO.P,U1,7*%
%TO.N,/D26*%
X153320000Y-52879001D03*
%TO.P,U1,6*%
%TO.N,/D27*%
X153320000Y-50339001D03*
%TO.P,U1,5*%
%TO.N,/D14*%
X153320000Y-47799001D03*
%TO.P,U1,4*%
%TO.N,/D12*%
X153320000Y-45259001D03*
%TO.P,U1,3*%
%TO.N,/D13*%
X153320000Y-42719001D03*
%TO.P,U1,2*%
%TO.N,GND*%
X153320000Y-40179001D03*
D23*
%TO.P,U1,1*%
%TO.N,+5V*%
X153320000Y-37639001D03*
%TD*%
D33*
%TO.P,U2,6*%
%TO.N,N/C*%
X145288000Y-87884000D03*
%TO.P,U2,3*%
X150368000Y-95504000D03*
%TO.P,U2,5*%
%TO.N,/D27*%
X147828000Y-87884000D03*
%TO.P,U2,2*%
%TO.N,Net-(D6-Pad2)*%
X147828000Y-95504000D03*
%TO.P,U2,4*%
%TO.N,GND*%
X150368000Y-87884000D03*
D34*
%TO.P,U2,1*%
%TO.N,Net-(D6-Pad1)*%
X145288000Y-95504000D03*
%TD*%
%TO.P,U3,1*%
%TO.N,Net-(D7-Pad1)*%
X134366000Y-95504000D03*
D33*
%TO.P,U3,4*%
%TO.N,GND*%
X139446000Y-87884000D03*
%TO.P,U3,2*%
%TO.N,Net-(D7-Pad2)*%
X136906000Y-95504000D03*
%TO.P,U3,5*%
%TO.N,/D26*%
X136906000Y-87884000D03*
%TO.P,U3,3*%
%TO.N,N/C*%
X139446000Y-95504000D03*
%TO.P,U3,6*%
X134366000Y-87884000D03*
%TD*%
D34*
%TO.P,U4,1*%
%TO.N,Net-(D8-Pad1)*%
X123190000Y-95504000D03*
D33*
%TO.P,U4,4*%
%TO.N,GND*%
X128270000Y-87884000D03*
%TO.P,U4,2*%
%TO.N,Net-(D8-Pad2)*%
X125730000Y-95504000D03*
%TO.P,U4,5*%
%TO.N,/D35*%
X125730000Y-87884000D03*
%TO.P,U4,3*%
%TO.N,N/C*%
X128270000Y-95504000D03*
%TO.P,U4,6*%
X123190000Y-87884000D03*
%TD*%
D34*
%TO.P,U5,1*%
%TO.N,Net-(D9-Pad1)*%
X111506000Y-95504000D03*
D33*
%TO.P,U5,4*%
%TO.N,GND*%
X116586000Y-87884000D03*
%TO.P,U5,2*%
%TO.N,Net-(D9-Pad2)*%
X114046000Y-95504000D03*
%TO.P,U5,5*%
%TO.N,/D34*%
X114046000Y-87884000D03*
%TO.P,U5,3*%
%TO.N,N/C*%
X116586000Y-95504000D03*
%TO.P,U5,6*%
X111506000Y-87884000D03*
%TD*%
%TO.P,U6,6*%
%TO.N,N/C*%
X98806000Y-87884000D03*
%TO.P,U6,3*%
X103886000Y-95504000D03*
%TO.P,U6,5*%
%TO.N,/D14*%
X101346000Y-87884000D03*
%TO.P,U6,2*%
%TO.N,Net-(D10-Pad2)*%
X101346000Y-95504000D03*
%TO.P,U6,4*%
%TO.N,GND*%
X103886000Y-87884000D03*
D34*
%TO.P,U6,1*%
%TO.N,Net-(D10-Pad1)*%
X98806000Y-95504000D03*
%TD*%
%TO.P,U7,1*%
%TO.N,Net-(D11-Pad1)*%
X86614000Y-95504000D03*
D33*
%TO.P,U7,4*%
%TO.N,GND*%
X91694000Y-87884000D03*
%TO.P,U7,2*%
%TO.N,Net-(D11-Pad2)*%
X89154000Y-95504000D03*
%TO.P,U7,5*%
%TO.N,/D13*%
X89154000Y-87884000D03*
%TO.P,U7,3*%
%TO.N,N/C*%
X91694000Y-95504000D03*
%TO.P,U7,6*%
X86614000Y-87884000D03*
%TD*%
%TO.P,U8,6*%
%TO.N,N/C*%
X109220000Y-77724000D03*
%TO.P,U8,3*%
X101600000Y-82804000D03*
%TO.P,U8,5*%
%TO.N,/D32*%
X109220000Y-80264000D03*
%TO.P,U8,2*%
%TO.N,Net-(D12-Pad2)*%
X101600000Y-80264000D03*
%TO.P,U8,4*%
%TO.N,GND*%
X109220000Y-82804000D03*
D34*
%TO.P,U8,1*%
%TO.N,Net-(D12-Pad1)*%
X101600000Y-77724000D03*
%TD*%
D35*
%TO.P,U10,1*%
%TO.N,+12V*%
X185928000Y-38100000D03*
D36*
%TO.P,U10,2*%
%TO.N,GND*%
X183388000Y-38100000D03*
%TO.P,U10,3*%
%TO.N,+5V*%
X180848000Y-38100000D03*
%TD*%
D23*
%TO.P,U_1,1*%
%TO.N,+3V3*%
X128825001Y-37639001D03*
D24*
%TO.P,U_1,2*%
%TO.N,GND*%
X128825001Y-40179001D03*
%TO.P,U_1,3*%
%TO.N,/D15*%
X128825001Y-42719001D03*
%TO.P,U_1,4*%
%TO.N,/D2*%
X128825001Y-45259001D03*
%TO.P,U_1,5*%
%TO.N,CS2*%
X128825001Y-47799001D03*
%TO.P,U_1,6*%
%TO.N,CONFIG_JMP*%
X128825001Y-50339001D03*
%TO.P,U_1,7*%
%TO.N,BUZZER*%
X128825001Y-52879001D03*
%TO.P,U_1,8*%
%TO.N,CS1*%
X128825001Y-55419001D03*
%TO.P,U_1,9*%
%TO.N,CLK*%
X128825001Y-57959001D03*
%TO.P,U_1,10*%
%TO.N,MISO*%
X128825001Y-60499001D03*
%TO.P,U_1,11*%
%TO.N,SDA*%
X128825001Y-63039001D03*
%TO.P,U_1,12*%
%TO.N,/RX0*%
X128825001Y-65579001D03*
%TO.P,U_1,13*%
%TO.N,/TX0*%
X128825001Y-68119001D03*
%TO.P,U_1,14*%
%TO.N,SCL*%
X128825001Y-70659001D03*
%TO.P,U_1,15*%
%TO.N,MOSI*%
X128825001Y-73199001D03*
%TD*%
D34*
%TO.P,C4,1*%
%TO.N,+5V*%
X179578000Y-49276000D03*
D17*
%TO.P,C4,2*%
%TO.N,GND*%
X179578000Y-51776000D03*
%TD*%
D34*
%TO.P,C1,1*%
%TO.N,+12V*%
X193548000Y-58364000D03*
D17*
%TO.P,C1,2*%
%TO.N,GND*%
X193548000Y-54864000D03*
%TD*%
D12*
%TO.P,D6,1*%
%TO.N,Net-(D6-Pad1)*%
X149352000Y-98552000D03*
D13*
%TO.P,D6,2*%
%TO.N,Net-(D6-Pad2)*%
X149352000Y-103632000D03*
%TD*%
D12*
%TO.P,D7,1*%
%TO.N,Net-(D7-Pad1)*%
X138938000Y-98298000D03*
D13*
%TO.P,D7,2*%
%TO.N,Net-(D7-Pad2)*%
X138938000Y-103378000D03*
%TD*%
%TO.P,D8,2*%
%TO.N,Net-(D8-Pad2)*%
X127508000Y-103378000D03*
D12*
%TO.P,D8,1*%
%TO.N,Net-(D8-Pad1)*%
X127508000Y-98298000D03*
%TD*%
%TO.P,D9,1*%
%TO.N,Net-(D9-Pad1)*%
X116078000Y-98298000D03*
D13*
%TO.P,D9,2*%
%TO.N,Net-(D9-Pad2)*%
X116078000Y-103378000D03*
%TD*%
%TO.P,D10,2*%
%TO.N,Net-(D10-Pad2)*%
X102870000Y-103378000D03*
D12*
%TO.P,D10,1*%
%TO.N,Net-(D10-Pad1)*%
X102870000Y-98298000D03*
%TD*%
D13*
%TO.P,D11,2*%
%TO.N,Net-(D11-Pad2)*%
X90932000Y-103632000D03*
D12*
%TO.P,D11,1*%
%TO.N,Net-(D11-Pad1)*%
X90932000Y-98552000D03*
%TD*%
%TO.P,D12,1*%
%TO.N,Net-(D12-Pad1)*%
X98298000Y-82042000D03*
D13*
%TO.P,D12,2*%
%TO.N,Net-(D12-Pad2)*%
X93218000Y-82042000D03*
%TD*%
D33*
%TO.P,R12,2*%
%TO.N,Net-(D6-Pad1)*%
X145288000Y-98552000D03*
D17*
%TO.P,R12,1*%
%TO.N,Net-(J10-Pad1)*%
X145288000Y-103632000D03*
%TD*%
%TO.P,R14,1*%
%TO.N,Net-(J11-Pad1)*%
X134366000Y-103378000D03*
D33*
%TO.P,R14,2*%
%TO.N,Net-(D7-Pad1)*%
X134366000Y-98298000D03*
%TD*%
D17*
%TO.P,R16,1*%
%TO.N,Net-(J12-Pad1)*%
X123190000Y-103378000D03*
D33*
%TO.P,R16,2*%
%TO.N,Net-(D8-Pad1)*%
X123190000Y-98298000D03*
%TD*%
D17*
%TO.P,R18,1*%
%TO.N,Net-(J13-Pad1)*%
X111513001Y-103314999D03*
D33*
%TO.P,R18,2*%
%TO.N,Net-(D9-Pad1)*%
X111513001Y-98234999D03*
%TD*%
%TO.P,R20,2*%
%TO.N,Net-(D10-Pad1)*%
X98865001Y-98532999D03*
D17*
%TO.P,R20,1*%
%TO.N,Net-(J14-Pad1)*%
X98865001Y-103612999D03*
%TD*%
D33*
%TO.P,R22,2*%
%TO.N,Net-(D11-Pad1)*%
X86614000Y-98552000D03*
D17*
%TO.P,R22,1*%
%TO.N,Net-(J15-Pad1)*%
X86614000Y-103632000D03*
%TD*%
%TO.P,R24,1*%
%TO.N,Net-(J16-Pad1)*%
X93218000Y-76962000D03*
D33*
%TO.P,R24,2*%
%TO.N,Net-(D12-Pad1)*%
X98298000Y-76962000D03*
%TD*%
D37*
%TO.N,CLK*%
X126492000Y-54610000D03*
%TD*%
D38*
%TO.N,GND*%
X203708000Y-42672000D02*
X210312000Y-42672000D01*
X193548000Y-54864000D02*
X195072000Y-54864000D01*
X203708000Y-46228000D02*
X203708000Y-42672000D01*
X195072000Y-54864000D02*
X203708000Y-46228000D01*
X193548000Y-51308000D02*
X194564000Y-50292000D01*
X193548000Y-54864000D02*
X193548000Y-51308000D01*
X183388000Y-38100000D02*
X183388000Y-36322000D01*
X183388000Y-36322000D02*
X184150000Y-35560000D01*
X184150000Y-35560000D02*
X189230000Y-35560000D01*
X195326000Y-41656000D02*
X196088000Y-41656000D01*
X189230000Y-35560000D02*
X195326000Y-41656000D01*
X194564000Y-43180000D02*
X196088000Y-41656000D01*
X194564000Y-50292000D02*
X194564000Y-43180000D01*
X170688000Y-41656000D02*
X181864000Y-41656000D01*
X183388000Y-40132000D02*
X183388000Y-38100000D01*
X181864000Y-41656000D02*
X183388000Y-40132000D01*
D39*
X169211001Y-40179001D02*
X170688000Y-41656000D01*
D40*
X165100000Y-99084000D02*
X165100000Y-104140000D01*
X168172000Y-96012000D02*
X165100000Y-99084000D01*
X169672000Y-96012000D02*
X168172000Y-96012000D01*
D41*
X99060000Y-40640000D02*
X99060000Y-42164000D01*
X99060000Y-42164000D02*
X100076000Y-43180000D01*
X100076000Y-43180000D02*
X100076000Y-52832000D01*
X114300000Y-46228000D02*
X114808000Y-45720000D01*
X110744000Y-46228000D02*
X114300000Y-46228000D01*
X107071999Y-42555999D02*
X110744000Y-46228000D01*
X100975999Y-42555999D02*
X107071999Y-42555999D01*
X114808000Y-45720000D02*
X114808000Y-43180000D01*
X99060000Y-40640000D02*
X100975999Y-42555999D01*
X122936000Y-43180000D02*
X122936000Y-45212000D01*
X122936000Y-45212000D02*
X121920000Y-46228000D01*
X121920000Y-46228000D02*
X117348000Y-46228000D01*
X114808000Y-43180000D02*
X115824000Y-43180000D01*
X115824000Y-43180000D02*
X116840000Y-44196000D01*
X116840000Y-45720000D02*
X117348000Y-46228000D01*
X116840000Y-44196000D02*
X116840000Y-45720000D01*
X109220000Y-87630000D02*
X107696000Y-89154000D01*
X109220000Y-82804000D02*
X109220000Y-87630000D01*
X105156000Y-89154000D02*
X103886000Y-87884000D01*
X107696000Y-89154000D02*
X105156000Y-89154000D01*
X103886000Y-87884000D02*
X103886000Y-88392000D01*
X102362000Y-89408000D02*
X103886000Y-87884000D01*
X96012000Y-89408000D02*
X102362000Y-89408000D01*
X94488000Y-87884000D02*
X96012000Y-89408000D01*
X91694000Y-87884000D02*
X94488000Y-87884000D01*
X107696000Y-89154000D02*
X107950000Y-89154000D01*
X107950000Y-89154000D02*
X108204000Y-89408000D01*
X115062000Y-89408000D02*
X116586000Y-87884000D01*
X108204000Y-89408000D02*
X115062000Y-89408000D01*
X116586000Y-87884000D02*
X118364000Y-89662000D01*
X126492000Y-89662000D02*
X128270000Y-87884000D01*
X118364000Y-89662000D02*
X126492000Y-89662000D01*
X128270000Y-87884000D02*
X130048000Y-89662000D01*
X139446000Y-87884000D02*
X137668000Y-89662000D01*
X130048000Y-89662000D02*
X137668000Y-89662000D01*
X148590000Y-89662000D02*
X150368000Y-87884000D01*
X141224000Y-89662000D02*
X148590000Y-89662000D01*
X139446000Y-87884000D02*
X141224000Y-89662000D01*
D38*
X210312000Y-42672000D02*
X212852000Y-45212000D01*
D41*
X98298000Y-54610000D02*
X100076000Y-52832000D01*
X152654000Y-87884000D02*
X150368000Y-87884000D01*
X159512000Y-81026000D02*
X152654000Y-87884000D01*
X164338000Y-81026000D02*
X159512000Y-81026000D01*
X170942000Y-58674000D02*
X170942000Y-74422000D01*
X170942000Y-74422000D02*
X164338000Y-81026000D01*
X177840000Y-51776000D02*
X170942000Y-58674000D01*
X179578000Y-51776000D02*
X177840000Y-51776000D01*
D38*
%TO.N,+12V*%
X203708000Y-57052000D02*
X204568000Y-57912000D01*
X203708000Y-52832000D02*
X203708000Y-57052000D01*
X193548000Y-58364000D02*
X196652000Y-58364000D01*
X196652000Y-58364000D02*
X199644000Y-55372000D01*
X199644000Y-55372000D02*
X199644000Y-53848000D01*
X200660000Y-52832000D02*
X203708000Y-52832000D01*
X199644000Y-53848000D02*
X200660000Y-52832000D01*
X193548000Y-58364000D02*
X191460000Y-58364000D01*
X189564000Y-56468000D02*
X189564000Y-50292000D01*
X191460000Y-58364000D02*
X189564000Y-56468000D01*
X189564000Y-40212000D02*
X189564000Y-50292000D01*
X187452000Y-38100000D02*
X189564000Y-40212000D01*
X185928000Y-38100000D02*
X187452000Y-38100000D01*
X193548000Y-58364000D02*
X193548000Y-59944000D01*
X193548000Y-59944000D02*
X192532000Y-60960000D01*
X192532000Y-60960000D02*
X187452000Y-60960000D01*
X185388000Y-63024000D02*
X185388000Y-64516000D01*
X187452000Y-60960000D02*
X185388000Y-63024000D01*
D41*
X175768000Y-60960000D02*
X175768000Y-64008000D01*
X176784000Y-65024000D02*
X178308000Y-65024000D01*
X175768000Y-64008000D02*
X176784000Y-65024000D01*
D40*
X178816000Y-64516000D02*
X178308000Y-65024000D01*
X185388000Y-64516000D02*
X178816000Y-64516000D01*
D42*
%TO.N,Net-(C5-Pad1)*%
X175260000Y-79756000D02*
X175260000Y-78740000D01*
X174832000Y-78312000D02*
X170180000Y-78312000D01*
X175260000Y-78740000D02*
X174832000Y-78312000D01*
D41*
%TO.N,Net-(D2-Pad2)*%
X177800000Y-75692000D02*
X178308000Y-75184000D01*
X173228000Y-75692000D02*
X177800000Y-75692000D01*
D40*
X179640000Y-76516000D02*
X178308000Y-75184000D01*
X185388000Y-76516000D02*
X179640000Y-76516000D01*
D42*
%TO.N,+3V3*%
X128825001Y-37639001D02*
X128825001Y-37290999D01*
X128825001Y-37290999D02*
X130556000Y-35560000D01*
D41*
X88392000Y-40640000D02*
X87122000Y-40640000D01*
X87122000Y-40640000D02*
X86106000Y-39624000D01*
X86106000Y-39624000D02*
X86106000Y-37084000D01*
X86106000Y-37084000D02*
X86905999Y-36284001D01*
X93688001Y-36284001D02*
X94488000Y-37084000D01*
X86905999Y-36284001D02*
X93688001Y-36284001D01*
X127234074Y-78486000D02*
X124968000Y-78486000D01*
X129432072Y-76288001D02*
X127234074Y-78486000D01*
X129705999Y-76288001D02*
X129432072Y-76288001D01*
X131572000Y-74422000D02*
X129705999Y-76288001D01*
X131572000Y-38862000D02*
X131572000Y-74422000D01*
X130349001Y-37639001D02*
X131572000Y-38862000D01*
X128825001Y-37639001D02*
X130349001Y-37639001D01*
X123698000Y-78486000D02*
X124968000Y-78486000D01*
X117856000Y-72644000D02*
X123698000Y-78486000D01*
X112268000Y-38100000D02*
X108966000Y-38100000D01*
X106680000Y-35814000D02*
X106680000Y-37338000D01*
X107442000Y-38100000D02*
X108966000Y-38100000D01*
X106680000Y-37338000D02*
X107442000Y-38100000D01*
D42*
X130556000Y-35560000D02*
X162052000Y-35560000D01*
X162052000Y-35560000D02*
X166116000Y-39624000D01*
X166116000Y-39624000D02*
X166116000Y-49530000D01*
X169672000Y-53086000D02*
X169672000Y-55880000D01*
X166116000Y-49530000D02*
X169672000Y-53086000D01*
%TO.N,/D33*%
X160274000Y-55880000D02*
X166370000Y-55880000D01*
X168148000Y-57658000D02*
X168148000Y-59436000D01*
X166370000Y-55880000D02*
X168148000Y-57658000D01*
D40*
%TO.N,Net-(D4-Pad2)*%
X185420000Y-93788000D02*
X179132000Y-93788000D01*
D41*
%TO.N,Net-(D6-Pad2)*%
X147828000Y-95504000D02*
X147828000Y-94742000D01*
X147828000Y-94742000D02*
X148590000Y-93980000D01*
X148590000Y-93980000D02*
X151638000Y-93980000D01*
X151638000Y-93980000D02*
X152146000Y-94488000D01*
X152146000Y-100838000D02*
X149352000Y-103632000D01*
X152146000Y-94488000D02*
X152146000Y-100838000D01*
X149352000Y-103632000D02*
X149352000Y-105918000D01*
X151304000Y-107870000D02*
X151304000Y-112522000D01*
X149352000Y-105918000D02*
X151304000Y-107870000D01*
%TO.N,Net-(D6-Pad1)*%
X145288000Y-95504000D02*
X145288000Y-96012000D01*
X147828000Y-98552000D02*
X149352000Y-98552000D01*
X145288000Y-96012000D02*
X147828000Y-98552000D01*
%TO.N,Net-(D7-Pad2)*%
X138938000Y-103378000D02*
X138938000Y-106680000D01*
X140128000Y-107870000D02*
X140128000Y-112522000D01*
X138938000Y-106680000D02*
X140128000Y-107870000D01*
X136906000Y-95504000D02*
X136906000Y-94742000D01*
X136906000Y-94742000D02*
X137668000Y-93980000D01*
X137668000Y-93980000D02*
X140716000Y-93980000D01*
X140716000Y-93980000D02*
X141224000Y-94488000D01*
X141224000Y-101092000D02*
X138938000Y-103378000D01*
X141224000Y-94488000D02*
X141224000Y-101092000D01*
%TO.N,Net-(D7-Pad1)*%
X137160000Y-98298000D02*
X138938000Y-98298000D01*
X134366000Y-95504000D02*
X137160000Y-98298000D01*
%TO.N,Net-(D8-Pad1)*%
X123190000Y-95504000D02*
X123190000Y-95758000D01*
X125730000Y-98298000D02*
X127508000Y-98298000D01*
X123190000Y-95758000D02*
X125730000Y-98298000D01*
%TO.N,Net-(D8-Pad2)*%
X125730000Y-95504000D02*
X125730000Y-94742000D01*
X125730000Y-94742000D02*
X126492000Y-93980000D01*
X126492000Y-93980000D02*
X129286000Y-93980000D01*
X129286000Y-93980000D02*
X130302000Y-94996000D01*
X130302000Y-100584000D02*
X127508000Y-103378000D01*
X130302000Y-94996000D02*
X130302000Y-100584000D01*
X127508000Y-103378000D02*
X127508000Y-106426000D01*
X128778000Y-107696000D02*
X128778000Y-112522000D01*
X127508000Y-106426000D02*
X128778000Y-107696000D01*
%TO.N,Net-(D9-Pad2)*%
X114046000Y-95504000D02*
X114046000Y-94996000D01*
X114046000Y-94996000D02*
X115316000Y-93726000D01*
X115316000Y-93726000D02*
X117602000Y-93726000D01*
X117602000Y-93726000D02*
X118618000Y-94742000D01*
X118618000Y-100838000D02*
X116078000Y-103378000D01*
X118618000Y-94742000D02*
X118618000Y-100838000D01*
X116078000Y-103378000D02*
X116078000Y-106934000D01*
X117522000Y-108378000D02*
X117522000Y-112522000D01*
X116078000Y-106934000D02*
X117522000Y-108378000D01*
%TO.N,Net-(D9-Pad1)*%
X114300000Y-98298000D02*
X116078000Y-98298000D01*
X111506000Y-95504000D02*
X114300000Y-98298000D01*
%TO.N,Net-(D10-Pad1)*%
X101600000Y-98298000D02*
X102870000Y-98298000D01*
X98806000Y-95504000D02*
X101600000Y-98298000D01*
%TO.N,Net-(D10-Pad2)*%
X102870000Y-103378000D02*
X102870000Y-106172000D01*
X104568000Y-107870000D02*
X104568000Y-112522000D01*
X102870000Y-106172000D02*
X104568000Y-107870000D01*
X101346000Y-95504000D02*
X101346000Y-94488000D01*
X101346000Y-94488000D02*
X101854000Y-93980000D01*
X101854000Y-93980000D02*
X104902000Y-93980000D01*
X104902000Y-93980000D02*
X105664000Y-94742000D01*
X105664000Y-100584000D02*
X102870000Y-103378000D01*
X105664000Y-94742000D02*
X105664000Y-100584000D01*
%TO.N,Net-(D11-Pad2)*%
X89154000Y-95504000D02*
X89154000Y-94488000D01*
X89154000Y-94488000D02*
X89916000Y-93726000D01*
X89916000Y-93726000D02*
X92964000Y-93726000D01*
X92964000Y-93726000D02*
X93726000Y-94488000D01*
X93726000Y-100838000D02*
X90932000Y-103632000D01*
X93726000Y-94488000D02*
X93726000Y-100838000D01*
X92202000Y-112776000D02*
X92202000Y-108458000D01*
X90932000Y-107188000D02*
X90932000Y-103632000D01*
X92202000Y-108458000D02*
X90932000Y-107188000D01*
%TO.N,Net-(D11-Pad1)*%
X89662000Y-98552000D02*
X90932000Y-98552000D01*
X86614000Y-95504000D02*
X89662000Y-98552000D01*
%TO.N,Net-(D12-Pad1)*%
X101600000Y-77724000D02*
X101092000Y-77724000D01*
X98298000Y-81026000D02*
X98298000Y-82042000D01*
X98298000Y-82042000D02*
X98298000Y-80010000D01*
X100584000Y-77724000D02*
X101600000Y-77724000D01*
X98298000Y-80010000D02*
X100584000Y-77724000D01*
X97790000Y-82042000D02*
X98298000Y-82042000D01*
X96266000Y-77978000D02*
X96266000Y-80518000D01*
X97282000Y-76962000D02*
X96266000Y-77978000D01*
X98298000Y-76962000D02*
X97282000Y-76962000D01*
X96266000Y-80518000D02*
X97790000Y-82042000D01*
%TO.N,Net-(D12-Pad2)*%
X92964000Y-81788000D02*
X93218000Y-82042000D01*
X84582000Y-81788000D02*
X92964000Y-81788000D01*
D38*
%TO.N,Net-(F1-Pad2)*%
X213868000Y-52324000D02*
X212852000Y-51308000D01*
X213868000Y-57912000D02*
X213868000Y-52324000D01*
X212852000Y-51308000D02*
X212852000Y-50212000D01*
%TO.N,Net-(J2-Pad2)*%
X183404000Y-70532000D02*
X183388000Y-70516000D01*
X212852000Y-70532000D02*
X183404000Y-70532000D01*
%TO.N,Net-(J3-Pad2)*%
X212520000Y-87788000D02*
X212852000Y-87456000D01*
X183420000Y-87788000D02*
X212520000Y-87788000D01*
%TO.N,Net-(J4-Pad2)*%
X183976000Y-105076000D02*
X183388000Y-105664000D01*
X212852000Y-105076000D02*
X183976000Y-105076000D01*
D41*
%TO.N,Net-(J10-Pad1)*%
X146304000Y-112522000D02*
X146304000Y-106934000D01*
X145288000Y-105918000D02*
X145288000Y-103632000D01*
X146304000Y-106934000D02*
X145288000Y-105918000D01*
%TO.N,Net-(J11-Pad1)*%
X134366000Y-103378000D02*
X134366000Y-105410000D01*
X135128000Y-106172000D02*
X135128000Y-112522000D01*
X134366000Y-105410000D02*
X135128000Y-106172000D01*
%TO.N,Net-(J12-Pad1)*%
X123190000Y-103378000D02*
X123190000Y-106426000D01*
X123778000Y-107014000D02*
X123778000Y-112522000D01*
X123190000Y-106426000D02*
X123778000Y-107014000D01*
%TO.N,Net-(J13-Pad1)*%
X111513001Y-103314999D02*
X111513001Y-107195001D01*
X112522000Y-108204000D02*
X112522000Y-112522000D01*
X111513001Y-107195001D02*
X112522000Y-108204000D01*
%TO.N,Net-(J14-Pad1)*%
X98865001Y-103612999D02*
X98865001Y-106993001D01*
X99568000Y-107696000D02*
X99568000Y-112522000D01*
X98865001Y-106993001D02*
X99568000Y-107696000D01*
%TO.N,Net-(J15-Pad1)*%
X87202000Y-112776000D02*
X87202000Y-107522000D01*
X86614000Y-106934000D02*
X86614000Y-103632000D01*
X87202000Y-107522000D02*
X86614000Y-106934000D01*
%TO.N,Net-(J16-Pad1)*%
X84756000Y-76962000D02*
X84582000Y-76788000D01*
X93218000Y-76962000D02*
X84756000Y-76962000D01*
D42*
%TO.N,SCL*%
X99060000Y-38100000D02*
X96774000Y-38100000D01*
X94488000Y-40386000D02*
X94488000Y-47244000D01*
X96774000Y-38100000D02*
X94488000Y-40386000D01*
%TO.N,CLK*%
X116103400Y-39344600D02*
X114808000Y-40640000D01*
X122301000Y-39344600D02*
X116103400Y-39344600D01*
X122936000Y-39979600D02*
X122301000Y-39344600D01*
X127301001Y-57959001D02*
X128825001Y-57959001D01*
X126492000Y-57150000D02*
X127301001Y-57959001D01*
X126492000Y-54610000D02*
X126492000Y-57150000D01*
%TO.N,MOSI*%
X116840000Y-35052000D02*
X114808000Y-37084000D01*
X114808000Y-37084000D02*
X114808000Y-38100000D01*
X121920000Y-35052000D02*
X116840000Y-35052000D01*
X122936000Y-36068000D02*
X121920000Y-35052000D01*
X122936000Y-38100000D02*
X122936000Y-36068000D01*
X114808000Y-59182000D02*
X128825001Y-73199001D01*
X116078000Y-49022000D02*
X114808000Y-50292000D01*
X123511010Y-45450176D02*
X119939186Y-49022000D01*
X123511010Y-45398990D02*
X123511010Y-45450176D01*
X114808000Y-50292000D02*
X114808000Y-59182000D01*
X119939186Y-49022000D02*
X116078000Y-49022000D01*
X124460000Y-44450000D02*
X123511010Y-45398990D01*
X124460000Y-38608000D02*
X124460000Y-44450000D01*
X123952000Y-38100000D02*
X124460000Y-38608000D01*
X122936000Y-38100000D02*
X123952000Y-38100000D01*
D41*
%TO.N,/D14*%
X133288010Y-74614010D02*
X133350000Y-74676000D01*
X133288010Y-48514000D02*
X133288010Y-74614010D01*
X134003009Y-47799001D02*
X133288010Y-48514000D01*
X153320000Y-47799001D02*
X134003009Y-47799001D01*
X114808000Y-84582000D02*
X119634000Y-84582000D01*
X119634000Y-84582000D02*
X121158000Y-83058000D01*
X121158000Y-83058000D02*
X125476000Y-83058000D01*
X125476000Y-83058000D02*
X126492000Y-82042000D01*
X130337981Y-77688019D02*
X133350000Y-74676000D01*
X130011979Y-77688019D02*
X130337981Y-77688019D01*
X126492000Y-81207998D02*
X130011979Y-77688019D01*
X126492000Y-82042000D02*
X126492000Y-81207998D01*
%TO.N,BUZZER*%
X128825001Y-52879001D02*
X130095001Y-52879001D01*
X130125002Y-52909002D02*
X130379002Y-52909002D01*
X130095001Y-52879001D02*
X130125002Y-52909002D01*
X130379002Y-52909002D02*
X130810000Y-53340000D01*
X130810000Y-53340000D02*
X130810000Y-74194038D01*
X130810000Y-74194038D02*
X129553019Y-75451019D01*
X129553019Y-75451019D02*
X129540000Y-75438000D01*
X129540000Y-75438000D02*
X125984000Y-75438000D01*
X125984000Y-75438000D02*
X120904000Y-70358000D01*
X105410000Y-70358000D02*
X103632000Y-72136000D01*
X120904000Y-70358000D02*
X105410000Y-70358000D01*
%TO.N,Net-(LD1-Pad1)*%
X173228000Y-60960000D02*
X173228000Y-65532000D01*
D42*
%TO.N,/D2*%
X124460000Y-49624002D02*
X124460000Y-51562000D01*
X128825001Y-45259001D02*
X124460000Y-49624002D01*
%TO.N,/D15*%
X118872000Y-50800000D02*
X118872000Y-51562000D01*
X122296998Y-47375002D02*
X118872000Y-50800000D01*
X124169000Y-47375002D02*
X122296998Y-47375002D01*
X128825001Y-42719001D02*
X124169000Y-47375002D01*
%TO.N,/D12*%
X157480000Y-49419001D02*
X153320000Y-45259001D01*
X157480000Y-76200000D02*
X157480000Y-49419001D01*
D41*
%TO.N,/D27*%
X147828000Y-85090000D02*
X147828000Y-87884000D01*
X142240000Y-81534000D02*
X142240000Y-82296000D01*
X142240000Y-82296000D02*
X143002000Y-83058000D01*
X145796000Y-83058000D02*
X147828000Y-85090000D01*
X143002000Y-83058000D02*
X145796000Y-83058000D01*
X156904990Y-51748990D02*
X155495001Y-50339001D01*
X156904990Y-73727010D02*
X156904990Y-51748990D01*
X149098000Y-81534000D02*
X156904990Y-73727010D01*
X155495001Y-50339001D02*
X153320000Y-50339001D01*
X142240000Y-81534000D02*
X149098000Y-81534000D01*
%TO.N,/D26*%
X136906000Y-87884000D02*
X138430000Y-86360000D01*
X140462000Y-86360000D02*
X142240000Y-84582000D01*
X138430000Y-86360000D02*
X140462000Y-86360000D01*
%TO.N,/D35*%
X125730000Y-87884000D02*
X125730000Y-86868000D01*
X125730000Y-86868000D02*
X126492000Y-86106000D01*
X133604000Y-86106000D02*
X138176000Y-81534000D01*
X126492000Y-86106000D02*
X133604000Y-86106000D01*
X153320000Y-63039001D02*
X143970999Y-63039001D01*
X138176000Y-68834000D02*
X138176000Y-81534000D01*
X143970999Y-63039001D02*
X138176000Y-68834000D01*
%TO.N,/D34*%
X140208000Y-82550000D02*
X138176000Y-84582000D01*
X140208000Y-68326000D02*
X140208000Y-82550000D01*
X142954999Y-65579001D02*
X140208000Y-68326000D01*
X153320000Y-65579001D02*
X142954999Y-65579001D01*
%TO.N,/D13*%
X132588000Y-74422000D02*
X130021989Y-76988011D01*
X132588000Y-47752000D02*
X132588000Y-74422000D01*
X137620999Y-42719001D02*
X132588000Y-47752000D01*
X153320000Y-42719001D02*
X137620999Y-42719001D01*
X130021989Y-76988011D02*
X129722025Y-76988011D01*
X129722025Y-76988011D02*
X126700036Y-80010000D01*
X116332000Y-80010000D02*
X114808000Y-81534000D01*
X126700036Y-80010000D02*
X116332000Y-80010000D01*
%TD*%
M02*
