M48
; DRILL file {KiCad (5.1.9)-1} date 05/14/22 18:30:06
; FORMAT={-:-/ absolute / inch / decimal}
; #@! TF.CreationDate,2022-05-14T18:30:06+02:00
; #@! TF.GenerationSoftware,Kicad,Pcbnew,(5.1.9)-1
; #@! TF.FileFunction,Plated,1,2,PTH
FMAT,2
INCH
T1C0.0157
T2C0.0315
T3C0.0354
T4C0.0394
T5C0.0402
T6C0.0423
T7C0.0433
T8C0.0598
T9C0.0630
%
G90
G05
T1
X3.0425Y-3.5075
X3.0775Y-2.8575
X3.125Y-2.8125
X3.13Y-2.13
X3.14Y-1.67
X3.15Y-2.97
X3.16Y-1.97
X3.16Y-3.21
X3.17Y-3.89
X3.17Y-4.1
X3.3Y-3.77
X3.32Y-3.26
X3.34Y-3.98
X3.36Y-1.815
X3.4125Y-2.295
X3.47Y-3.61
X3.48Y-2.1325
X3.49Y-3.015
X3.51Y-3.3
X3.51Y-4.06
X3.5638Y-2.4438
X3.57Y-3.14
X3.6Y-1.68
X3.6026Y-2.4301
X3.61Y-2.8
X3.6275Y-3.24
X3.63Y-1.45
X3.66Y-1.97
X3.66Y-3.62
X3.6764Y-2.3812
X3.69Y-3.985
X3.74Y-2.41
X3.75Y-1.51
X3.76Y-2.95
X3.765Y-2.7975
X3.8025Y-3.7875
X3.815Y-2.63
X3.815Y-3.295
X3.8175Y-3.5025
X3.82Y-1.78
X3.8375Y-3.145
X3.89Y-3.87
X3.91Y-3.06
X3.97Y-3.51
X3.9725Y-3.2975
X4.01Y-2.39
X4.025Y-3.055
X4.11Y-1.54
X4.11Y-1.91
X4.14Y-3.52
X4.16Y-3.23
X4.18Y-2.56
X4.185Y-1.4475
X4.24Y-3.29
X4.26Y-1.84
X4.305Y-2.205
X4.315Y-1.56
X4.38Y-2.48
X4.39Y-3.39
X4.415Y-2.725
X4.4175Y-2.935
X4.47Y-3.085
X4.485Y-1.995
X4.5575Y-3.31
X4.56Y-1.43
X4.56Y-1.8
X4.5875Y-1.9
X4.59Y-2.68
X4.5975Y-3.0475
X4.62Y-3.135
X4.6275Y-1.515
X4.64Y-1.8
X4.65Y-2.26
X4.67Y-3.47
X4.78Y-3.31
X4.84Y-2.69
X4.88Y-1.76
X4.9Y-1.43
X4.91Y-3.67
X4.9225Y-3.13
X4.9275Y-1.9275
X4.97Y-3.75
X5.2125Y-4.1125
X5.29Y-4.1125
X5.34Y-3.37
X5.3425Y-3.6275
X5.43Y-3.74
X5.6125Y-3.645
X5.64Y-3.38
X6.0425Y-3.715
X6.175Y-3.5575
T2
X3.0675Y-2.45
X3.0675Y-2.55
X3.0875Y-3.07
X3.0875Y-3.17
X3.0925Y-3.345
X3.0925Y-3.445
X3.1108Y-2.6992
X3.1815Y-2.6285
X3.215Y-3.41
X3.2522Y-2.5578
X3.315Y-2.2725
X3.3218Y-3.1718
X3.3229Y-2.4871
X3.3229Y-2.9114
X3.3857Y-2.2018
X3.3925Y-3.2425
X3.3936Y-2.4164
X3.3936Y-2.8407
X3.4119Y-3.41
X3.4643Y-2.3457
X3.4643Y-2.7699
X3.515Y-3.41
X3.535Y-2.275
X3.535Y-2.6992
X3.6057Y-2.2043
X3.6057Y-2.6285
X3.6175Y-1.85
X3.6764Y-2.1336
X3.6764Y-2.5578
X3.685Y-3.19
X3.685Y-3.29
X3.7119Y-3.41
X3.7175Y-1.85
X3.7472Y-2.0628
X3.7472Y-2.4871
X3.795Y-3.2225
X3.8179Y-1.9921
X3.8179Y-2.4164
X3.825Y-3.41
X3.8886Y-1.9214
X3.8886Y-2.3457
X3.895Y-3.2225
X3.925Y-3.41
X3.9306Y-2.6875
X3.9593Y-1.8507
X3.9593Y-2.275
X4.0Y-2.4725
X4.03Y-1.78
X4.03Y-2.2043
X4.045Y-3.3625
X4.045Y-3.4625
X4.1007Y-2.1336
X4.1075Y-3.985
X4.125Y-4.11
X4.1275Y-2.6875
X4.1359Y-2.3366
X4.1714Y-2.0628
X4.1741Y-1.67
X4.1856Y-3.685
X4.2075Y-3.985
X4.2235Y-4.1274
X4.2421Y-1.9921
X4.2725Y-1.67
X4.2775Y-2.4475
X4.325Y-2.6454
X4.325Y-2.8375
X4.3825Y-3.685
X4.395Y-1.8731
X4.395Y-2.07
X4.4167Y-2.3083
X4.51Y-2.4475
X4.51Y-2.6444
X4.51Y-2.7275
X4.51Y-2.9244
X4.5975Y-3.2175
X4.69Y-3.07
X4.7425Y-1.8625
X4.7625Y-3.395
X4.7625Y-3.495
X4.7625Y-3.595
X4.7625Y-3.695
X4.79Y-3.07
X4.7944Y-3.2175
X4.8425Y-1.8625
X4.8806Y-3.265
X5.0625Y-3.395
X5.0625Y-3.495
X5.0625Y-3.595
X5.0625Y-3.695
X5.0775Y-3.265
X5.24Y-3.4356
X5.24Y-3.6325
X5.255Y-3.8031
X5.255Y-4.0
X5.4325Y-3.535
X5.5309Y-3.535
X5.7681Y-3.585
X5.88Y-3.2222
X5.88Y-3.36
X5.965Y-3.585
X6.28Y-4.09
X6.38Y-4.09
T3
X3.3415Y-3.8351
X3.3915Y-3.7351
X3.4415Y-3.8351
X3.4915Y-3.7351
X3.5415Y-3.8351
X3.5915Y-3.7351
X3.6415Y-3.8351
X3.6915Y-3.7351
X4.1175Y-3.8325
X4.2175Y-3.8325
X6.335Y-3.855
X6.335Y-3.955
T4
X3.075Y-3.605
X3.075Y-3.705
X3.075Y-3.805
X3.075Y-3.905
X3.075Y-4.005
X3.075Y-4.105
X3.48Y-1.5
X3.48Y-1.6
X3.48Y-1.7
X3.48Y-1.8
X3.48Y-1.9
X3.48Y-2.0
X3.9Y-1.5
X3.9Y-1.6
X3.965Y-3.6025
X3.965Y-3.7025
X3.965Y-3.8025
X3.965Y-3.9025
X3.965Y-4.0025
X3.965Y-4.1025
X3.98Y-2.84
X4.0Y-1.5
X4.0Y-1.6
X4.08Y-2.84
X4.24Y-3.41
X4.24Y-3.51
X4.42Y-1.5
X4.42Y-1.6
X4.42Y-1.7
X4.52Y-1.5
X4.52Y-1.6
X4.52Y-1.7
X4.58Y-2.03
X4.64Y-2.86
X4.68Y-2.03
X4.74Y-1.5
X4.74Y-1.6
X4.74Y-1.7
X4.74Y-2.86
X4.8Y-2.03
X4.84Y-1.5
X4.84Y-1.6
X4.84Y-1.7
X4.9Y-2.03
T5
X3.3013Y-3.5449
X3.4013Y-3.5449
X3.6316Y-3.5449
X3.7316Y-3.5449
T6
X4.485Y-3.3775
X4.485Y-3.4775
X4.485Y-3.5775
X4.485Y-3.6775
T7
X5.41Y-3.85
X5.41Y-3.95
X5.41Y-4.05
X6.315Y-3.53
X6.315Y-3.73
T8
X4.38Y-3.95
X4.58Y-3.95
X4.78Y-3.95
X4.98Y-3.95
X6.265Y-3.14
X6.265Y-3.34
T9
X3.2055Y-3.965
X3.8275Y-3.965
T0
M30
