%TF.GenerationSoftware,KiCad,Pcbnew,(5.1.9)-1*%
%TF.CreationDate,2022-05-14T18:30:03+02:00*%
%TF.ProjectId,Espanzione_01,45737061-6e7a-4696-9f6e-655f30312e6b,rev?*%
%TF.SameCoordinates,Original*%
%TF.FileFunction,Soldermask,Top*%
%TF.FilePolarity,Negative*%
%FSLAX46Y46*%
G04 Gerber Fmt 4.6, Leading zero omitted, Abs format (unit mm)*
G04 Created by KiCad (PCBNEW (5.1.9)-1) date 2022-05-14 18:30:03*
%MOMM*%
%LPD*%
G01*
G04 APERTURE LIST*
%ADD10R,1.700000X1.700000*%
%ADD11O,1.700000X1.700000*%
%ADD12C,1.600000*%
%ADD13O,1.600000X1.600000*%
%ADD14R,1.600000X1.600000*%
%ADD15R,3.000000X3.000000*%
%ADD16C,3.000000*%
%ADD17C,1.720000*%
%ADD18C,2.200000*%
%ADD19C,3.250000*%
%ADD20C,1.800000*%
%ADD21R,1.800000X1.800000*%
%ADD22C,0.100000*%
%ADD23O,2.250000X1.750000*%
%ADD24R,2.250000X1.750000*%
%ADD25C,1.500000*%
%ADD26R,1.000000X1.500000*%
%ADD27R,2.200000X2.200000*%
%ADD28O,2.200000X2.200000*%
%ADD29O,3.500000X3.500000*%
%ADD30R,2.000000X1.905000*%
%ADD31O,2.000000X1.905000*%
G04 APERTURE END LIST*
D10*
%TO.C,U6_RIGHT1*%
X100711000Y-104203500D03*
D11*
X100711000Y-101663500D03*
X100711000Y-99123500D03*
X100711000Y-96583500D03*
X100711000Y-94043500D03*
X100711000Y-91503500D03*
%TD*%
D12*
%TO.C,L1*%
X98933000Y-81851500D03*
D13*
X96393000Y-81851500D03*
%TD*%
D14*
%TO.C,C1*%
X149352000Y-81844000D03*
D12*
X149352000Y-85344000D03*
%TD*%
%TO.C,C3*%
X133477000Y-101600000D03*
X133477000Y-96600000D03*
%TD*%
%TO.C,C4*%
X111633000Y-52578000D03*
X111633000Y-47578000D03*
%TD*%
%TO.C,C5*%
X86661000Y-86614000D03*
X81661000Y-86614000D03*
%TD*%
%TO.C,C6*%
X89281000Y-86614000D03*
X94281000Y-86614000D03*
%TD*%
%TO.C,C7*%
X116776500Y-81724500D03*
X121776500Y-81724500D03*
%TD*%
%TO.C,C8*%
X123968500Y-82931000D03*
X128968500Y-82931000D03*
%TD*%
%TO.C,C9*%
X133096000Y-87265500D03*
X133096000Y-92265500D03*
%TD*%
%TO.C,C10*%
X111315500Y-93599000D03*
X106315500Y-93599000D03*
%TD*%
D14*
%TO.C,C11*%
X137985500Y-89789000D03*
D12*
X140485500Y-89789000D03*
%TD*%
%TO.C,C12*%
X106021500Y-42418000D03*
D14*
X108521500Y-42418000D03*
%TD*%
D12*
%TO.C,C13*%
X99838500Y-68262500D03*
X104838500Y-68262500D03*
%TD*%
%TO.C,C14*%
X108648500Y-62166500D03*
X112184034Y-58630966D03*
%TD*%
%TO.C,C15*%
X114554000Y-69278500D03*
X114554000Y-74278500D03*
%TD*%
%TO.C,C16*%
X114554000Y-67166500D03*
X114554000Y-62166500D03*
%TD*%
D15*
%TO.C,CN1*%
X159131000Y-79756000D03*
D16*
X159131000Y-84836000D03*
%TD*%
D17*
%TO.C,CN2*%
X83853500Y-90041000D03*
X94783500Y-90041000D03*
X86393500Y-90041000D03*
X92243500Y-90041000D03*
D18*
X81418500Y-100711000D03*
X97218500Y-100711000D03*
D19*
X83603500Y-103761000D03*
X95033500Y-103761000D03*
D12*
X84873500Y-97411000D03*
X86143500Y-94871000D03*
X87413500Y-97411000D03*
X88683500Y-94871000D03*
X89953500Y-97411000D03*
X91223500Y-94871000D03*
X92493500Y-97411000D03*
G36*
G01*
X92963500Y-95423000D02*
X92963500Y-94319000D01*
G75*
G02*
X93211500Y-94071000I248000J0D01*
G01*
X94315500Y-94071000D01*
G75*
G02*
X94563500Y-94319000I0J-248000D01*
G01*
X94563500Y-95423000D01*
G75*
G02*
X94315500Y-95671000I-248000J0D01*
G01*
X93211500Y-95671000D01*
G75*
G02*
X92963500Y-95423000I0J248000D01*
G01*
G37*
%TD*%
D16*
%TO.C,CN3*%
X121412000Y-100330000D03*
X116332000Y-100330000D03*
D15*
X126492000Y-100330000D03*
D16*
X111252000Y-100330000D03*
%TD*%
D11*
%TO.C,CN4*%
X99060000Y-40640000D03*
X99060000Y-38100000D03*
X101600000Y-40640000D03*
D10*
X101600000Y-38100000D03*
%TD*%
%TO.C,CN5*%
X88392000Y-50800000D03*
D11*
X88392000Y-48260000D03*
X88392000Y-45720000D03*
X88392000Y-43180000D03*
X88392000Y-40640000D03*
X88392000Y-38100000D03*
%TD*%
D10*
%TO.C,CN11*%
X112268000Y-38100000D03*
D11*
X114808000Y-38100000D03*
X112268000Y-40640000D03*
X114808000Y-40640000D03*
X112268000Y-43180000D03*
X114808000Y-43180000D03*
%TD*%
%TO.C,CN12*%
X122936000Y-43180000D03*
X120396000Y-43180000D03*
X122936000Y-40640000D03*
X120396000Y-40640000D03*
X122936000Y-38100000D03*
D10*
X120396000Y-38100000D03*
%TD*%
D20*
%TO.C,LD1*%
X160909000Y-97917000D03*
D21*
X160909000Y-100457000D03*
%TD*%
%TO.C,LD2*%
X104584500Y-97345500D03*
D20*
X107124500Y-97345500D03*
%TD*%
D12*
%TO.C,R1*%
X162052000Y-103886000D03*
D13*
X159512000Y-103886000D03*
%TD*%
D12*
%TO.C,R2*%
X84201000Y-57721500D03*
G36*
G01*
X85431366Y-56491134D02*
X85431366Y-56491134D01*
G75*
G02*
X85431366Y-55359764I565685J565685D01*
G01*
X85431366Y-55359764D01*
G75*
G02*
X86562736Y-55359764I565685J-565685D01*
G01*
X86562736Y-55359764D01*
G75*
G02*
X86562736Y-56491134I-565685J-565685D01*
G01*
X86562736Y-56491134D01*
G75*
G02*
X85431366Y-56491134I-565685J565685D01*
G01*
G37*
%TD*%
%TO.C,R3*%
X94424500Y-46990000D03*
D13*
X91884500Y-46990000D03*
%TD*%
%TO.C,R4*%
X120459500Y-47307500D03*
D12*
X122999500Y-47307500D03*
%TD*%
D13*
%TO.C,R5*%
X121666000Y-77978000D03*
D12*
X119126000Y-77978000D03*
%TD*%
%TO.C,R6*%
X106870500Y-101219000D03*
D13*
X104330500Y-101219000D03*
%TD*%
%TO.C,R7*%
G36*
G01*
X106488566Y-104696147D02*
X106488566Y-104696147D01*
G75*
G02*
X107415331Y-104047220I787846J-138919D01*
G01*
X107415331Y-104047220D01*
G75*
G02*
X108064258Y-104973985I-138919J-787846D01*
G01*
X108064258Y-104973985D01*
G75*
G02*
X107137493Y-105622912I-787846J138919D01*
G01*
X107137493Y-105622912D01*
G75*
G02*
X106488566Y-104696147I138919J787846D01*
G01*
G37*
D12*
X104775000Y-104394000D03*
%TD*%
%TO.C,R8*%
X93599000Y-81026000D03*
D13*
X93599000Y-83566000D03*
%TD*%
%TO.C,R9*%
G36*
G01*
X84939134Y-81129134D02*
X84939134Y-81129134D01*
G75*
G02*
X83807764Y-81129134I-565685J565685D01*
G01*
X83807764Y-81129134D01*
G75*
G02*
X83807764Y-79997764I565685J565685D01*
G01*
X83807764Y-79997764D01*
G75*
G02*
X84939134Y-79997764I565685J-565685D01*
G01*
X84939134Y-79997764D01*
G75*
G02*
X84939134Y-81129134I-565685J-565685D01*
G01*
G37*
D12*
X86169500Y-82359500D03*
%TD*%
D13*
%TO.C,R10*%
X77914500Y-62230000D03*
D12*
X77914500Y-64770000D03*
%TD*%
%TO.C,R11*%
X78422500Y-77978000D03*
D13*
X78422500Y-80518000D03*
%TD*%
%TO.C,R12*%
X78549500Y-87503000D03*
D12*
X78549500Y-84963000D03*
%TD*%
%TO.C,R13*%
X97155000Y-86614000D03*
D13*
X99695000Y-86614000D03*
%TD*%
%TO.C,R14*%
X102743000Y-85407500D03*
D12*
X102743000Y-87947500D03*
%TD*%
D22*
%TO.C,U2*%
G36*
X101230629Y-45212000D02*
G01*
X102362000Y-44080629D01*
X103493371Y-45212000D01*
X102362000Y-46343371D01*
X101230629Y-45212000D01*
G37*
G36*
G01*
X83835803Y-73383135D02*
X83835803Y-73383135D01*
G75*
G02*
X84967173Y-73383135I565685J-565685D01*
G01*
X84967173Y-73383135D01*
G75*
G02*
X84967173Y-74514505I-565685J-565685D01*
G01*
X84967173Y-74514505D01*
G75*
G02*
X83835803Y-74514505I-565685J565685D01*
G01*
X83835803Y-74514505D01*
G75*
G02*
X83835803Y-73383135I565685J565685D01*
G01*
G37*
G36*
G01*
X100000264Y-46442366D02*
X100000264Y-46442366D01*
G75*
G02*
X101131634Y-46442366I565685J-565685D01*
G01*
X101131634Y-46442366D01*
G75*
G02*
X101131634Y-47573736I-565685J-565685D01*
G01*
X101131634Y-47573736D01*
G75*
G02*
X100000264Y-47573736I-565685J565685D01*
G01*
X100000264Y-47573736D01*
G75*
G02*
X100000264Y-46442366I565685J565685D01*
G01*
G37*
G36*
G01*
X85631854Y-71587083D02*
X85631854Y-71587083D01*
G75*
G02*
X86763224Y-71587083I565685J-565685D01*
G01*
X86763224Y-71587083D01*
G75*
G02*
X86763224Y-72718453I-565685J-565685D01*
G01*
X86763224Y-72718453D01*
G75*
G02*
X85631854Y-72718453I-565685J565685D01*
G01*
X85631854Y-72718453D01*
G75*
G02*
X85631854Y-71587083I565685J565685D01*
G01*
G37*
G36*
G01*
X98204213Y-48238417D02*
X98204213Y-48238417D01*
G75*
G02*
X99335583Y-48238417I565685J-565685D01*
G01*
X99335583Y-48238417D01*
G75*
G02*
X99335583Y-49369787I-565685J-565685D01*
G01*
X99335583Y-49369787D01*
G75*
G02*
X98204213Y-49369787I-565685J565685D01*
G01*
X98204213Y-49369787D01*
G75*
G02*
X98204213Y-48238417I565685J565685D01*
G01*
G37*
G36*
G01*
X87427905Y-69791032D02*
X87427905Y-69791032D01*
G75*
G02*
X88559275Y-69791032I565685J-565685D01*
G01*
X88559275Y-69791032D01*
G75*
G02*
X88559275Y-70922402I-565685J-565685D01*
G01*
X88559275Y-70922402D01*
G75*
G02*
X87427905Y-70922402I-565685J565685D01*
G01*
X87427905Y-70922402D01*
G75*
G02*
X87427905Y-69791032I565685J565685D01*
G01*
G37*
G36*
G01*
X96408161Y-50034469D02*
X96408161Y-50034469D01*
G75*
G02*
X97539531Y-50034469I565685J-565685D01*
G01*
X97539531Y-50034469D01*
G75*
G02*
X97539531Y-51165839I-565685J-565685D01*
G01*
X97539531Y-51165839D01*
G75*
G02*
X96408161Y-51165839I-565685J565685D01*
G01*
X96408161Y-51165839D01*
G75*
G02*
X96408161Y-50034469I565685J565685D01*
G01*
G37*
G36*
G01*
X89223956Y-67994981D02*
X89223956Y-67994981D01*
G75*
G02*
X90355326Y-67994981I565685J-565685D01*
G01*
X90355326Y-67994981D01*
G75*
G02*
X90355326Y-69126351I-565685J-565685D01*
G01*
X90355326Y-69126351D01*
G75*
G02*
X89223956Y-69126351I-565685J565685D01*
G01*
X89223956Y-69126351D01*
G75*
G02*
X89223956Y-67994981I565685J565685D01*
G01*
G37*
G36*
G01*
X94612110Y-51830520D02*
X94612110Y-51830520D01*
G75*
G02*
X95743480Y-51830520I565685J-565685D01*
G01*
X95743480Y-51830520D01*
G75*
G02*
X95743480Y-52961890I-565685J-565685D01*
G01*
X95743480Y-52961890D01*
G75*
G02*
X94612110Y-52961890I-565685J565685D01*
G01*
X94612110Y-52961890D01*
G75*
G02*
X94612110Y-51830520I565685J565685D01*
G01*
G37*
G36*
G01*
X91020008Y-66198930D02*
X91020008Y-66198930D01*
G75*
G02*
X92151378Y-66198930I565685J-565685D01*
G01*
X92151378Y-66198930D01*
G75*
G02*
X92151378Y-67330300I-565685J-565685D01*
G01*
X92151378Y-67330300D01*
G75*
G02*
X91020008Y-67330300I-565685J565685D01*
G01*
X91020008Y-67330300D01*
G75*
G02*
X91020008Y-66198930I565685J565685D01*
G01*
G37*
G36*
G01*
X92816059Y-53626571D02*
X92816059Y-53626571D01*
G75*
G02*
X93947429Y-53626571I565685J-565685D01*
G01*
X93947429Y-53626571D01*
G75*
G02*
X93947429Y-54757941I-565685J-565685D01*
G01*
X93947429Y-54757941D01*
G75*
G02*
X92816059Y-54757941I-565685J565685D01*
G01*
X92816059Y-54757941D01*
G75*
G02*
X92816059Y-53626571I565685J565685D01*
G01*
G37*
G36*
G01*
X92816059Y-64402878D02*
X92816059Y-64402878D01*
G75*
G02*
X93947429Y-64402878I565685J-565685D01*
G01*
X93947429Y-64402878D01*
G75*
G02*
X93947429Y-65534248I-565685J-565685D01*
G01*
X93947429Y-65534248D01*
G75*
G02*
X92816059Y-65534248I-565685J565685D01*
G01*
X92816059Y-65534248D01*
G75*
G02*
X92816059Y-64402878I565685J565685D01*
G01*
G37*
G36*
G01*
X91020008Y-55422622D02*
X91020008Y-55422622D01*
G75*
G02*
X92151378Y-55422622I565685J-565685D01*
G01*
X92151378Y-55422622D01*
G75*
G02*
X92151378Y-56553992I-565685J-565685D01*
G01*
X92151378Y-56553992D01*
G75*
G02*
X91020008Y-56553992I-565685J565685D01*
G01*
X91020008Y-56553992D01*
G75*
G02*
X91020008Y-55422622I565685J565685D01*
G01*
G37*
G36*
G01*
X94612110Y-62606827D02*
X94612110Y-62606827D01*
G75*
G02*
X95743480Y-62606827I565685J-565685D01*
G01*
X95743480Y-62606827D01*
G75*
G02*
X95743480Y-63738197I-565685J-565685D01*
G01*
X95743480Y-63738197D01*
G75*
G02*
X94612110Y-63738197I-565685J565685D01*
G01*
X94612110Y-63738197D01*
G75*
G02*
X94612110Y-62606827I565685J565685D01*
G01*
G37*
G36*
G01*
X89223956Y-57218674D02*
X89223956Y-57218674D01*
G75*
G02*
X90355326Y-57218674I565685J-565685D01*
G01*
X90355326Y-57218674D01*
G75*
G02*
X90355326Y-58350044I-565685J-565685D01*
G01*
X90355326Y-58350044D01*
G75*
G02*
X89223956Y-58350044I-565685J565685D01*
G01*
X89223956Y-58350044D01*
G75*
G02*
X89223956Y-57218674I565685J565685D01*
G01*
G37*
G36*
G01*
X96408161Y-60810776D02*
X96408161Y-60810776D01*
G75*
G02*
X97539531Y-60810776I565685J-565685D01*
G01*
X97539531Y-60810776D01*
G75*
G02*
X97539531Y-61942146I-565685J-565685D01*
G01*
X97539531Y-61942146D01*
G75*
G02*
X96408161Y-61942146I-565685J565685D01*
G01*
X96408161Y-61942146D01*
G75*
G02*
X96408161Y-60810776I565685J565685D01*
G01*
G37*
G36*
G01*
X87427905Y-59014725D02*
X87427905Y-59014725D01*
G75*
G02*
X88559275Y-59014725I565685J-565685D01*
G01*
X88559275Y-59014725D01*
G75*
G02*
X88559275Y-60146095I-565685J-565685D01*
G01*
X88559275Y-60146095D01*
G75*
G02*
X87427905Y-60146095I-565685J565685D01*
G01*
X87427905Y-60146095D01*
G75*
G02*
X87427905Y-59014725I565685J565685D01*
G01*
G37*
G36*
G01*
X98204213Y-59014725D02*
X98204213Y-59014725D01*
G75*
G02*
X99335583Y-59014725I565685J-565685D01*
G01*
X99335583Y-59014725D01*
G75*
G02*
X99335583Y-60146095I-565685J-565685D01*
G01*
X99335583Y-60146095D01*
G75*
G02*
X98204213Y-60146095I-565685J565685D01*
G01*
X98204213Y-60146095D01*
G75*
G02*
X98204213Y-59014725I565685J565685D01*
G01*
G37*
G36*
G01*
X85631854Y-60810776D02*
X85631854Y-60810776D01*
G75*
G02*
X86763224Y-60810776I565685J-565685D01*
G01*
X86763224Y-60810776D01*
G75*
G02*
X86763224Y-61942146I-565685J-565685D01*
G01*
X86763224Y-61942146D01*
G75*
G02*
X85631854Y-61942146I-565685J565685D01*
G01*
X85631854Y-61942146D01*
G75*
G02*
X85631854Y-60810776I565685J565685D01*
G01*
G37*
G36*
G01*
X100000264Y-57218674D02*
X100000264Y-57218674D01*
G75*
G02*
X101131634Y-57218674I565685J-565685D01*
G01*
X101131634Y-57218674D01*
G75*
G02*
X101131634Y-58350044I-565685J-565685D01*
G01*
X101131634Y-58350044D01*
G75*
G02*
X100000264Y-58350044I-565685J565685D01*
G01*
X100000264Y-58350044D01*
G75*
G02*
X100000264Y-57218674I565685J565685D01*
G01*
G37*
G36*
G01*
X83835803Y-62606827D02*
X83835803Y-62606827D01*
G75*
G02*
X84967173Y-62606827I565685J-565685D01*
G01*
X84967173Y-62606827D01*
G75*
G02*
X84967173Y-63738197I-565685J-565685D01*
G01*
X84967173Y-63738197D01*
G75*
G02*
X83835803Y-63738197I-565685J565685D01*
G01*
X83835803Y-63738197D01*
G75*
G02*
X83835803Y-62606827I565685J565685D01*
G01*
G37*
G36*
G01*
X101796315Y-55422622D02*
X101796315Y-55422622D01*
G75*
G02*
X102927685Y-55422622I565685J-565685D01*
G01*
X102927685Y-55422622D01*
G75*
G02*
X102927685Y-56553992I-565685J-565685D01*
G01*
X102927685Y-56553992D01*
G75*
G02*
X101796315Y-56553992I-565685J565685D01*
G01*
X101796315Y-56553992D01*
G75*
G02*
X101796315Y-55422622I565685J565685D01*
G01*
G37*
G36*
G01*
X82039752Y-64402878D02*
X82039752Y-64402878D01*
G75*
G02*
X83171122Y-64402878I565685J-565685D01*
G01*
X83171122Y-64402878D01*
G75*
G02*
X83171122Y-65534248I-565685J-565685D01*
G01*
X83171122Y-65534248D01*
G75*
G02*
X82039752Y-65534248I-565685J565685D01*
G01*
X82039752Y-65534248D01*
G75*
G02*
X82039752Y-64402878I565685J565685D01*
G01*
G37*
G36*
G01*
X103592366Y-53626571D02*
X103592366Y-53626571D01*
G75*
G02*
X104723736Y-53626571I565685J-565685D01*
G01*
X104723736Y-53626571D01*
G75*
G02*
X104723736Y-54757941I-565685J-565685D01*
G01*
X104723736Y-54757941D01*
G75*
G02*
X103592366Y-54757941I-565685J565685D01*
G01*
X103592366Y-54757941D01*
G75*
G02*
X103592366Y-53626571I565685J565685D01*
G01*
G37*
G36*
G01*
X80243700Y-66198930D02*
X80243700Y-66198930D01*
G75*
G02*
X81375070Y-66198930I565685J-565685D01*
G01*
X81375070Y-66198930D01*
G75*
G02*
X81375070Y-67330300I-565685J-565685D01*
G01*
X81375070Y-67330300D01*
G75*
G02*
X80243700Y-67330300I-565685J565685D01*
G01*
X80243700Y-67330300D01*
G75*
G02*
X80243700Y-66198930I565685J565685D01*
G01*
G37*
G36*
G01*
X105388417Y-51830520D02*
X105388417Y-51830520D01*
G75*
G02*
X106519787Y-51830520I565685J-565685D01*
G01*
X106519787Y-51830520D01*
G75*
G02*
X106519787Y-52961890I-565685J-565685D01*
G01*
X106519787Y-52961890D01*
G75*
G02*
X105388417Y-52961890I-565685J565685D01*
G01*
X105388417Y-52961890D01*
G75*
G02*
X105388417Y-51830520I565685J565685D01*
G01*
G37*
G36*
G01*
X78447649Y-67994981D02*
X78447649Y-67994981D01*
G75*
G02*
X79579019Y-67994981I565685J-565685D01*
G01*
X79579019Y-67994981D01*
G75*
G02*
X79579019Y-69126351I-565685J-565685D01*
G01*
X79579019Y-69126351D01*
G75*
G02*
X78447649Y-69126351I-565685J565685D01*
G01*
X78447649Y-69126351D01*
G75*
G02*
X78447649Y-67994981I565685J565685D01*
G01*
G37*
G36*
G01*
X107184469Y-50034469D02*
X107184469Y-50034469D01*
G75*
G02*
X108315839Y-50034469I565685J-565685D01*
G01*
X108315839Y-50034469D01*
G75*
G02*
X108315839Y-51165839I-565685J-565685D01*
G01*
X108315839Y-51165839D01*
G75*
G02*
X107184469Y-51165839I-565685J565685D01*
G01*
X107184469Y-51165839D01*
G75*
G02*
X107184469Y-50034469I565685J565685D01*
G01*
G37*
%TD*%
%TO.C,U3*%
G36*
G01*
X114798000Y-75843500D02*
X114998000Y-75843500D01*
G75*
G02*
X115098000Y-75943500I0J-100000D01*
G01*
X115098000Y-77218500D01*
G75*
G02*
X114998000Y-77318500I-100000J0D01*
G01*
X114798000Y-77318500D01*
G75*
G02*
X114698000Y-77218500I0J100000D01*
G01*
X114698000Y-75943500D01*
G75*
G02*
X114798000Y-75843500I100000J0D01*
G01*
G37*
G36*
G01*
X114148000Y-75843500D02*
X114348000Y-75843500D01*
G75*
G02*
X114448000Y-75943500I0J-100000D01*
G01*
X114448000Y-77218500D01*
G75*
G02*
X114348000Y-77318500I-100000J0D01*
G01*
X114148000Y-77318500D01*
G75*
G02*
X114048000Y-77218500I0J100000D01*
G01*
X114048000Y-75943500D01*
G75*
G02*
X114148000Y-75843500I100000J0D01*
G01*
G37*
G36*
G01*
X113498000Y-75843500D02*
X113698000Y-75843500D01*
G75*
G02*
X113798000Y-75943500I0J-100000D01*
G01*
X113798000Y-77218500D01*
G75*
G02*
X113698000Y-77318500I-100000J0D01*
G01*
X113498000Y-77318500D01*
G75*
G02*
X113398000Y-77218500I0J100000D01*
G01*
X113398000Y-75943500D01*
G75*
G02*
X113498000Y-75843500I100000J0D01*
G01*
G37*
G36*
G01*
X112848000Y-75843500D02*
X113048000Y-75843500D01*
G75*
G02*
X113148000Y-75943500I0J-100000D01*
G01*
X113148000Y-77218500D01*
G75*
G02*
X113048000Y-77318500I-100000J0D01*
G01*
X112848000Y-77318500D01*
G75*
G02*
X112748000Y-77218500I0J100000D01*
G01*
X112748000Y-75943500D01*
G75*
G02*
X112848000Y-75843500I100000J0D01*
G01*
G37*
G36*
G01*
X112198000Y-75843500D02*
X112398000Y-75843500D01*
G75*
G02*
X112498000Y-75943500I0J-100000D01*
G01*
X112498000Y-77218500D01*
G75*
G02*
X112398000Y-77318500I-100000J0D01*
G01*
X112198000Y-77318500D01*
G75*
G02*
X112098000Y-77218500I0J100000D01*
G01*
X112098000Y-75943500D01*
G75*
G02*
X112198000Y-75843500I100000J0D01*
G01*
G37*
G36*
G01*
X111548000Y-75843500D02*
X111748000Y-75843500D01*
G75*
G02*
X111848000Y-75943500I0J-100000D01*
G01*
X111848000Y-77218500D01*
G75*
G02*
X111748000Y-77318500I-100000J0D01*
G01*
X111548000Y-77318500D01*
G75*
G02*
X111448000Y-77218500I0J100000D01*
G01*
X111448000Y-75943500D01*
G75*
G02*
X111548000Y-75843500I100000J0D01*
G01*
G37*
G36*
G01*
X110898000Y-75843500D02*
X111098000Y-75843500D01*
G75*
G02*
X111198000Y-75943500I0J-100000D01*
G01*
X111198000Y-77218500D01*
G75*
G02*
X111098000Y-77318500I-100000J0D01*
G01*
X110898000Y-77318500D01*
G75*
G02*
X110798000Y-77218500I0J100000D01*
G01*
X110798000Y-75943500D01*
G75*
G02*
X110898000Y-75843500I100000J0D01*
G01*
G37*
G36*
G01*
X110248000Y-75843500D02*
X110448000Y-75843500D01*
G75*
G02*
X110548000Y-75943500I0J-100000D01*
G01*
X110548000Y-77218500D01*
G75*
G02*
X110448000Y-77318500I-100000J0D01*
G01*
X110248000Y-77318500D01*
G75*
G02*
X110148000Y-77218500I0J100000D01*
G01*
X110148000Y-75943500D01*
G75*
G02*
X110248000Y-75843500I100000J0D01*
G01*
G37*
G36*
G01*
X109598000Y-75843500D02*
X109798000Y-75843500D01*
G75*
G02*
X109898000Y-75943500I0J-100000D01*
G01*
X109898000Y-77218500D01*
G75*
G02*
X109798000Y-77318500I-100000J0D01*
G01*
X109598000Y-77318500D01*
G75*
G02*
X109498000Y-77218500I0J100000D01*
G01*
X109498000Y-75943500D01*
G75*
G02*
X109598000Y-75843500I100000J0D01*
G01*
G37*
G36*
G01*
X108948000Y-75843500D02*
X109148000Y-75843500D01*
G75*
G02*
X109248000Y-75943500I0J-100000D01*
G01*
X109248000Y-77218500D01*
G75*
G02*
X109148000Y-77318500I-100000J0D01*
G01*
X108948000Y-77318500D01*
G75*
G02*
X108848000Y-77218500I0J100000D01*
G01*
X108848000Y-75943500D01*
G75*
G02*
X108948000Y-75843500I100000J0D01*
G01*
G37*
G36*
G01*
X108948000Y-81568500D02*
X109148000Y-81568500D01*
G75*
G02*
X109248000Y-81668500I0J-100000D01*
G01*
X109248000Y-82943500D01*
G75*
G02*
X109148000Y-83043500I-100000J0D01*
G01*
X108948000Y-83043500D01*
G75*
G02*
X108848000Y-82943500I0J100000D01*
G01*
X108848000Y-81668500D01*
G75*
G02*
X108948000Y-81568500I100000J0D01*
G01*
G37*
G36*
G01*
X109598000Y-81568500D02*
X109798000Y-81568500D01*
G75*
G02*
X109898000Y-81668500I0J-100000D01*
G01*
X109898000Y-82943500D01*
G75*
G02*
X109798000Y-83043500I-100000J0D01*
G01*
X109598000Y-83043500D01*
G75*
G02*
X109498000Y-82943500I0J100000D01*
G01*
X109498000Y-81668500D01*
G75*
G02*
X109598000Y-81568500I100000J0D01*
G01*
G37*
G36*
G01*
X110248000Y-81568500D02*
X110448000Y-81568500D01*
G75*
G02*
X110548000Y-81668500I0J-100000D01*
G01*
X110548000Y-82943500D01*
G75*
G02*
X110448000Y-83043500I-100000J0D01*
G01*
X110248000Y-83043500D01*
G75*
G02*
X110148000Y-82943500I0J100000D01*
G01*
X110148000Y-81668500D01*
G75*
G02*
X110248000Y-81568500I100000J0D01*
G01*
G37*
G36*
G01*
X110898000Y-81568500D02*
X111098000Y-81568500D01*
G75*
G02*
X111198000Y-81668500I0J-100000D01*
G01*
X111198000Y-82943500D01*
G75*
G02*
X111098000Y-83043500I-100000J0D01*
G01*
X110898000Y-83043500D01*
G75*
G02*
X110798000Y-82943500I0J100000D01*
G01*
X110798000Y-81668500D01*
G75*
G02*
X110898000Y-81568500I100000J0D01*
G01*
G37*
G36*
G01*
X111548000Y-81568500D02*
X111748000Y-81568500D01*
G75*
G02*
X111848000Y-81668500I0J-100000D01*
G01*
X111848000Y-82943500D01*
G75*
G02*
X111748000Y-83043500I-100000J0D01*
G01*
X111548000Y-83043500D01*
G75*
G02*
X111448000Y-82943500I0J100000D01*
G01*
X111448000Y-81668500D01*
G75*
G02*
X111548000Y-81568500I100000J0D01*
G01*
G37*
G36*
G01*
X112198000Y-81568500D02*
X112398000Y-81568500D01*
G75*
G02*
X112498000Y-81668500I0J-100000D01*
G01*
X112498000Y-82943500D01*
G75*
G02*
X112398000Y-83043500I-100000J0D01*
G01*
X112198000Y-83043500D01*
G75*
G02*
X112098000Y-82943500I0J100000D01*
G01*
X112098000Y-81668500D01*
G75*
G02*
X112198000Y-81568500I100000J0D01*
G01*
G37*
G36*
G01*
X112848000Y-81568500D02*
X113048000Y-81568500D01*
G75*
G02*
X113148000Y-81668500I0J-100000D01*
G01*
X113148000Y-82943500D01*
G75*
G02*
X113048000Y-83043500I-100000J0D01*
G01*
X112848000Y-83043500D01*
G75*
G02*
X112748000Y-82943500I0J100000D01*
G01*
X112748000Y-81668500D01*
G75*
G02*
X112848000Y-81568500I100000J0D01*
G01*
G37*
G36*
G01*
X113498000Y-81568500D02*
X113698000Y-81568500D01*
G75*
G02*
X113798000Y-81668500I0J-100000D01*
G01*
X113798000Y-82943500D01*
G75*
G02*
X113698000Y-83043500I-100000J0D01*
G01*
X113498000Y-83043500D01*
G75*
G02*
X113398000Y-82943500I0J100000D01*
G01*
X113398000Y-81668500D01*
G75*
G02*
X113498000Y-81568500I100000J0D01*
G01*
G37*
G36*
G01*
X114148000Y-81568500D02*
X114348000Y-81568500D01*
G75*
G02*
X114448000Y-81668500I0J-100000D01*
G01*
X114448000Y-82943500D01*
G75*
G02*
X114348000Y-83043500I-100000J0D01*
G01*
X114148000Y-83043500D01*
G75*
G02*
X114048000Y-82943500I0J100000D01*
G01*
X114048000Y-81668500D01*
G75*
G02*
X114148000Y-81568500I100000J0D01*
G01*
G37*
G36*
G01*
X114798000Y-81568500D02*
X114998000Y-81568500D01*
G75*
G02*
X115098000Y-81668500I0J-100000D01*
G01*
X115098000Y-82943500D01*
G75*
G02*
X114998000Y-83043500I-100000J0D01*
G01*
X114798000Y-83043500D01*
G75*
G02*
X114698000Y-82943500I0J100000D01*
G01*
X114698000Y-81668500D01*
G75*
G02*
X114798000Y-81568500I100000J0D01*
G01*
G37*
%TD*%
D23*
%TO.C,U5*%
X113919000Y-93408500D03*
X113919000Y-90868500D03*
X113919000Y-88328500D03*
D24*
X113919000Y-85788500D03*
%TD*%
D25*
%TO.C,Y1*%
X101600000Y-62801500D03*
X105050681Y-59350819D03*
%TD*%
%TO.C,Y2*%
X109855000Y-72072500D03*
X109855000Y-67192500D03*
%TD*%
D12*
%TO.C,C2*%
X151511000Y-91059000D03*
X146511000Y-91059000D03*
%TD*%
D11*
%TO.C,CN6*%
X118872000Y-51562000D03*
D10*
X116332000Y-51562000D03*
%TD*%
%TO.C,CN7*%
X121920000Y-51562000D03*
D11*
X124460000Y-51562000D03*
%TD*%
%TO.C,CN8*%
X103632000Y-72136000D03*
D10*
X101092000Y-72136000D03*
%TD*%
%TO.C,CN9*%
X120396000Y-72644000D03*
D11*
X117856000Y-72644000D03*
%TD*%
D26*
%TO.C,CN13*%
X80484500Y-58293000D03*
X77884500Y-58293000D03*
X79184500Y-58293000D03*
%TD*%
D27*
%TO.C,D1*%
X160401000Y-94742000D03*
D28*
X160401000Y-89662000D03*
%TD*%
D29*
%TO.C,U1*%
X154074000Y-100330000D03*
D30*
X137414000Y-97790000D03*
D31*
X137414000Y-100330000D03*
X137414000Y-102870000D03*
%TD*%
D14*
%TO.C,U4*%
X128587500Y-93853000D03*
D13*
X120967500Y-86233000D03*
X128587500Y-91313000D03*
X120967500Y-88773000D03*
X128587500Y-88773000D03*
X120967500Y-91313000D03*
X128587500Y-86233000D03*
X120967500Y-93853000D03*
%TD*%
D10*
%TO.C,CN10*%
X107696000Y-86614000D03*
D11*
X107696000Y-89154000D03*
%TD*%
%TO.C,U6_LEFT1*%
X78105000Y-91567000D03*
X78105000Y-94107000D03*
X78105000Y-96647000D03*
X78105000Y-99187000D03*
X78105000Y-101727000D03*
D10*
X78105000Y-104267000D03*
%TD*%
M02*
