%TF.GenerationSoftware,KiCad,Pcbnew,(5.1.9)-1*%
%TF.CreationDate,2022-05-14T18:30:03+02:00*%
%TF.ProjectId,Espanzione_01,45737061-6e7a-4696-9f6e-655f30312e6b,rev?*%
%TF.SameCoordinates,Original*%
%TF.FileFunction,Profile,NP*%
%FSLAX46Y46*%
G04 Gerber Fmt 4.6, Leading zero omitted, Abs format (unit mm)*
G04 Created by KiCad (PCBNEW (5.1.9)-1) date 2022-05-14 18:30:03*
%MOMM*%
%LPD*%
G01*
G04 APERTURE LIST*
%TA.AperFunction,Profile*%
%ADD10C,0.050000*%
%TD*%
G04 APERTURE END LIST*
D10*
X119126000Y-89408000D02*
X119126000Y-86360000D01*
X119380000Y-89408000D02*
X119126000Y-89408000D01*
X119380000Y-85090000D02*
X119380000Y-89408000D01*
X123444000Y-85090000D02*
X119380000Y-85090000D01*
X123444000Y-95758000D02*
X123444000Y-85090000D01*
X123952000Y-95758000D02*
X123444000Y-95758000D01*
X123952000Y-84582000D02*
X123952000Y-95758000D01*
X119126000Y-84582000D02*
X123952000Y-84582000D01*
X119126000Y-86360000D02*
X119126000Y-84582000D01*
X99814922Y-63119000D02*
G75*
G03*
X99814922Y-63119000I-1262922J0D01*
G01*
X103060500Y-92075000D02*
X103060500Y-95250000D01*
X111252000Y-92075000D02*
X103060500Y-92075000D01*
X111252000Y-89725500D02*
X111252000Y-92075000D01*
X112395000Y-89725500D02*
X111252000Y-89725500D01*
X111061500Y-89471500D02*
X112268000Y-89471500D01*
X111061500Y-89535000D02*
X111061500Y-89471500D01*
X111061500Y-91884500D02*
X111061500Y-89535000D01*
X102933500Y-91884500D02*
X111061500Y-91884500D01*
X102933500Y-95059500D02*
X102933500Y-91884500D01*
X103060500Y-105537000D02*
X103060500Y-95250000D01*
X102933500Y-105537000D02*
X103060500Y-105537000D01*
X102933500Y-95059500D02*
X102933500Y-105537000D01*
X107569000Y-87439500D02*
X108204000Y-87439500D01*
X129667000Y-96393000D02*
X129159000Y-96393000D01*
X129667000Y-104267000D02*
X129667000Y-96393000D01*
X129159000Y-104267000D02*
X129667000Y-104267000D01*
X129159000Y-96393000D02*
X129159000Y-104267000D01*
X115062000Y-89471500D02*
X112268000Y-89471500D01*
X115062000Y-89725500D02*
X115062000Y-89471500D01*
X112395000Y-89725500D02*
X115062000Y-89725500D01*
X165100000Y-76962000D02*
X165100000Y-106045000D01*
X165100000Y-76962000D02*
X126111000Y-76962000D01*
X165100000Y-106045000D02*
X76327000Y-106045000D01*
X126111000Y-76962000D02*
X126111000Y-54102000D01*
X126111000Y-34544000D02*
X126111000Y-54102000D01*
X76327000Y-106045000D02*
X76200000Y-34544000D01*
X76200000Y-34544000D02*
X126111000Y-34544000D01*
M02*
