%TF.GenerationSoftware,KiCad,Pcbnew,(5.1.9)-1*%
%TF.CreationDate,2022-01-12T17:44:04+01:00*%
%TF.ProjectId,Allarmino,416c6c61-726d-4696-9e6f-2e6b69636164,rev?*%
%TF.SameCoordinates,Original*%
%TF.FileFunction,Profile,NP*%
%FSLAX46Y46*%
G04 Gerber Fmt 4.6, Leading zero omitted, Abs format (unit mm)*
G04 Created by KiCad (PCBNEW (5.1.9)-1) date 2022-01-12 17:44:04*
%MOMM*%
%LPD*%
G01*
G04 APERTURE LIST*
%TA.AperFunction,Profile*%
%ADD10C,0.050000*%
%TD*%
G04 APERTURE END LIST*
D10*
X97282000Y-74168000D02*
X98298000Y-74168000D01*
X97282000Y-74676000D02*
X97282000Y-74168000D01*
X105410000Y-74676000D02*
X97282000Y-74676000D01*
X105410000Y-74168000D02*
X105410000Y-74676000D01*
X98298000Y-74168000D02*
X105410000Y-74168000D01*
X153416000Y-104394000D02*
X153416000Y-92710000D01*
X154178000Y-104394000D02*
X153416000Y-104394000D01*
X154178000Y-92710000D02*
X154178000Y-104394000D01*
X153416000Y-92710000D02*
X154178000Y-92710000D01*
X104648000Y-85090000D02*
X104648000Y-84328000D01*
X88392000Y-85090000D02*
X104648000Y-85090000D01*
X88392000Y-84328000D02*
X88392000Y-85090000D01*
X104648000Y-84328000D02*
X88392000Y-84328000D01*
X162990000Y-44958000D02*
G75*
G03*
X162990000Y-44958000I-1700000J0D01*
G01*
X163752000Y-117348000D02*
G75*
G03*
X163752000Y-117348000I-1700000J0D01*
G01*
X183388000Y-73406000D02*
G75*
G02*
X183388000Y-67818000I0J2794000D01*
G01*
X183388000Y-67818000D02*
X186436000Y-67818000D01*
X183388000Y-72898000D02*
G75*
G02*
X183388000Y-68326000I0J2286000D01*
G01*
X186436000Y-72898000D02*
X186436000Y-73406000D01*
X186436000Y-68326000D02*
X183388000Y-68326000D01*
X183388000Y-72898000D02*
X186436000Y-72898000D01*
X186436000Y-73406000D02*
X183388000Y-73406000D01*
X186436000Y-67818000D02*
X186436000Y-68326000D01*
X183388000Y-90170000D02*
G75*
G02*
X183388000Y-85598000I0J2286000D01*
G01*
X183388000Y-90678000D02*
G75*
G02*
X183388000Y-85090000I0J2794000D01*
G01*
X183388000Y-85090000D02*
X186436000Y-85090000D01*
X186436000Y-90678000D02*
X183388000Y-90678000D01*
X186436000Y-85090000D02*
X186436000Y-85598000D01*
X186436000Y-90170000D02*
X186436000Y-90678000D01*
X186436000Y-85598000D02*
X183388000Y-85598000D01*
X183388000Y-90170000D02*
X186436000Y-90170000D01*
X186436000Y-108458000D02*
X183388000Y-108458000D01*
X186436000Y-107950000D02*
X186436000Y-108458000D01*
X183388000Y-107950000D02*
X186436000Y-107950000D01*
X186436000Y-103378000D02*
X183388000Y-103378000D01*
X186436000Y-102870000D02*
X186436000Y-103378000D01*
X183388000Y-102870000D02*
X186436000Y-102870000D01*
X183388000Y-107950000D02*
G75*
G02*
X183388000Y-103378000I0J2286000D01*
G01*
X183388000Y-108458000D02*
G75*
G02*
X183388000Y-102870000I0J2794000D01*
G01*
X81456000Y-38100000D02*
G75*
G03*
X81456000Y-38100000I-1700000J0D01*
G01*
X76200000Y-120904000D02*
X76200000Y-34544000D01*
X81456000Y-117348000D02*
G75*
G03*
X81456000Y-117348000I-1700000J0D01*
G01*
X221996000Y-120904000D02*
X76200000Y-120904000D01*
X220140000Y-117348000D02*
G75*
G03*
X220140000Y-117348000I-1700000J0D01*
G01*
X76200000Y-34544000D02*
X221996000Y-34544000D01*
X221996000Y-120904000D02*
X221996000Y-34544000D01*
X220140000Y-38100000D02*
G75*
G03*
X220140000Y-38100000I-1700000J0D01*
G01*
M02*
