%TF.GenerationSoftware,KiCad,Pcbnew,(5.1.9)-1*%
%TF.CreationDate,2022-01-12T17:44:04+01:00*%
%TF.ProjectId,Allarmino,416c6c61-726d-4696-9e6f-2e6b69636164,rev?*%
%TF.SameCoordinates,Original*%
%TF.FileFunction,Paste,Top*%
%TF.FilePolarity,Positive*%
%FSLAX46Y46*%
G04 Gerber Fmt 4.6, Leading zero omitted, Abs format (unit mm)*
G04 Created by KiCad (PCBNEW (5.1.9)-1) date 2022-01-12 17:44:04*
%MOMM*%
%LPD*%
G01*
G04 APERTURE LIST*
%ADD10C,0.150000*%
G04 APERTURE END LIST*
D10*
X77033428Y-83184952D02*
X77033428Y-82423047D01*
X77414380Y-82804000D02*
X76652476Y-82804000D01*
X77033428Y-76072952D02*
X77033428Y-75311047D01*
X86233047Y-119959428D02*
X86994952Y-119959428D01*
X86614000Y-120340380D02*
X86614000Y-119578476D01*
X93345047Y-119959428D02*
X94106952Y-119959428D01*
X105537047Y-119959428D02*
X106298952Y-119959428D01*
X98425047Y-119959428D02*
X99186952Y-119959428D01*
X98806000Y-120340380D02*
X98806000Y-119578476D01*
X111125047Y-119959428D02*
X111886952Y-119959428D01*
X111506000Y-120340380D02*
X111506000Y-119578476D01*
X118237047Y-119959428D02*
X118998952Y-119959428D01*
X122301047Y-119959428D02*
X123062952Y-119959428D01*
X122682000Y-120340380D02*
X122682000Y-119578476D01*
X129413047Y-119959428D02*
X130174952Y-119959428D01*
X133731047Y-119959428D02*
X134492952Y-119959428D01*
X134112000Y-120340380D02*
X134112000Y-119578476D01*
X140843047Y-119959428D02*
X141604952Y-119959428D01*
X152019047Y-119959428D02*
X152780952Y-119959428D01*
X144907047Y-119959428D02*
X145668952Y-119959428D01*
X145288000Y-120340380D02*
X145288000Y-119578476D01*
M02*
