%TF.GenerationSoftware,KiCad,Pcbnew,(5.1.9)-1*%
%TF.CreationDate,2022-01-12T17:44:04+01:00*%
%TF.ProjectId,Allarmino,416c6c61-726d-4696-9e6f-2e6b69636164,rev?*%
%TF.SameCoordinates,Original*%
%TF.FileFunction,Soldermask,Bot*%
%TF.FilePolarity,Negative*%
%FSLAX46Y46*%
G04 Gerber Fmt 4.6, Leading zero omitted, Abs format (unit mm)*
G04 Created by KiCad (PCBNEW (5.1.9)-1) date 2022-01-12 17:44:04*
%MOMM*%
%LPD*%
G01*
G04 APERTURE LIST*
%ADD10R,2.200000X2.200000*%
%ADD11O,2.200000X2.200000*%
%ADD12R,2.000000X2.000000*%
%ADD13C,2.000000*%
%ADD14C,6.000000*%
%ADD15C,1.600000*%
%ADD16O,8.000000X3.800000*%
%ADD17R,3.960000X1.980000*%
%ADD18O,3.960000X1.980000*%
%ADD19R,1.980000X3.960000*%
%ADD20O,1.980000X3.960000*%
%ADD21R,1.700000X1.700000*%
%ADD22O,1.700000X1.700000*%
%ADD23O,2.500000X2.500000*%
%ADD24R,2.500000X2.500000*%
%ADD25C,1.800000*%
%ADD26R,1.800000X1.800000*%
%ADD27O,1.050000X1.500000*%
%ADD28R,1.050000X1.500000*%
%ADD29O,1.500000X1.050000*%
%ADD30R,1.500000X1.050000*%
%ADD31O,1.600000X1.600000*%
%ADD32R,1.600000X1.600000*%
%ADD33R,1.905000X2.000000*%
%ADD34O,1.905000X2.000000*%
G04 APERTURE END LIST*
D10*
%TO.C,D3*%
X169672000Y-55880000D03*
D11*
X159512000Y-55880000D03*
%TD*%
D12*
%TO.C,BZ1*%
X93980000Y-62484000D03*
D13*
X101580000Y-62484000D03*
%TD*%
D14*
%TO.C,REF\u002A\u002A*%
X170688000Y-41656000D03*
X196088000Y-41656000D03*
%TD*%
D15*
%TO.C,C2*%
X189564000Y-50292000D03*
X194564000Y-50292000D03*
%TD*%
%TO.C,C3*%
X183388000Y-44704000D03*
X178388000Y-44704000D03*
%TD*%
%TO.C,C5*%
X170180000Y-78312000D03*
X170180000Y-83312000D03*
%TD*%
%TO.C,C6*%
X163068000Y-92964000D03*
X168068000Y-92964000D03*
%TD*%
%TO.C,C7*%
X162560000Y-96092000D03*
X162560000Y-101092000D03*
%TD*%
D10*
%TO.C,D1*%
X203708000Y-52832000D03*
D11*
X203708000Y-42672000D03*
%TD*%
%TO.C,D2*%
X178308000Y-75184000D03*
D10*
X178308000Y-65024000D03*
%TD*%
D11*
%TO.C,D4*%
X178308000Y-94234000D03*
D10*
X178308000Y-84074000D03*
%TD*%
%TO.C,D5*%
X178308000Y-100076000D03*
D11*
X178308000Y-110236000D03*
%TD*%
D16*
%TO.C,F1*%
X204568000Y-57912000D03*
X213868000Y-57912000D03*
%TD*%
D17*
%TO.C,CN1*%
X212852000Y-50212000D03*
D18*
X212852000Y-45212000D03*
%TD*%
D17*
%TO.C,CN2*%
X212852000Y-75532000D03*
D18*
X212852000Y-70532000D03*
X212852000Y-65532000D03*
%TD*%
D17*
%TO.C,CN3*%
X212852000Y-92456000D03*
D18*
X212852000Y-87456000D03*
X212852000Y-82456000D03*
%TD*%
%TO.C,CN4*%
X212852000Y-100076000D03*
X212852000Y-105076000D03*
D17*
X212852000Y-110076000D03*
%TD*%
D19*
%TO.C,CN9*%
X146304000Y-112522000D03*
D20*
X151304000Y-112522000D03*
%TD*%
%TO.C,CN10*%
X140128000Y-112522000D03*
D19*
X135128000Y-112522000D03*
%TD*%
%TO.C,CN11*%
X123778000Y-112522000D03*
D20*
X128778000Y-112522000D03*
%TD*%
D19*
%TO.C,CN12*%
X112522000Y-112522000D03*
D20*
X117522000Y-112522000D03*
%TD*%
%TO.C,CN13*%
X104568000Y-112522000D03*
D19*
X99568000Y-112522000D03*
%TD*%
D20*
%TO.C,CN14*%
X92202000Y-112776000D03*
D19*
X87202000Y-112776000D03*
%TD*%
D18*
%TO.C,CN15*%
X84582000Y-81788000D03*
D17*
X84582000Y-76788000D03*
%TD*%
D21*
%TO.C,CN7*%
X101600000Y-38100000D03*
D22*
X101600000Y-40640000D03*
X99060000Y-38100000D03*
X99060000Y-40640000D03*
%TD*%
%TO.C,CN5*%
X114808000Y-43180000D03*
X112268000Y-43180000D03*
X114808000Y-40640000D03*
X112268000Y-40640000D03*
X114808000Y-38100000D03*
D21*
X112268000Y-38100000D03*
%TD*%
%TO.C,CN6*%
X120396000Y-38100000D03*
D22*
X122936000Y-38100000D03*
X120396000Y-40640000D03*
X122936000Y-40640000D03*
X120396000Y-43180000D03*
X122936000Y-43180000D03*
%TD*%
D21*
%TO.C,CN8*%
X88392000Y-50800000D03*
D22*
X88392000Y-48260000D03*
X88392000Y-45720000D03*
X88392000Y-43180000D03*
X88392000Y-40640000D03*
X88392000Y-38100000D03*
%TD*%
%TO.C,JP1*%
X107696000Y-89154000D03*
D21*
X107696000Y-86614000D03*
%TD*%
%TO.C,JP2*%
X120396000Y-72644000D03*
D22*
X117856000Y-72644000D03*
%TD*%
D21*
%TO.C,JP3*%
X101092000Y-72136000D03*
D22*
X103632000Y-72136000D03*
%TD*%
D23*
%TO.C,RL1*%
X185388000Y-64516000D03*
X197588000Y-64516000D03*
X197588000Y-76516000D03*
X185388000Y-76516000D03*
D24*
X183388000Y-70516000D03*
%TD*%
%TO.C,RL2*%
X183420000Y-87788000D03*
D23*
X185420000Y-93788000D03*
X197620000Y-93788000D03*
X197620000Y-81788000D03*
X185420000Y-81788000D03*
%TD*%
D24*
%TO.C,RL3*%
X183388000Y-105664000D03*
D23*
X185388000Y-111664000D03*
X197588000Y-111664000D03*
X197588000Y-99664000D03*
X185388000Y-99664000D03*
%TD*%
D25*
%TO.C,LD1*%
X175768000Y-60960000D03*
D26*
X173228000Y-60960000D03*
%TD*%
%TO.C,LD2*%
X174244000Y-88392000D03*
D25*
X174244000Y-85852000D03*
%TD*%
D26*
%TO.C,LD3*%
X170180000Y-104140000D03*
D25*
X170180000Y-106680000D03*
%TD*%
%TO.C,LD4*%
X124460000Y-51562000D03*
D26*
X121920000Y-51562000D03*
%TD*%
%TO.C,LD5*%
X116332000Y-51562000D03*
D25*
X118872000Y-51562000D03*
%TD*%
D27*
%TO.C,T1*%
X175260000Y-79756000D03*
X173990000Y-79756000D03*
D28*
X176530000Y-79756000D03*
%TD*%
D29*
%TO.C,T2*%
X169672000Y-97282000D03*
X169672000Y-96012000D03*
D30*
X169672000Y-98552000D03*
%TD*%
%TO.C,T3*%
X165100000Y-106680000D03*
D29*
X165100000Y-104140000D03*
X165100000Y-105410000D03*
%TD*%
D15*
%TO.C,R1*%
X166624000Y-75692000D03*
D31*
X166624000Y-85852000D03*
%TD*%
D15*
%TO.C,R2*%
X173228000Y-65532000D03*
D31*
X173228000Y-75692000D03*
%TD*%
%TO.C,R3*%
X164592000Y-59436000D03*
D15*
X164592000Y-69596000D03*
%TD*%
%TO.C,R4*%
X168148000Y-69596000D03*
D31*
X168148000Y-59436000D03*
%TD*%
D15*
%TO.C,R5*%
X174244000Y-90932000D03*
D31*
X174244000Y-101092000D03*
%TD*%
%TO.C,R6*%
X168148000Y-89408000D03*
D15*
X157988000Y-89408000D03*
%TD*%
%TO.C,R7*%
X161544000Y-76200000D03*
D31*
X161544000Y-86360000D03*
%TD*%
%TO.C,R8*%
X174244000Y-114300000D03*
D15*
X174244000Y-104140000D03*
%TD*%
D31*
%TO.C,R9*%
X159004000Y-96012000D03*
D15*
X159004000Y-106172000D03*
%TD*%
D31*
%TO.C,R10*%
X157480000Y-86360000D03*
D15*
X157480000Y-76200000D03*
%TD*%
%TO.C,R11*%
X142240000Y-81534000D03*
D31*
X152400000Y-81534000D03*
%TD*%
D15*
%TO.C,R13*%
X142240000Y-84582000D03*
D31*
X152400000Y-84582000D03*
%TD*%
%TO.C,R15*%
X128016000Y-81534000D03*
D15*
X138176000Y-81534000D03*
%TD*%
D31*
%TO.C,R17*%
X128016000Y-84582000D03*
D15*
X138176000Y-84582000D03*
%TD*%
%TO.C,R19*%
X114808000Y-84582000D03*
D31*
X124968000Y-84582000D03*
%TD*%
%TO.C,R21*%
X124968000Y-81534000D03*
D15*
X114808000Y-81534000D03*
%TD*%
%TO.C,R23*%
X114808000Y-78486000D03*
D31*
X124968000Y-78486000D03*
%TD*%
%TO.C,R25*%
X93980000Y-70612000D03*
D15*
X83820000Y-70612000D03*
%TD*%
%TO.C,R26*%
X86360000Y-55118000D03*
D31*
X86360000Y-65278000D03*
%TD*%
D15*
%TO.C,R27*%
X106680000Y-68072000D03*
D31*
X116840000Y-68072000D03*
%TD*%
D15*
%TO.C,R28*%
X109728000Y-61468000D03*
D31*
X119888000Y-61468000D03*
%TD*%
D15*
%TO.C,R29*%
X106426000Y-58166000D03*
D31*
X116586000Y-58166000D03*
%TD*%
%TO.C,R30*%
X94488000Y-37084000D03*
D15*
X94488000Y-47244000D03*
%TD*%
D31*
%TO.C,R31*%
X98298000Y-44450000D03*
D15*
X98298000Y-54610000D03*
%TD*%
%TO.C,R32*%
X106680000Y-35814000D03*
D31*
X106680000Y-45974000D03*
%TD*%
%TO.C,R33*%
X102108000Y-54610000D03*
D15*
X102108000Y-44450000D03*
%TD*%
D22*
%TO.C,U1*%
X153924000Y-73199001D03*
X153924000Y-70659001D03*
X153924000Y-68119001D03*
X153924000Y-65579001D03*
X153924000Y-63039001D03*
X153924000Y-60499001D03*
X153924000Y-57959001D03*
X153924000Y-55419001D03*
X153924000Y-52879001D03*
X153924000Y-50339001D03*
X153924000Y-47799001D03*
X153924000Y-45259001D03*
X153924000Y-42719001D03*
X153924000Y-40179001D03*
D21*
X153924000Y-37639001D03*
%TD*%
D31*
%TO.C,U2*%
X145288000Y-87884000D03*
X150368000Y-95504000D03*
X147828000Y-87884000D03*
X147828000Y-95504000D03*
X150368000Y-87884000D03*
D32*
X145288000Y-95504000D03*
%TD*%
%TO.C,U3*%
X134366000Y-95504000D03*
D31*
X139446000Y-87884000D03*
X136906000Y-95504000D03*
X136906000Y-87884000D03*
X139446000Y-95504000D03*
X134366000Y-87884000D03*
%TD*%
D32*
%TO.C,U4*%
X123190000Y-95504000D03*
D31*
X128270000Y-87884000D03*
X125730000Y-95504000D03*
X125730000Y-87884000D03*
X128270000Y-95504000D03*
X123190000Y-87884000D03*
%TD*%
D32*
%TO.C,U5*%
X111506000Y-95504000D03*
D31*
X116586000Y-87884000D03*
X114046000Y-95504000D03*
X114046000Y-87884000D03*
X116586000Y-95504000D03*
X111506000Y-87884000D03*
%TD*%
%TO.C,U6*%
X98806000Y-87884000D03*
X103886000Y-95504000D03*
X101346000Y-87884000D03*
X101346000Y-95504000D03*
X103886000Y-87884000D03*
D32*
X98806000Y-95504000D03*
%TD*%
%TO.C,U7*%
X86614000Y-95504000D03*
D31*
X91694000Y-87884000D03*
X89154000Y-95504000D03*
X89154000Y-87884000D03*
X91694000Y-95504000D03*
X86614000Y-87884000D03*
%TD*%
%TO.C,U8*%
X109220000Y-77724000D03*
X101600000Y-82804000D03*
X109220000Y-80264000D03*
X101600000Y-80264000D03*
X109220000Y-82804000D03*
D32*
X101600000Y-77724000D03*
%TD*%
D33*
%TO.C,U9*%
X185928000Y-38100000D03*
D34*
X183388000Y-38100000D03*
X180848000Y-38100000D03*
%TD*%
D21*
%TO.C,U_1*%
X128825001Y-37639001D03*
D22*
X128825001Y-40179001D03*
X128825001Y-42719001D03*
X128825001Y-45259001D03*
X128825001Y-47799001D03*
X128825001Y-50339001D03*
X128825001Y-52879001D03*
X128825001Y-55419001D03*
X128825001Y-57959001D03*
X128825001Y-60499001D03*
X128825001Y-63039001D03*
X128825001Y-65579001D03*
X128825001Y-68119001D03*
X128825001Y-70659001D03*
X128825001Y-73199001D03*
%TD*%
D32*
%TO.C,C4*%
X179578000Y-49276000D03*
D15*
X179578000Y-51776000D03*
%TD*%
D32*
%TO.C,C1*%
X193548000Y-58364000D03*
D15*
X193548000Y-54864000D03*
%TD*%
D10*
%TO.C,D6*%
X149352000Y-98552000D03*
D11*
X149352000Y-103632000D03*
%TD*%
D10*
%TO.C,D7*%
X138938000Y-98298000D03*
D11*
X138938000Y-103378000D03*
%TD*%
%TO.C,D8*%
X127508000Y-103378000D03*
D10*
X127508000Y-98298000D03*
%TD*%
%TO.C,D9*%
X116078000Y-98298000D03*
D11*
X116078000Y-103378000D03*
%TD*%
%TO.C,D10*%
X102870000Y-103378000D03*
D10*
X102870000Y-98298000D03*
%TD*%
D11*
%TO.C,D11*%
X90932000Y-103632000D03*
D10*
X90932000Y-98552000D03*
%TD*%
%TO.C,D12*%
X98298000Y-82042000D03*
D11*
X93218000Y-82042000D03*
%TD*%
D31*
%TO.C,R12*%
X145288000Y-98552000D03*
D15*
X145288000Y-103632000D03*
%TD*%
%TO.C,R14*%
X134366000Y-103378000D03*
D31*
X134366000Y-98298000D03*
%TD*%
D15*
%TO.C,R16*%
X123190000Y-103378000D03*
D31*
X123190000Y-98298000D03*
%TD*%
D15*
%TO.C,R18*%
X111513001Y-103314999D03*
D31*
X111513001Y-98234999D03*
%TD*%
%TO.C,R20*%
X98865001Y-98532999D03*
D15*
X98865001Y-103612999D03*
%TD*%
D31*
%TO.C,R22*%
X86614000Y-98552000D03*
D15*
X86614000Y-103632000D03*
%TD*%
%TO.C,R24*%
X93218000Y-76962000D03*
D31*
X98298000Y-76962000D03*
%TD*%
D32*
%TO.C,C8*%
X159512000Y-65786000D03*
D15*
X159512000Y-63286000D03*
%TD*%
M02*
