%TF.GenerationSoftware,KiCad,Pcbnew,(5.1.9)-1*%
%TF.CreationDate,2022-01-12T17:44:04+01:00*%
%TF.ProjectId,Allarmino,416c6c61-726d-4696-9e6f-2e6b69636164,rev?*%
%TF.SameCoordinates,Original*%
%TF.FileFunction,Copper,L2,Bot*%
%TF.FilePolarity,Positive*%
%FSLAX46Y46*%
G04 Gerber Fmt 4.6, Leading zero omitted, Abs format (unit mm)*
G04 Created by KiCad (PCBNEW (5.1.9)-1) date 2022-01-12 17:44:04*
%MOMM*%
%LPD*%
G01*
G04 APERTURE LIST*
%TA.AperFunction,ComponentPad*%
%ADD10R,2.200000X2.200000*%
%TD*%
%TA.AperFunction,ComponentPad*%
%ADD11O,2.200000X2.200000*%
%TD*%
%TA.AperFunction,ComponentPad*%
%ADD12R,2.000000X2.000000*%
%TD*%
%TA.AperFunction,ComponentPad*%
%ADD13C,2.000000*%
%TD*%
%TA.AperFunction,ComponentPad*%
%ADD14C,6.000000*%
%TD*%
%TA.AperFunction,ComponentPad*%
%ADD15C,1.600000*%
%TD*%
%TA.AperFunction,ComponentPad*%
%ADD16O,8.000000X3.800000*%
%TD*%
%TA.AperFunction,ComponentPad*%
%ADD17R,3.960000X1.980000*%
%TD*%
%TA.AperFunction,ComponentPad*%
%ADD18O,3.960000X1.980000*%
%TD*%
%TA.AperFunction,ComponentPad*%
%ADD19R,1.980000X3.960000*%
%TD*%
%TA.AperFunction,ComponentPad*%
%ADD20O,1.980000X3.960000*%
%TD*%
%TA.AperFunction,ComponentPad*%
%ADD21R,1.700000X1.700000*%
%TD*%
%TA.AperFunction,ComponentPad*%
%ADD22O,1.700000X1.700000*%
%TD*%
%TA.AperFunction,ComponentPad*%
%ADD23O,2.500000X2.500000*%
%TD*%
%TA.AperFunction,ComponentPad*%
%ADD24R,2.500000X2.500000*%
%TD*%
%TA.AperFunction,ComponentPad*%
%ADD25C,1.800000*%
%TD*%
%TA.AperFunction,ComponentPad*%
%ADD26R,1.800000X1.800000*%
%TD*%
%TA.AperFunction,ComponentPad*%
%ADD27O,1.050000X1.500000*%
%TD*%
%TA.AperFunction,ComponentPad*%
%ADD28R,1.050000X1.500000*%
%TD*%
%TA.AperFunction,ComponentPad*%
%ADD29O,1.500000X1.050000*%
%TD*%
%TA.AperFunction,ComponentPad*%
%ADD30R,1.500000X1.050000*%
%TD*%
%TA.AperFunction,ComponentPad*%
%ADD31O,1.600000X1.600000*%
%TD*%
%TA.AperFunction,ComponentPad*%
%ADD32R,1.600000X1.600000*%
%TD*%
%TA.AperFunction,ComponentPad*%
%ADD33R,1.905000X2.000000*%
%TD*%
%TA.AperFunction,ComponentPad*%
%ADD34O,1.905000X2.000000*%
%TD*%
%TA.AperFunction,ViaPad*%
%ADD35C,0.800000*%
%TD*%
%TA.AperFunction,Conductor*%
%ADD36C,0.500000*%
%TD*%
%TA.AperFunction,Conductor*%
%ADD37C,1.500000*%
%TD*%
%TA.AperFunction,Conductor*%
%ADD38C,1.000000*%
%TD*%
%TA.AperFunction,Conductor*%
%ADD39C,0.250000*%
%TD*%
%TA.AperFunction,Conductor*%
%ADD40C,0.750000*%
%TD*%
G04 APERTURE END LIST*
D10*
%TO.P,D3,1*%
%TO.N,+3V3*%
X169672000Y-55880000D03*
D11*
%TO.P,D3,2*%
%TO.N,/D33*%
X159512000Y-55880000D03*
%TD*%
D12*
%TO.P,BZ1,1*%
%TO.N,Net-(BZ1-Pad1)*%
X93980000Y-62484000D03*
D13*
%TO.P,BZ1,2*%
%TO.N,GND*%
X101580000Y-62484000D03*
%TD*%
D14*
%TO.P,REF\u002A\u002A,1*%
%TO.N,GND*%
X170688000Y-41656000D03*
X196088000Y-41656000D03*
%TD*%
D15*
%TO.P,C2,1*%
%TO.N,+12V*%
X189564000Y-50292000D03*
%TO.P,C2,2*%
%TO.N,GND*%
X194564000Y-50292000D03*
%TD*%
%TO.P,C3,2*%
%TO.N,GND*%
X183388000Y-44704000D03*
%TO.P,C3,1*%
%TO.N,+5V*%
X178388000Y-44704000D03*
%TD*%
%TO.P,C5,1*%
%TO.N,Net-(C5-Pad1)*%
X170180000Y-78312000D03*
%TO.P,C5,2*%
%TO.N,GND*%
X170180000Y-83312000D03*
%TD*%
%TO.P,C6,1*%
%TO.N,Net-(C6-Pad1)*%
X163068000Y-92964000D03*
%TO.P,C6,2*%
%TO.N,GND*%
X168068000Y-92964000D03*
%TD*%
%TO.P,C7,2*%
%TO.N,GND*%
X162560000Y-96092000D03*
%TO.P,C7,1*%
%TO.N,Net-(C7-Pad1)*%
X162560000Y-101092000D03*
%TD*%
D10*
%TO.P,D1,1*%
%TO.N,+12V*%
X203708000Y-52832000D03*
D11*
%TO.P,D1,2*%
%TO.N,GND*%
X203708000Y-42672000D03*
%TD*%
%TO.P,D2,2*%
%TO.N,Net-(D2-Pad2)*%
X178308000Y-75184000D03*
D10*
%TO.P,D2,1*%
%TO.N,+12V*%
X178308000Y-65024000D03*
%TD*%
D11*
%TO.P,D4,2*%
%TO.N,Net-(D4-Pad2)*%
X178308000Y-94234000D03*
D10*
%TO.P,D4,1*%
%TO.N,+12V*%
X178308000Y-84074000D03*
%TD*%
%TO.P,D5,1*%
%TO.N,+12V*%
X178308000Y-100076000D03*
D11*
%TO.P,D5,2*%
%TO.N,Net-(D5-Pad2)*%
X178308000Y-110236000D03*
%TD*%
D16*
%TO.P,F1,1*%
%TO.N,+12V*%
X204568000Y-57912000D03*
%TO.P,F1,2*%
%TO.N,Net-(CN1-Pad1)*%
X213868000Y-57912000D03*
%TD*%
D17*
%TO.P,CN1,1*%
%TO.N,Net-(CN1-Pad1)*%
X212852000Y-50212000D03*
D18*
%TO.P,CN1,2*%
%TO.N,GND*%
X212852000Y-45212000D03*
%TD*%
D17*
%TO.P,CN2,1*%
%TO.N,Net-(CN2-Pad1)*%
X212852000Y-75532000D03*
D18*
%TO.P,CN2,2*%
%TO.N,Net-(CN2-Pad2)*%
X212852000Y-70532000D03*
%TO.P,CN2,3*%
%TO.N,Net-(CN2-Pad3)*%
X212852000Y-65532000D03*
%TD*%
D17*
%TO.P,CN3,1*%
%TO.N,Net-(CN3-Pad1)*%
X212852000Y-92456000D03*
D18*
%TO.P,CN3,2*%
%TO.N,Net-(CN3-Pad2)*%
X212852000Y-87456000D03*
%TO.P,CN3,3*%
%TO.N,Net-(CN3-Pad3)*%
X212852000Y-82456000D03*
%TD*%
%TO.P,CN4,3*%
%TO.N,Net-(CN4-Pad3)*%
X212852000Y-100076000D03*
%TO.P,CN4,2*%
%TO.N,Net-(CN4-Pad2)*%
X212852000Y-105076000D03*
D17*
%TO.P,CN4,1*%
%TO.N,Net-(CN4-Pad1)*%
X212852000Y-110076000D03*
%TD*%
D19*
%TO.P,CN9,1*%
%TO.N,Net-(CN9-Pad1)*%
X146304000Y-112522000D03*
D20*
%TO.P,CN9,2*%
%TO.N,Net-(CN9-Pad2)*%
X151304000Y-112522000D03*
%TD*%
%TO.P,CN10,2*%
%TO.N,Net-(CN10-Pad2)*%
X140128000Y-112522000D03*
D19*
%TO.P,CN10,1*%
%TO.N,Net-(CN10-Pad1)*%
X135128000Y-112522000D03*
%TD*%
%TO.P,CN11,1*%
%TO.N,Net-(CN11-Pad1)*%
X123778000Y-112522000D03*
D20*
%TO.P,CN11,2*%
%TO.N,Net-(CN11-Pad2)*%
X128778000Y-112522000D03*
%TD*%
D19*
%TO.P,CN12,1*%
%TO.N,Net-(CN12-Pad1)*%
X112522000Y-112522000D03*
D20*
%TO.P,CN12,2*%
%TO.N,Net-(CN12-Pad2)*%
X117522000Y-112522000D03*
%TD*%
%TO.P,CN13,2*%
%TO.N,Net-(CN13-Pad2)*%
X104568000Y-112522000D03*
D19*
%TO.P,CN13,1*%
%TO.N,Net-(CN13-Pad1)*%
X99568000Y-112522000D03*
%TD*%
D20*
%TO.P,CN14,2*%
%TO.N,Net-(CN14-Pad2)*%
X92202000Y-112776000D03*
D19*
%TO.P,CN14,1*%
%TO.N,Net-(CN14-Pad1)*%
X87202000Y-112776000D03*
%TD*%
D18*
%TO.P,CN15,2*%
%TO.N,Net-(CN15-Pad2)*%
X84582000Y-81788000D03*
D17*
%TO.P,CN15,1*%
%TO.N,Net-(CN15-Pad1)*%
X84582000Y-76788000D03*
%TD*%
D21*
%TO.P,CN7,1*%
%TO.N,+3V3*%
X101600000Y-38100000D03*
D22*
%TO.P,CN7,2*%
%TO.N,SDA*%
X101600000Y-40640000D03*
%TO.P,CN7,3*%
%TO.N,SCL*%
X99060000Y-38100000D03*
%TO.P,CN7,4*%
%TO.N,GND*%
X99060000Y-40640000D03*
%TD*%
%TO.P,CN5,6*%
%TO.N,GND*%
X114808000Y-43180000D03*
%TO.P,CN5,5*%
%TO.N,CS1*%
X112268000Y-43180000D03*
%TO.P,CN5,4*%
%TO.N,CLK*%
X114808000Y-40640000D03*
%TO.P,CN5,3*%
%TO.N,MISO*%
X112268000Y-40640000D03*
%TO.P,CN5,2*%
%TO.N,MOSI*%
X114808000Y-38100000D03*
D21*
%TO.P,CN5,1*%
%TO.N,+3V3*%
X112268000Y-38100000D03*
%TD*%
%TO.P,CN6,1*%
%TO.N,+3V3*%
X120396000Y-38100000D03*
D22*
%TO.P,CN6,2*%
%TO.N,MOSI*%
X122936000Y-38100000D03*
%TO.P,CN6,3*%
%TO.N,MISO*%
X120396000Y-40640000D03*
%TO.P,CN6,4*%
%TO.N,CLK*%
X122936000Y-40640000D03*
%TO.P,CN6,5*%
%TO.N,CS2*%
X120396000Y-43180000D03*
%TO.P,CN6,6*%
%TO.N,GND*%
X122936000Y-43180000D03*
%TD*%
D21*
%TO.P,CN8,1*%
%TO.N,/TX0*%
X88392000Y-50800000D03*
D22*
%TO.P,CN8,2*%
%TO.N,/RX0*%
X88392000Y-48260000D03*
%TO.P,CN8,3*%
%TO.N,/CTS_UART*%
X88392000Y-45720000D03*
%TO.P,CN8,4*%
%TO.N,/RTS_UART*%
X88392000Y-43180000D03*
%TO.P,CN8,5*%
%TO.N,+3V3*%
X88392000Y-40640000D03*
%TO.P,CN8,6*%
%TO.N,GND*%
X88392000Y-38100000D03*
%TD*%
%TO.P,JP1,2*%
%TO.N,GND*%
X107696000Y-89154000D03*
D21*
%TO.P,JP1,1*%
%TO.N,/D14*%
X107696000Y-86614000D03*
%TD*%
%TO.P,JP2,1*%
%TO.N,CONFIG_JMP*%
X120396000Y-72644000D03*
D22*
%TO.P,JP2,2*%
%TO.N,+3V3*%
X117856000Y-72644000D03*
%TD*%
D21*
%TO.P,JP3,1*%
%TO.N,Net-(JP3-Pad1)*%
X101092000Y-72136000D03*
D22*
%TO.P,JP3,2*%
%TO.N,BUZZER*%
X103632000Y-72136000D03*
%TD*%
D23*
%TO.P,RL1,5*%
%TO.N,Net-(D2-Pad2)*%
X185388000Y-64516000D03*
%TO.P,RL1,4*%
%TO.N,Net-(CN2-Pad3)*%
X197588000Y-64516000D03*
%TO.P,RL1,3*%
%TO.N,Net-(CN2-Pad1)*%
X197588000Y-76516000D03*
%TO.P,RL1,2*%
%TO.N,+12V*%
X185388000Y-76516000D03*
D24*
%TO.P,RL1,1*%
%TO.N,Net-(CN2-Pad2)*%
X183388000Y-70516000D03*
%TD*%
%TO.P,RL2,1*%
%TO.N,Net-(CN3-Pad2)*%
X183420000Y-87788000D03*
D23*
%TO.P,RL2,2*%
%TO.N,+12V*%
X185420000Y-93788000D03*
%TO.P,RL2,3*%
%TO.N,Net-(CN3-Pad1)*%
X197620000Y-93788000D03*
%TO.P,RL2,4*%
%TO.N,Net-(CN3-Pad3)*%
X197620000Y-81788000D03*
%TO.P,RL2,5*%
%TO.N,Net-(D4-Pad2)*%
X185420000Y-81788000D03*
%TD*%
D24*
%TO.P,RL3,1*%
%TO.N,Net-(CN4-Pad2)*%
X183388000Y-105664000D03*
D23*
%TO.P,RL3,2*%
%TO.N,+12V*%
X185388000Y-111664000D03*
%TO.P,RL3,3*%
%TO.N,Net-(CN4-Pad1)*%
X197588000Y-111664000D03*
%TO.P,RL3,4*%
%TO.N,Net-(CN4-Pad3)*%
X197588000Y-99664000D03*
%TO.P,RL3,5*%
%TO.N,Net-(D5-Pad2)*%
X185388000Y-99664000D03*
%TD*%
D25*
%TO.P,LD1,2*%
%TO.N,+12V*%
X175768000Y-60960000D03*
D26*
%TO.P,LD1,1*%
%TO.N,Net-(LD1-Pad1)*%
X173228000Y-60960000D03*
%TD*%
%TO.P,LD2,1*%
%TO.N,Net-(LD2-Pad1)*%
X174244000Y-88392000D03*
D25*
%TO.P,LD2,2*%
%TO.N,+12V*%
X174244000Y-85852000D03*
%TD*%
D26*
%TO.P,LD3,1*%
%TO.N,Net-(LD3-Pad1)*%
X170180000Y-104140000D03*
D25*
%TO.P,LD3,2*%
%TO.N,+12V*%
X170180000Y-106680000D03*
%TD*%
%TO.P,LD4,2*%
%TO.N,/D2*%
X124460000Y-51562000D03*
D26*
%TO.P,LD4,1*%
%TO.N,Net-(LD4-Pad1)*%
X121920000Y-51562000D03*
%TD*%
%TO.P,LD5,1*%
%TO.N,Net-(LD5-Pad1)*%
X116332000Y-51562000D03*
D25*
%TO.P,LD5,2*%
%TO.N,/D15*%
X118872000Y-51562000D03*
%TD*%
D27*
%TO.P,T1,2*%
%TO.N,Net-(C5-Pad1)*%
X175260000Y-79756000D03*
%TO.P,T1,3*%
%TO.N,GND*%
X173990000Y-79756000D03*
D28*
%TO.P,T1,1*%
%TO.N,Net-(D2-Pad2)*%
X176530000Y-79756000D03*
%TD*%
D29*
%TO.P,T2,2*%
%TO.N,Net-(C6-Pad1)*%
X169672000Y-97282000D03*
%TO.P,T2,3*%
%TO.N,GND*%
X169672000Y-96012000D03*
D30*
%TO.P,T2,1*%
%TO.N,Net-(D4-Pad2)*%
X169672000Y-98552000D03*
%TD*%
%TO.P,T3,1*%
%TO.N,Net-(D5-Pad2)*%
X165100000Y-106680000D03*
D29*
%TO.P,T3,3*%
%TO.N,GND*%
X165100000Y-104140000D03*
%TO.P,T3,2*%
%TO.N,Net-(C7-Pad1)*%
X165100000Y-105410000D03*
%TD*%
D15*
%TO.P,R1,1*%
%TO.N,Net-(C5-Pad1)*%
X166624000Y-75692000D03*
D31*
%TO.P,R1,2*%
%TO.N,GND*%
X166624000Y-85852000D03*
%TD*%
D15*
%TO.P,R2,1*%
%TO.N,Net-(LD1-Pad1)*%
X173228000Y-65532000D03*
D31*
%TO.P,R2,2*%
%TO.N,Net-(D2-Pad2)*%
X173228000Y-75692000D03*
%TD*%
%TO.P,R3,2*%
%TO.N,+3V3*%
X164592000Y-59436000D03*
D15*
%TO.P,R3,1*%
%TO.N,Net-(C5-Pad1)*%
X164592000Y-69596000D03*
%TD*%
%TO.P,R4,1*%
%TO.N,Net-(C5-Pad1)*%
X168148000Y-69596000D03*
D31*
%TO.P,R4,2*%
%TO.N,/D33*%
X168148000Y-59436000D03*
%TD*%
D15*
%TO.P,R5,1*%
%TO.N,Net-(LD2-Pad1)*%
X174244000Y-90932000D03*
D31*
%TO.P,R5,2*%
%TO.N,Net-(D4-Pad2)*%
X174244000Y-101092000D03*
%TD*%
%TO.P,R6,2*%
%TO.N,GND*%
X168148000Y-89408000D03*
D15*
%TO.P,R6,1*%
%TO.N,Net-(C6-Pad1)*%
X157988000Y-89408000D03*
%TD*%
%TO.P,R7,1*%
%TO.N,/D25*%
X161544000Y-76200000D03*
D31*
%TO.P,R7,2*%
%TO.N,Net-(C6-Pad1)*%
X161544000Y-86360000D03*
%TD*%
%TO.P,R8,2*%
%TO.N,Net-(D5-Pad2)*%
X174244000Y-114300000D03*
D15*
%TO.P,R8,1*%
%TO.N,Net-(LD3-Pad1)*%
X174244000Y-104140000D03*
%TD*%
D31*
%TO.P,R9,2*%
%TO.N,GND*%
X159004000Y-96012000D03*
D15*
%TO.P,R9,1*%
%TO.N,Net-(C7-Pad1)*%
X159004000Y-106172000D03*
%TD*%
D31*
%TO.P,R10,2*%
%TO.N,Net-(C7-Pad1)*%
X157480000Y-86360000D03*
D15*
%TO.P,R10,1*%
%TO.N,/D12*%
X157480000Y-76200000D03*
%TD*%
%TO.P,R11,1*%
%TO.N,/D27*%
X142240000Y-81534000D03*
D31*
%TO.P,R11,2*%
%TO.N,+3V3*%
X152400000Y-81534000D03*
%TD*%
D15*
%TO.P,R13,1*%
%TO.N,/D26*%
X142240000Y-84582000D03*
D31*
%TO.P,R13,2*%
%TO.N,+3V3*%
X152400000Y-84582000D03*
%TD*%
%TO.P,R15,2*%
%TO.N,+3V3*%
X128016000Y-81534000D03*
D15*
%TO.P,R15,1*%
%TO.N,/D35*%
X138176000Y-81534000D03*
%TD*%
D31*
%TO.P,R17,2*%
%TO.N,+3V3*%
X128016000Y-84582000D03*
D15*
%TO.P,R17,1*%
%TO.N,/D34*%
X138176000Y-84582000D03*
%TD*%
%TO.P,R19,1*%
%TO.N,/D14*%
X114808000Y-84582000D03*
D31*
%TO.P,R19,2*%
%TO.N,+3V3*%
X124968000Y-84582000D03*
%TD*%
%TO.P,R21,2*%
%TO.N,+3V3*%
X124968000Y-81534000D03*
D15*
%TO.P,R21,1*%
%TO.N,/D13*%
X114808000Y-81534000D03*
%TD*%
%TO.P,R23,1*%
%TO.N,/D32*%
X114808000Y-78486000D03*
D31*
%TO.P,R23,2*%
%TO.N,+3V3*%
X124968000Y-78486000D03*
%TD*%
%TO.P,R25,2*%
%TO.N,Net-(JP3-Pad1)*%
X93980000Y-70612000D03*
D15*
%TO.P,R25,1*%
%TO.N,Net-(BZ1-Pad1)*%
X83820000Y-70612000D03*
%TD*%
%TO.P,R26,1*%
%TO.N,GND*%
X86360000Y-55118000D03*
D31*
%TO.P,R26,2*%
%TO.N,Net-(BZ1-Pad1)*%
X86360000Y-65278000D03*
%TD*%
D15*
%TO.P,R27,1*%
%TO.N,GND*%
X106680000Y-68072000D03*
D31*
%TO.P,R27,2*%
%TO.N,CONFIG_JMP*%
X116840000Y-68072000D03*
%TD*%
D15*
%TO.P,R28,1*%
%TO.N,GND*%
X109728000Y-61468000D03*
D31*
%TO.P,R28,2*%
%TO.N,Net-(LD4-Pad1)*%
X119888000Y-61468000D03*
%TD*%
D15*
%TO.P,R29,1*%
%TO.N,GND*%
X106426000Y-58166000D03*
D31*
%TO.P,R29,2*%
%TO.N,Net-(LD5-Pad1)*%
X116586000Y-58166000D03*
%TD*%
%TO.P,R30,2*%
%TO.N,+3V3*%
X94488000Y-37084000D03*
D15*
%TO.P,R30,1*%
%TO.N,SCL*%
X94488000Y-47244000D03*
%TD*%
D31*
%TO.P,R31,2*%
%TO.N,SCL*%
X98298000Y-44450000D03*
D15*
%TO.P,R31,1*%
%TO.N,GND*%
X98298000Y-54610000D03*
%TD*%
%TO.P,R32,1*%
%TO.N,+3V3*%
X106680000Y-35814000D03*
D31*
%TO.P,R32,2*%
%TO.N,SDA*%
X106680000Y-45974000D03*
%TD*%
%TO.P,R33,2*%
%TO.N,GND*%
X102108000Y-54610000D03*
D15*
%TO.P,R33,1*%
%TO.N,SDA*%
X102108000Y-44450000D03*
%TD*%
D22*
%TO.P,U1,15*%
%TO.N,/EN*%
X153924000Y-73199001D03*
%TO.P,U1,14*%
%TO.N,/VP*%
X153924000Y-70659001D03*
%TO.P,U1,13*%
%TO.N,/VN*%
X153924000Y-68119001D03*
%TO.P,U1,12*%
%TO.N,/D34*%
X153924000Y-65579001D03*
%TO.P,U1,11*%
%TO.N,/D35*%
X153924000Y-63039001D03*
%TO.P,U1,10*%
%TO.N,/D32*%
X153924000Y-60499001D03*
%TO.P,U1,9*%
%TO.N,/D33*%
X153924000Y-57959001D03*
%TO.P,U1,8*%
%TO.N,/D25*%
X153924000Y-55419001D03*
%TO.P,U1,7*%
%TO.N,/D26*%
X153924000Y-52879001D03*
%TO.P,U1,6*%
%TO.N,/D27*%
X153924000Y-50339001D03*
%TO.P,U1,5*%
%TO.N,/D14*%
X153924000Y-47799001D03*
%TO.P,U1,4*%
%TO.N,/D12*%
X153924000Y-45259001D03*
%TO.P,U1,3*%
%TO.N,/D13*%
X153924000Y-42719001D03*
%TO.P,U1,2*%
%TO.N,GND*%
X153924000Y-40179001D03*
D21*
%TO.P,U1,1*%
%TO.N,+5V*%
X153924000Y-37639001D03*
%TD*%
D31*
%TO.P,U2,6*%
%TO.N,Net-(U2-Pad6)*%
X145288000Y-87884000D03*
%TO.P,U2,3*%
%TO.N,Net-(U2-Pad3)*%
X150368000Y-95504000D03*
%TO.P,U2,5*%
%TO.N,/D27*%
X147828000Y-87884000D03*
%TO.P,U2,2*%
%TO.N,Net-(CN9-Pad2)*%
X147828000Y-95504000D03*
%TO.P,U2,4*%
%TO.N,GND*%
X150368000Y-87884000D03*
D32*
%TO.P,U2,1*%
%TO.N,Net-(D6-Pad1)*%
X145288000Y-95504000D03*
%TD*%
%TO.P,U3,1*%
%TO.N,Net-(D7-Pad1)*%
X134366000Y-95504000D03*
D31*
%TO.P,U3,4*%
%TO.N,GND*%
X139446000Y-87884000D03*
%TO.P,U3,2*%
%TO.N,Net-(CN10-Pad2)*%
X136906000Y-95504000D03*
%TO.P,U3,5*%
%TO.N,/D26*%
X136906000Y-87884000D03*
%TO.P,U3,3*%
%TO.N,Net-(U3-Pad3)*%
X139446000Y-95504000D03*
%TO.P,U3,6*%
%TO.N,Net-(U3-Pad6)*%
X134366000Y-87884000D03*
%TD*%
D32*
%TO.P,U4,1*%
%TO.N,Net-(D8-Pad1)*%
X123190000Y-95504000D03*
D31*
%TO.P,U4,4*%
%TO.N,GND*%
X128270000Y-87884000D03*
%TO.P,U4,2*%
%TO.N,Net-(CN11-Pad2)*%
X125730000Y-95504000D03*
%TO.P,U4,5*%
%TO.N,/D35*%
X125730000Y-87884000D03*
%TO.P,U4,3*%
%TO.N,Net-(U4-Pad3)*%
X128270000Y-95504000D03*
%TO.P,U4,6*%
%TO.N,Net-(U4-Pad6)*%
X123190000Y-87884000D03*
%TD*%
D32*
%TO.P,U5,1*%
%TO.N,Net-(D9-Pad1)*%
X111506000Y-95504000D03*
D31*
%TO.P,U5,4*%
%TO.N,GND*%
X116586000Y-87884000D03*
%TO.P,U5,2*%
%TO.N,Net-(CN12-Pad2)*%
X114046000Y-95504000D03*
%TO.P,U5,5*%
%TO.N,/D34*%
X114046000Y-87884000D03*
%TO.P,U5,3*%
%TO.N,Net-(U5-Pad3)*%
X116586000Y-95504000D03*
%TO.P,U5,6*%
%TO.N,Net-(U5-Pad6)*%
X111506000Y-87884000D03*
%TD*%
%TO.P,U6,6*%
%TO.N,Net-(U6-Pad6)*%
X98806000Y-87884000D03*
%TO.P,U6,3*%
%TO.N,Net-(U6-Pad3)*%
X103886000Y-95504000D03*
%TO.P,U6,5*%
%TO.N,/D14*%
X101346000Y-87884000D03*
%TO.P,U6,2*%
%TO.N,Net-(CN13-Pad2)*%
X101346000Y-95504000D03*
%TO.P,U6,4*%
%TO.N,GND*%
X103886000Y-87884000D03*
D32*
%TO.P,U6,1*%
%TO.N,Net-(D10-Pad1)*%
X98806000Y-95504000D03*
%TD*%
%TO.P,U7,1*%
%TO.N,Net-(D11-Pad1)*%
X86614000Y-95504000D03*
D31*
%TO.P,U7,4*%
%TO.N,GND*%
X91694000Y-87884000D03*
%TO.P,U7,2*%
%TO.N,Net-(CN14-Pad2)*%
X89154000Y-95504000D03*
%TO.P,U7,5*%
%TO.N,/D13*%
X89154000Y-87884000D03*
%TO.P,U7,3*%
%TO.N,Net-(U7-Pad3)*%
X91694000Y-95504000D03*
%TO.P,U7,6*%
%TO.N,Net-(U7-Pad6)*%
X86614000Y-87884000D03*
%TD*%
%TO.P,U8,6*%
%TO.N,Net-(U8-Pad6)*%
X109220000Y-77724000D03*
%TO.P,U8,3*%
%TO.N,Net-(U8-Pad3)*%
X101600000Y-82804000D03*
%TO.P,U8,5*%
%TO.N,/D32*%
X109220000Y-80264000D03*
%TO.P,U8,2*%
%TO.N,Net-(CN15-Pad2)*%
X101600000Y-80264000D03*
%TO.P,U8,4*%
%TO.N,GND*%
X109220000Y-82804000D03*
D32*
%TO.P,U8,1*%
%TO.N,Net-(D12-Pad1)*%
X101600000Y-77724000D03*
%TD*%
D33*
%TO.P,U9,1*%
%TO.N,+12V*%
X185928000Y-38100000D03*
D34*
%TO.P,U9,2*%
%TO.N,GND*%
X183388000Y-38100000D03*
%TO.P,U9,3*%
%TO.N,+5V*%
X180848000Y-38100000D03*
%TD*%
D21*
%TO.P,U_1,1*%
%TO.N,+3V3*%
X128825001Y-37639001D03*
D22*
%TO.P,U_1,2*%
%TO.N,GND*%
X128825001Y-40179001D03*
%TO.P,U_1,3*%
%TO.N,/D15*%
X128825001Y-42719001D03*
%TO.P,U_1,4*%
%TO.N,/D2*%
X128825001Y-45259001D03*
%TO.P,U_1,5*%
%TO.N,CS2*%
X128825001Y-47799001D03*
%TO.P,U_1,6*%
%TO.N,CONFIG_JMP*%
X128825001Y-50339001D03*
%TO.P,U_1,7*%
%TO.N,BUZZER*%
X128825001Y-52879001D03*
%TO.P,U_1,8*%
%TO.N,CS1*%
X128825001Y-55419001D03*
%TO.P,U_1,9*%
%TO.N,CLK*%
X128825001Y-57959001D03*
%TO.P,U_1,10*%
%TO.N,MISO*%
X128825001Y-60499001D03*
%TO.P,U_1,11*%
%TO.N,SDA*%
X128825001Y-63039001D03*
%TO.P,U_1,12*%
%TO.N,/RX0*%
X128825001Y-65579001D03*
%TO.P,U_1,13*%
%TO.N,/TX0*%
X128825001Y-68119001D03*
%TO.P,U_1,14*%
%TO.N,SCL*%
X128825001Y-70659001D03*
%TO.P,U_1,15*%
%TO.N,MOSI*%
X128825001Y-73199001D03*
%TD*%
D32*
%TO.P,C4,1*%
%TO.N,+5V*%
X179578000Y-49276000D03*
D15*
%TO.P,C4,2*%
%TO.N,GND*%
X179578000Y-51776000D03*
%TD*%
D32*
%TO.P,C1,1*%
%TO.N,+12V*%
X193548000Y-58364000D03*
D15*
%TO.P,C1,2*%
%TO.N,GND*%
X193548000Y-54864000D03*
%TD*%
D10*
%TO.P,D6,1*%
%TO.N,Net-(D6-Pad1)*%
X149352000Y-98552000D03*
D11*
%TO.P,D6,2*%
%TO.N,Net-(CN9-Pad2)*%
X149352000Y-103632000D03*
%TD*%
D10*
%TO.P,D7,1*%
%TO.N,Net-(D7-Pad1)*%
X138938000Y-98298000D03*
D11*
%TO.P,D7,2*%
%TO.N,Net-(CN10-Pad2)*%
X138938000Y-103378000D03*
%TD*%
%TO.P,D8,2*%
%TO.N,Net-(CN11-Pad2)*%
X127508000Y-103378000D03*
D10*
%TO.P,D8,1*%
%TO.N,Net-(D8-Pad1)*%
X127508000Y-98298000D03*
%TD*%
%TO.P,D9,1*%
%TO.N,Net-(D9-Pad1)*%
X116078000Y-98298000D03*
D11*
%TO.P,D9,2*%
%TO.N,Net-(CN12-Pad2)*%
X116078000Y-103378000D03*
%TD*%
%TO.P,D10,2*%
%TO.N,Net-(CN13-Pad2)*%
X102870000Y-103378000D03*
D10*
%TO.P,D10,1*%
%TO.N,Net-(D10-Pad1)*%
X102870000Y-98298000D03*
%TD*%
D11*
%TO.P,D11,2*%
%TO.N,Net-(CN14-Pad2)*%
X90932000Y-103632000D03*
D10*
%TO.P,D11,1*%
%TO.N,Net-(D11-Pad1)*%
X90932000Y-98552000D03*
%TD*%
%TO.P,D12,1*%
%TO.N,Net-(D12-Pad1)*%
X98298000Y-82042000D03*
D11*
%TO.P,D12,2*%
%TO.N,Net-(CN15-Pad2)*%
X93218000Y-82042000D03*
%TD*%
D31*
%TO.P,R12,2*%
%TO.N,Net-(D6-Pad1)*%
X145288000Y-98552000D03*
D15*
%TO.P,R12,1*%
%TO.N,Net-(CN9-Pad1)*%
X145288000Y-103632000D03*
%TD*%
%TO.P,R14,1*%
%TO.N,Net-(CN10-Pad1)*%
X134366000Y-103378000D03*
D31*
%TO.P,R14,2*%
%TO.N,Net-(D7-Pad1)*%
X134366000Y-98298000D03*
%TD*%
D15*
%TO.P,R16,1*%
%TO.N,Net-(CN11-Pad1)*%
X123190000Y-103378000D03*
D31*
%TO.P,R16,2*%
%TO.N,Net-(D8-Pad1)*%
X123190000Y-98298000D03*
%TD*%
D15*
%TO.P,R18,1*%
%TO.N,Net-(CN12-Pad1)*%
X111513001Y-103314999D03*
D31*
%TO.P,R18,2*%
%TO.N,Net-(D9-Pad1)*%
X111513001Y-98234999D03*
%TD*%
%TO.P,R20,2*%
%TO.N,Net-(D10-Pad1)*%
X98865001Y-98532999D03*
D15*
%TO.P,R20,1*%
%TO.N,Net-(CN13-Pad1)*%
X98865001Y-103612999D03*
%TD*%
D31*
%TO.P,R22,2*%
%TO.N,Net-(D11-Pad1)*%
X86614000Y-98552000D03*
D15*
%TO.P,R22,1*%
%TO.N,Net-(CN14-Pad1)*%
X86614000Y-103632000D03*
%TD*%
%TO.P,R24,1*%
%TO.N,Net-(CN15-Pad1)*%
X93218000Y-76962000D03*
D31*
%TO.P,R24,2*%
%TO.N,Net-(D12-Pad1)*%
X98298000Y-76962000D03*
%TD*%
D32*
%TO.P,C8,1*%
%TO.N,/EN*%
X159512000Y-65786000D03*
D15*
%TO.P,C8,2*%
%TO.N,GND*%
X159512000Y-63286000D03*
%TD*%
D35*
%TO.N,GND*%
X163576000Y-57150000D03*
%TO.N,CLK*%
X126492000Y-54610000D03*
%TD*%
D36*
%TO.N,Net-(BZ1-Pad1)*%
X89154000Y-62484000D02*
X86360000Y-65278000D01*
X93980000Y-62484000D02*
X89154000Y-62484000D01*
X86360000Y-68072000D02*
X83820000Y-70612000D01*
X86360000Y-65278000D02*
X86360000Y-68072000D01*
D37*
%TO.N,GND*%
X183388000Y-38100000D02*
X183388000Y-44704000D01*
X179578000Y-51776000D02*
X181650000Y-51776000D01*
X183388000Y-50038000D02*
X183388000Y-44704000D01*
X181650000Y-51776000D02*
X183388000Y-50038000D01*
D38*
X153320000Y-40179001D02*
X169211001Y-40179001D01*
X187960000Y-54864000D02*
X193548000Y-54864000D01*
X185007998Y-54864000D02*
X187960000Y-54864000D01*
X175768000Y-64103998D02*
X185007998Y-54864000D01*
X174034990Y-77933010D02*
X175768000Y-76200000D01*
X175768000Y-76200000D02*
X175768000Y-64103998D01*
X174034990Y-79457010D02*
X174034990Y-77933010D01*
X173990000Y-79502000D02*
X174034990Y-79457010D01*
X173990000Y-79756000D02*
X173990000Y-79502000D01*
D39*
X169164000Y-83312000D02*
X170180000Y-83312000D01*
X166624000Y-85852000D02*
X169164000Y-83312000D01*
X172720000Y-79756000D02*
X170180000Y-82296000D01*
X173990000Y-79756000D02*
X172720000Y-79756000D01*
X170180000Y-83312000D02*
X170180000Y-82296000D01*
D38*
X169672000Y-86868000D02*
X169672000Y-96012000D01*
X173990000Y-82550000D02*
X169672000Y-86868000D01*
X173990000Y-79756000D02*
X173990000Y-82550000D01*
D39*
X168068000Y-89488000D02*
X168148000Y-89408000D01*
X168068000Y-92964000D02*
X168068000Y-89488000D01*
X169672000Y-96012000D02*
X168656000Y-96012000D01*
X168068000Y-95424000D02*
X168068000Y-92964000D01*
X168656000Y-96012000D02*
X168068000Y-95424000D01*
X162480000Y-96012000D02*
X162560000Y-96092000D01*
X159004000Y-96012000D02*
X162480000Y-96012000D01*
X165100000Y-98632000D02*
X165100000Y-104140000D01*
X162560000Y-96092000D02*
X165100000Y-98632000D01*
D36*
X105918000Y-58166000D02*
X106172000Y-58166000D01*
X102108000Y-54356000D02*
X105918000Y-58166000D01*
X109728000Y-61468000D02*
X109474000Y-61468000D01*
X109982000Y-61722000D02*
X109728000Y-61468000D01*
X108712000Y-82804000D02*
X109220000Y-82804000D01*
X86360000Y-55118000D02*
X89662000Y-55118000D01*
X89662000Y-55118000D02*
X93472000Y-58928000D01*
X98024000Y-58928000D02*
X101580000Y-62484000D01*
X93472000Y-58928000D02*
X98024000Y-58928000D01*
X101854000Y-62484000D02*
X101580000Y-62484000D01*
X88392000Y-38100000D02*
X86614000Y-38100000D01*
X86360000Y-38354000D02*
X86360000Y-55118000D01*
X86614000Y-38100000D02*
X86360000Y-38354000D01*
X88392000Y-38100000D02*
X90678000Y-38100000D01*
X93218000Y-40640000D02*
X99060000Y-40640000D01*
X90678000Y-38100000D02*
X93218000Y-40640000D01*
X128825001Y-40179001D02*
X126698999Y-40179001D01*
X123698000Y-43180000D02*
X122936000Y-43180000D01*
X126698999Y-40179001D02*
X123698000Y-43180000D01*
D38*
X128825001Y-40179001D02*
X153320000Y-40179001D01*
D36*
X106172000Y-58166000D02*
X108204000Y-58166000D01*
X109728000Y-59690000D02*
X109728000Y-61468000D01*
X108204000Y-58166000D02*
X109728000Y-59690000D01*
X106172000Y-67564000D02*
X106680000Y-68072000D01*
X106172000Y-58166000D02*
X106172000Y-67564000D01*
X102108000Y-54610000D02*
X98298000Y-54610000D01*
X170434000Y-50292000D02*
X163576000Y-57150000D01*
X170688000Y-50038000D02*
X170434000Y-50292000D01*
X170688000Y-41656000D02*
X170688000Y-50038000D01*
D40*
%TO.N,+12V*%
X178308000Y-65024000D02*
X178308000Y-72136000D01*
X178308000Y-72136000D02*
X180848000Y-74676000D01*
X180848000Y-74676000D02*
X180848000Y-79248000D01*
X183388000Y-81788000D02*
X185420000Y-81788000D01*
X180848000Y-79248000D02*
X183388000Y-81788000D01*
X183388000Y-83820000D02*
X185420000Y-81788000D01*
X178308000Y-83820000D02*
X183388000Y-83820000D01*
X176276000Y-85852000D02*
X178308000Y-83820000D01*
X174244000Y-85852000D02*
X176276000Y-85852000D01*
X178308000Y-100076000D02*
X179324000Y-100076000D01*
X179324000Y-100076000D02*
X180340000Y-101092000D01*
X183960000Y-101092000D02*
X185388000Y-99664000D01*
X180340000Y-101092000D02*
X183960000Y-101092000D01*
X170180000Y-106680000D02*
X175260000Y-106680000D01*
X178308000Y-103632000D02*
X178308000Y-100076000D01*
X175260000Y-106680000D02*
X178308000Y-103632000D01*
X182976000Y-99664000D02*
X185388000Y-99664000D01*
X180848000Y-92202000D02*
X180848000Y-97536000D01*
X180848000Y-97536000D02*
X182976000Y-99664000D01*
X178308000Y-89662000D02*
X180848000Y-92202000D01*
X178308000Y-83820000D02*
X178308000Y-89662000D01*
D37*
%TO.N,+5V*%
X180848000Y-38100000D02*
X179578000Y-38100000D01*
X178388000Y-39290000D02*
X178388000Y-44704000D01*
X179578000Y-38100000D02*
X178388000Y-39290000D01*
D38*
X173529001Y-37639001D02*
X175768000Y-39878000D01*
X175768000Y-39878000D02*
X175768000Y-47752000D01*
X177292000Y-49276000D02*
X179578000Y-49276000D01*
X175768000Y-47752000D02*
X177292000Y-49276000D01*
D37*
X179578000Y-45894000D02*
X178388000Y-44704000D01*
X179578000Y-49276000D02*
X179578000Y-45894000D01*
D38*
X173529001Y-37639001D02*
X153924000Y-37639001D01*
D39*
%TO.N,Net-(C5-Pad1)*%
X166624000Y-75692000D02*
X166624000Y-77216000D01*
X167720000Y-78312000D02*
X170180000Y-78312000D01*
X166624000Y-77216000D02*
X167720000Y-78312000D01*
X168148000Y-69596000D02*
X168148000Y-71628000D01*
X166624000Y-73152000D02*
X166624000Y-75692000D01*
X168148000Y-71628000D02*
X166624000Y-73152000D01*
X168148000Y-69596000D02*
X164592000Y-69596000D01*
%TO.N,Net-(C6-Pad1)*%
X169672000Y-97282000D02*
X167386000Y-97282000D01*
X167386000Y-97282000D02*
X163068000Y-92964000D01*
X157988000Y-89408000D02*
X160528000Y-89408000D01*
X163068000Y-91948000D02*
X163068000Y-92964000D01*
X160528000Y-89408000D02*
X163068000Y-91948000D01*
X161544000Y-86360000D02*
X160274000Y-86360000D01*
X157988000Y-88646000D02*
X157988000Y-89408000D01*
X160274000Y-86360000D02*
X157988000Y-88646000D01*
%TO.N,Net-(C7-Pad1)*%
X165100000Y-105410000D02*
X163322000Y-105410000D01*
X162560000Y-104648000D02*
X162560000Y-101092000D01*
X163322000Y-105410000D02*
X162560000Y-104648000D01*
X159004000Y-106172000D02*
X159004000Y-102616000D01*
X160528000Y-101092000D02*
X162560000Y-101092000D01*
X159004000Y-102616000D02*
X160528000Y-101092000D01*
X157480000Y-85852000D02*
X155956000Y-87376000D01*
X155956000Y-103124000D02*
X159004000Y-106172000D01*
X155956000Y-87376000D02*
X155956000Y-103124000D01*
D38*
%TO.N,Net-(D2-Pad2)*%
X178308000Y-75184000D02*
X178308000Y-79248000D01*
X177800000Y-79756000D02*
X176530000Y-79756000D01*
X178308000Y-79248000D02*
X177800000Y-79756000D01*
D36*
%TO.N,+3V3*%
X120396000Y-38100000D02*
X120396000Y-36068000D01*
X128825001Y-37639001D02*
X128571001Y-37639001D01*
X128571001Y-37639001D02*
X126492000Y-35560000D01*
X120904000Y-35560000D02*
X120396000Y-36068000D01*
X126492000Y-35560000D02*
X120904000Y-35560000D01*
X112268000Y-38100000D02*
X112268000Y-37084000D01*
X112268000Y-37084000D02*
X113792000Y-35560000D01*
X117856000Y-35560000D02*
X120396000Y-38100000D01*
X113792000Y-35560000D02*
X117856000Y-35560000D01*
X101600000Y-38100000D02*
X101600000Y-37592000D01*
X94488000Y-37084000D02*
X96012000Y-35560000D01*
X96012000Y-35560000D02*
X100076000Y-35560000D01*
X101600000Y-37084000D02*
X101600000Y-38100000D01*
X100076000Y-35560000D02*
X101600000Y-37084000D01*
X124968000Y-84328000D02*
X124968000Y-81280000D01*
X124968000Y-78486000D02*
X124968000Y-81280000D01*
X124968000Y-81534000D02*
X128016000Y-81534000D01*
X128016000Y-84582000D02*
X128016000Y-81534000D01*
X128016000Y-81534000D02*
X129540000Y-83058000D01*
X150876000Y-83058000D02*
X152400000Y-81534000D01*
X129540000Y-83058000D02*
X150876000Y-83058000D01*
X152400000Y-84582000D02*
X152400000Y-81534000D01*
D39*
X165354000Y-61722000D02*
X164592000Y-60960000D01*
X169164000Y-61722000D02*
X165354000Y-61722000D01*
X164592000Y-60960000D02*
X164592000Y-59436000D01*
X169672000Y-61214000D02*
X169164000Y-61722000D01*
X169672000Y-55880000D02*
X169672000Y-61214000D01*
D36*
X106680000Y-35814000D02*
X105410000Y-35814000D01*
X103124000Y-38100000D02*
X101600000Y-38100000D01*
X105410000Y-35814000D02*
X103124000Y-38100000D01*
D39*
%TO.N,/D33*%
X159512000Y-55880000D02*
X157480000Y-55880000D01*
X155400999Y-57959001D02*
X153320000Y-57959001D01*
X157480000Y-55880000D02*
X155400999Y-57959001D01*
D40*
%TO.N,Net-(D4-Pad2)*%
X178308000Y-93980000D02*
X174752000Y-93980000D01*
X174244000Y-94488000D02*
X174244000Y-101092000D01*
X174752000Y-93980000D02*
X174244000Y-94488000D01*
X170180000Y-101092000D02*
X174244000Y-101092000D01*
X169672000Y-100584000D02*
X170180000Y-101092000D01*
X169672000Y-98552000D02*
X169672000Y-100584000D01*
%TO.N,Net-(D5-Pad2)*%
X179736000Y-111664000D02*
X178308000Y-110236000D01*
X185388000Y-111664000D02*
X179736000Y-111664000D01*
X178308000Y-110236000D02*
X175260000Y-110236000D01*
X174244000Y-111252000D02*
X174244000Y-114300000D01*
X175260000Y-110236000D02*
X174244000Y-111252000D01*
D38*
X174244000Y-114300000D02*
X170180000Y-114300000D01*
X165100000Y-109220000D02*
X165100000Y-106680000D01*
X170180000Y-114300000D02*
X165100000Y-109220000D01*
D36*
%TO.N,Net-(D6-Pad1)*%
X149352000Y-98552000D02*
X145288000Y-98552000D01*
%TO.N,Net-(D7-Pad1)*%
X138938000Y-98298000D02*
X134366000Y-98298000D01*
%TO.N,Net-(D8-Pad1)*%
X123190000Y-98298000D02*
X127508000Y-98298000D01*
%TO.N,Net-(D9-Pad1)*%
X116014999Y-98234999D02*
X116078000Y-98298000D01*
X111513001Y-98234999D02*
X116014999Y-98234999D01*
%TO.N,Net-(D10-Pad1)*%
X102635001Y-98532999D02*
X102870000Y-98298000D01*
X98865001Y-98532999D02*
X102635001Y-98532999D01*
%TO.N,Net-(D11-Pad1)*%
X86614000Y-98552000D02*
X90932000Y-98552000D01*
%TO.N,Net-(CN15-Pad2)*%
X93218000Y-80772000D02*
X93218000Y-82042000D01*
X94742000Y-79248000D02*
X93218000Y-80772000D01*
X100584000Y-79248000D02*
X94742000Y-79248000D01*
X101600000Y-80264000D02*
X100584000Y-79248000D01*
D37*
%TO.N,Net-(CN2-Pad1)*%
X197588000Y-76516000D02*
X199582000Y-76516000D01*
X200566000Y-75532000D02*
X212852000Y-75532000D01*
X199582000Y-76516000D02*
X200566000Y-75532000D01*
%TO.N,Net-(CN2-Pad3)*%
X197588000Y-64516000D02*
X200152000Y-64516000D01*
X201168000Y-65532000D02*
X212852000Y-65532000D01*
X200152000Y-64516000D02*
X201168000Y-65532000D01*
%TO.N,Net-(CN3-Pad1)*%
X212852000Y-92456000D02*
X203708000Y-92456000D01*
X202376000Y-93788000D02*
X197620000Y-93788000D01*
X203708000Y-92456000D02*
X202376000Y-93788000D01*
%TO.N,Net-(CN3-Pad3)*%
X197620000Y-81788000D02*
X202692000Y-81788000D01*
X203360000Y-82456000D02*
X212852000Y-82456000D01*
X202692000Y-81788000D02*
X203360000Y-82456000D01*
%TO.N,Net-(CN4-Pad3)*%
X212852000Y-100076000D02*
X204470000Y-100076000D01*
X204058000Y-99664000D02*
X197588000Y-99664000D01*
X204470000Y-100076000D02*
X204058000Y-99664000D01*
%TO.N,Net-(CN4-Pad1)*%
X212852000Y-110076000D02*
X206662000Y-110076000D01*
X205074000Y-111664000D02*
X197588000Y-111664000D01*
X206662000Y-110076000D02*
X205074000Y-111664000D01*
D39*
%TO.N,SDA*%
X101600000Y-40640000D02*
X103632000Y-40640000D01*
X106680000Y-43688000D02*
X106680000Y-45720000D01*
X103632000Y-40640000D02*
X106680000Y-43688000D01*
X102108000Y-44450000D02*
X103632000Y-44450000D01*
X105156000Y-45974000D02*
X106680000Y-45974000D01*
X103632000Y-44450000D02*
X105156000Y-45974000D01*
X127975002Y-63889000D02*
X128825001Y-63039001D01*
X102108000Y-47112768D02*
X118887252Y-63892020D01*
X102108000Y-44196000D02*
X102108000Y-47112768D01*
X118887252Y-63892020D02*
X127971982Y-63892020D01*
X127971982Y-63892020D02*
X127975002Y-63889000D01*
%TO.N,SCL*%
X98298000Y-44450000D02*
X96266000Y-44450000D01*
X94488000Y-46228000D02*
X94488000Y-47244000D01*
X96266000Y-44450000D02*
X94488000Y-46228000D01*
X98298000Y-44450000D02*
X98298000Y-45725644D01*
X123739357Y-70659001D02*
X127622920Y-70659001D01*
X115586401Y-62506044D02*
X123739357Y-70659001D01*
X127622920Y-70659001D02*
X128825001Y-70659001D01*
X115586401Y-62506044D02*
X115586401Y-62500401D01*
X98298000Y-45725644D02*
X98303644Y-45725644D01*
X98303644Y-45725644D02*
X99060000Y-46482000D01*
X99562357Y-46482000D02*
X115586401Y-62506044D01*
X99060000Y-46482000D02*
X99562357Y-46482000D01*
%TO.N,CS1*%
X123952000Y-60198000D02*
X123952000Y-58674000D01*
X121158000Y-62992000D02*
X123952000Y-60198000D01*
X123952000Y-58674000D02*
X127206999Y-55419001D01*
X119380000Y-62992000D02*
X121158000Y-62992000D01*
X110236000Y-45212000D02*
X110236000Y-53848000D01*
X127206999Y-55419001D02*
X128825001Y-55419001D01*
X110236000Y-53848000D02*
X119380000Y-62992000D01*
X112268000Y-43180000D02*
X110236000Y-45212000D01*
%TO.N,CLK*%
X122936000Y-40640000D02*
X122936000Y-39979600D01*
X126709001Y-48731001D02*
X126709001Y-54392999D01*
X126709001Y-54392999D02*
X126492000Y-54610000D01*
X121702999Y-47534999D02*
X125512999Y-47534999D01*
X125512999Y-47534999D02*
X126709001Y-48731001D01*
X114808000Y-40640000D02*
X121702999Y-47534999D01*
%TO.N,MISO*%
X128825001Y-60499001D02*
X125881993Y-63442009D01*
X119073652Y-63442009D02*
X109728000Y-54096357D01*
X109728000Y-54096357D02*
X109728000Y-43180000D01*
X125881993Y-63442009D02*
X119073652Y-63442009D01*
X109728000Y-43180000D02*
X112268000Y-40640000D01*
X118364000Y-40640000D02*
X120396000Y-40640000D01*
X113538000Y-39370000D02*
X117094000Y-39370000D01*
X117094000Y-39370000D02*
X118364000Y-40640000D01*
X112268000Y-40640000D02*
X113538000Y-39370000D01*
%TO.N,CS2*%
X120396000Y-43180000D02*
X120396000Y-44958000D01*
X128825001Y-47799001D02*
X127301001Y-47799001D01*
X127301001Y-47799001D02*
X125476000Y-45974000D01*
X125476000Y-45974000D02*
X121412000Y-45974000D01*
X121412000Y-45974000D02*
X120396000Y-44958000D01*
%TO.N,/TX0*%
X116036412Y-62314001D02*
X116036412Y-62319645D01*
X88392000Y-50800000D02*
X96520000Y-42672000D01*
X116036412Y-62319645D02*
X121835768Y-68119001D01*
X127622920Y-68119001D02*
X128825001Y-68119001D01*
X100272011Y-46549600D02*
X116036412Y-62314001D01*
X98931590Y-42672000D02*
X100272011Y-44012421D01*
X121835768Y-68119001D02*
X127622920Y-68119001D01*
X100272011Y-44012421D02*
X100272011Y-46549600D01*
X96520000Y-42672000D02*
X98931590Y-42672000D01*
%TO.N,/RX0*%
X89241999Y-47410001D02*
X88392000Y-48260000D01*
X94488000Y-42164000D02*
X89241999Y-47410001D01*
X100722022Y-46363200D02*
X100722022Y-43826022D01*
X119937823Y-65579001D02*
X100722022Y-46363200D01*
X128825001Y-65579001D02*
X119937823Y-65579001D01*
X99060000Y-42164000D02*
X94488000Y-42164000D01*
X100722022Y-43826022D02*
X99060000Y-42164000D01*
D36*
%TO.N,/D14*%
X101346000Y-87884000D02*
X101346000Y-87376000D01*
X102423990Y-86298010D02*
X107380010Y-86298010D01*
X107380010Y-86298010D02*
X107696000Y-86614000D01*
X101346000Y-87376000D02*
X102423990Y-86298010D01*
X114808000Y-84328000D02*
X111987962Y-84328000D01*
X111987962Y-84328000D02*
X111033953Y-85282010D01*
X109027990Y-85282010D02*
X107696000Y-86614000D01*
X111033953Y-85282010D02*
X109027990Y-85282010D01*
%TO.N,CONFIG_JMP*%
X120142000Y-72390000D02*
X120396000Y-72644000D01*
X116840000Y-68072000D02*
X118364000Y-68072000D01*
X120396000Y-70104000D02*
X120396000Y-72644000D01*
X118364000Y-68072000D02*
X120396000Y-70104000D01*
X132588000Y-53340000D02*
X129587001Y-50339001D01*
X132588000Y-73406000D02*
X132588000Y-53340000D01*
X129587001Y-50339001D02*
X128825001Y-50339001D01*
X130556000Y-75438000D02*
X132588000Y-73406000D01*
X122174000Y-75438000D02*
X130556000Y-75438000D01*
X120396000Y-73660000D02*
X122174000Y-75438000D01*
X120396000Y-72644000D02*
X120396000Y-73660000D01*
D40*
%TO.N,Net-(LD2-Pad1)*%
X174244000Y-90932000D02*
X174244000Y-88392000D01*
%TO.N,Net-(LD3-Pad1)*%
X174244000Y-104140000D02*
X170180000Y-104140000D01*
D39*
%TO.N,Net-(LD4-Pad1)*%
X121920000Y-59436000D02*
X119888000Y-61468000D01*
X121920000Y-51562000D02*
X121920000Y-59436000D01*
%TO.N,Net-(LD5-Pad1)*%
X116332000Y-57912000D02*
X116586000Y-58166000D01*
X116332000Y-51562000D02*
X116332000Y-57912000D01*
%TO.N,/D25*%
X161290000Y-75946000D02*
X161544000Y-76200000D01*
X161290000Y-54864000D02*
X161290000Y-75946000D01*
X160020000Y-53594000D02*
X161290000Y-54864000D01*
X157734000Y-53594000D02*
X160020000Y-53594000D01*
X155908999Y-55419001D02*
X157734000Y-53594000D01*
X153320000Y-55419001D02*
X155908999Y-55419001D01*
%TO.N,/D12*%
X157480000Y-76708000D02*
X157480000Y-75692000D01*
D36*
%TO.N,/D26*%
X142240000Y-84582000D02*
X148590000Y-84582000D01*
X163830000Y-72898000D02*
X162052000Y-71120000D01*
X148590000Y-84582000D02*
X150114000Y-86106000D01*
X150114000Y-86106000D02*
X154940000Y-86106000D01*
X163830000Y-77216000D02*
X163830000Y-72898000D01*
X153459989Y-53018990D02*
X153320000Y-52879001D01*
X162052000Y-71120000D02*
X162052000Y-54812814D01*
X162052000Y-54812814D02*
X160258176Y-53018990D01*
X160258176Y-53018990D02*
X153459989Y-53018990D01*
X163830000Y-77216000D02*
X154940000Y-86106000D01*
%TO.N,/D34*%
X114046000Y-87884000D02*
X114046000Y-87122000D01*
X114046000Y-87122000D02*
X114808000Y-86360000D01*
X114808000Y-86360000D02*
X133604000Y-86360000D01*
X135382000Y-84582000D02*
X138176000Y-84582000D01*
X133604000Y-86360000D02*
X135382000Y-84582000D01*
%TO.N,/D13*%
X89154000Y-87884000D02*
X89154000Y-86868000D01*
X89154000Y-86868000D02*
X90424000Y-85598000D01*
X90424000Y-85598000D02*
X105410000Y-85598000D01*
X105410000Y-85598000D02*
X106426000Y-84582000D01*
X106426000Y-84582000D02*
X110744000Y-84582000D01*
X114046000Y-81280000D02*
X114808000Y-81280000D01*
X110744000Y-84582000D02*
X114046000Y-81280000D01*
%TO.N,/D32*%
X110998000Y-78486000D02*
X109220000Y-80264000D01*
X114808000Y-78486000D02*
X110998000Y-78486000D01*
X137366999Y-60499001D02*
X153320000Y-60499001D01*
X134050008Y-63815992D02*
X137366999Y-60499001D01*
X134050008Y-74965954D02*
X134050008Y-63815992D01*
X114808000Y-78486000D02*
X116332000Y-76962000D01*
X132053962Y-76962000D02*
X134050008Y-74965954D01*
X116332000Y-76962000D02*
X132053962Y-76962000D01*
%TO.N,/EN*%
X153924000Y-73199001D02*
X156924999Y-73199001D01*
X159512000Y-70612000D02*
X159512000Y-65786000D01*
X156924999Y-73199001D02*
X159512000Y-70612000D01*
%TO.N,Net-(JP3-Pad1)*%
X101092000Y-72136000D02*
X100584000Y-72136000D01*
X99060000Y-70612000D02*
X93980000Y-70612000D01*
X100584000Y-72136000D02*
X99060000Y-70612000D01*
%TD*%
M02*
