M48
; DRILL file {KiCad (5.1.9)-1} date 01/12/22 17:44:06
; FORMAT={-:-/ absolute / inch / decimal}
; #@! TF.CreationDate,2022-01-12T17:44:06+01:00
; #@! TF.GenerationSoftware,Kicad,Pcbnew,(5.1.9)-1
; #@! TF.FileFunction,Plated,1,2,PTH
FMAT,2
INCH
T1C0.0157
T2C0.0295
T3C0.0315
T4C0.0354
T5C0.0394
T6C0.0433
T7C0.0512
T8C0.0520
T9C0.0787
T10C0.1378
%
G90
G05
T1
X4.98Y-2.15
X6.44Y-2.25
T2
X6.5Y-4.1
X6.5Y-4.15
X6.5Y-4.2
X6.68Y-3.78
X6.68Y-3.83
X6.68Y-3.88
X6.85Y-3.14
X6.9Y-3.14
X6.95Y-3.14
T3
X3.3Y-2.78
X3.4Y-2.17
X3.4Y-2.57
X3.41Y-3.46
X3.41Y-3.76
X3.41Y-3.88
X3.41Y-4.08
X3.51Y-3.46
X3.51Y-3.76
X3.61Y-3.46
X3.61Y-3.76
X3.67Y-3.03
X3.7Y-2.78
X3.72Y-1.46
X3.72Y-1.86
X3.87Y-1.75
X3.87Y-2.15
X3.87Y-3.03
X3.89Y-3.46
X3.89Y-3.76
X3.8923Y-3.8793
X3.8923Y-4.0793
X3.99Y-3.46
X3.99Y-3.76
X4.0Y-3.06
X4.0Y-3.16
X4.0Y-3.26
X4.02Y-1.75
X4.02Y-2.15
X4.09Y-3.46
X4.09Y-3.76
X4.19Y-2.29
X4.2Y-1.41
X4.2Y-1.81
X4.2Y-2.68
X4.3Y-3.06
X4.3Y-3.16
X4.3Y-3.26
X4.32Y-2.42
X4.39Y-3.46
X4.39Y-3.76
X4.3903Y-3.8675
X4.3903Y-4.0675
X4.49Y-3.46
X4.49Y-3.76
X4.52Y-3.09
X4.52Y-3.21
X4.52Y-3.33
X4.59Y-2.29
X4.59Y-3.46
X4.59Y-3.76
X4.6Y-2.68
X4.72Y-2.42
X4.85Y-3.46
X4.85Y-3.76
X4.85Y-3.87
X4.85Y-4.07
X4.92Y-3.09
X4.92Y-3.21
X4.92Y-3.33
X4.95Y-3.46
X4.95Y-3.76
X5.04Y-3.21
X5.04Y-3.33
X5.05Y-3.46
X5.05Y-3.76
X5.29Y-3.46
X5.29Y-3.76
X5.29Y-3.87
X5.29Y-4.07
X5.39Y-3.46
X5.39Y-3.76
X5.44Y-3.21
X5.44Y-3.33
X5.49Y-3.46
X5.49Y-3.76
X5.6Y-3.21
X5.6Y-3.33
X5.72Y-3.46
X5.72Y-3.76
X5.72Y-3.88
X5.72Y-4.08
X5.82Y-3.46
X5.82Y-3.76
X5.92Y-3.46
X5.92Y-3.76
X6.0Y-3.21
X6.0Y-3.33
X6.2Y-3.0
X6.2Y-3.4
X6.22Y-3.52
X6.26Y-3.78
X6.26Y-4.18
X6.28Y-2.4916
X6.28Y-2.59
X6.36Y-3.0
X6.36Y-3.4
X6.4Y-3.7831
X6.4Y-3.98
X6.42Y-3.66
X6.48Y-2.34
X6.48Y-2.74
X6.56Y-2.98
X6.56Y-3.38
X6.6169Y-3.66
X6.62Y-2.34
X6.62Y-2.74
X6.62Y-3.52
X6.7Y-3.0831
X6.7Y-3.28
X6.82Y-2.58
X6.82Y-2.98
X6.86Y-3.58
X6.86Y-3.98
X6.86Y-4.1
X6.86Y-4.5
X7.0231Y-1.76
X7.07Y-1.94
X7.07Y-2.0384
X7.22Y-1.76
X7.4631Y-1.98
X7.62Y-2.16
X7.62Y-2.2978
X7.66Y-1.98
T4
X4.58Y-2.03
X4.68Y-2.03
X4.8Y-2.03
X4.9Y-2.03
X6.7Y-4.1
X6.7Y-4.2
X6.82Y-2.4
X6.86Y-3.38
X6.86Y-3.48
X6.92Y-2.4
T5
X3.48Y-1.5
X3.48Y-1.6
X3.48Y-1.7
X3.48Y-1.8
X3.48Y-1.9
X3.48Y-2.0
X3.7Y-2.46
X3.9Y-1.5
X3.9Y-1.6
X3.98Y-2.84
X3.9992Y-2.46
X4.0Y-1.5
X4.0Y-1.6
X4.08Y-2.84
X4.24Y-3.41
X4.24Y-3.51
X4.42Y-1.5
X4.42Y-1.6
X4.42Y-1.7
X4.52Y-1.5
X4.52Y-1.6
X4.52Y-1.7
X4.64Y-2.86
X4.74Y-1.5
X4.74Y-1.6
X4.74Y-1.7
X4.74Y-2.86
X4.84Y-1.5
X4.84Y-1.6
X4.84Y-1.7
X5.0719Y-1.4819
X5.0719Y-1.5819
X5.0719Y-1.6819
X5.0719Y-1.7819
X5.0719Y-1.8819
X5.0719Y-1.9819
X5.0719Y-2.0819
X5.0719Y-2.1819
X5.0719Y-2.2819
X5.0719Y-2.3819
X5.0719Y-2.4819
X5.0719Y-2.5819
X5.0719Y-2.6819
X5.0719Y-2.7819
X5.0719Y-2.8819
X6.06Y-1.4819
X6.06Y-1.5819
X6.06Y-1.6819
X6.06Y-1.7819
X6.06Y-1.8819
X6.06Y-1.9819
X6.06Y-2.0819
X6.06Y-2.1819
X6.06Y-2.2819
X6.06Y-2.3819
X6.06Y-2.4819
X6.06Y-2.5819
X6.06Y-2.6819
X6.06Y-2.7819
X6.06Y-2.8819
T6
X3.58Y-3.88
X3.58Y-4.08
X3.67Y-3.23
X3.87Y-3.23
X4.05Y-3.87
X4.05Y-4.07
X4.57Y-3.87
X4.57Y-4.07
X5.02Y-3.87
X5.02Y-4.07
X5.47Y-3.87
X5.47Y-4.07
X5.88Y-3.88
X5.88Y-4.08
X6.28Y-2.2
X6.68Y-2.2
X7.02Y-2.56
X7.02Y-2.96
X7.02Y-3.31
X7.02Y-3.71
X7.02Y-3.94
X7.02Y-4.34
X7.12Y-1.5
X7.22Y-1.5
X7.32Y-1.5
X8.02Y-1.68
X8.02Y-2.08
T7
X7.22Y-2.7762
X7.22Y-4.16
X7.2213Y-3.4562
X7.2987Y-2.54
X7.2987Y-3.0124
X7.2987Y-3.9238
X7.2987Y-4.3962
X7.3Y-3.22
X7.3Y-3.6924
X7.7791Y-2.54
X7.7791Y-3.0124
X7.7791Y-3.9238
X7.7791Y-4.3962
X7.7803Y-3.22
X7.7803Y-3.6924
T8
X3.33Y-3.0231
X3.33Y-3.22
X3.4331Y-4.44
X3.63Y-4.44
X3.92Y-4.43
X4.1169Y-4.43
X4.43Y-4.43
X4.6269Y-4.43
X4.8731Y-4.43
X5.07Y-4.43
X5.32Y-4.43
X5.5169Y-4.43
X5.76Y-4.43
X5.9569Y-4.43
X8.38Y-1.78
X8.38Y-1.9769
X8.38Y-2.58
X8.38Y-2.7769
X8.38Y-2.9737
X8.38Y-3.2463
X8.38Y-3.4431
X8.38Y-3.64
X8.38Y-3.94
X8.38Y-4.1369
X8.38Y-4.3337
T10
X6.72Y-1.64
X7.72Y-1.64
T9
G00X7.9751Y-2.28
M15
G01X8.1326Y-2.28
M16
G05
G00X8.3413Y-2.28
M15
G01X8.4987Y-2.28
M16
G05
T0
M30
